<svg width="37" height="37" viewBox="0 0 37 37" fill="none" xmlns="http://www.w3.org/2000/svg">
<mask id="mask0" mask-type="alpha" maskUnits="userSpaceOnUse" x="0" y="0" width="37" height="37">
<path fill-rule="evenodd" clip-rule="evenodd" d="M0.981201 18.0723C0.981201 8.13114 9.04008 0.0722656 18.9812 0.0722656C28.9223 0.0722656 36.9812 8.13114 36.9812 18.0723C36.9812 28.0134 28.9223 36.0723 18.9812 36.0723C9.04008 36.0723 0.981201 28.0134 0.981201 18.0723Z" fill="white"/>
</mask>
<g mask="url(#mask0)">
<path fill-rule="evenodd" clip-rule="evenodd" d="M18.982 8.47226C16.3748 8.47226 16.0476 8.48366 15.0236 8.53026C14.0016 8.57706 13.3039 8.73886 12.6935 8.97626C12.0621 9.22147 11.5265 9.54947 10.9929 10.0833C10.4589 10.6169 10.1309 11.1525 9.88491 11.7837C9.64691 12.3943 9.4849 13.0921 9.4389 14.1137C9.3931 15.1377 9.3811 15.4651 9.3811 18.0724C9.3811 20.6796 9.3927 21.0058 9.4391 22.0298C9.4861 23.0518 9.64791 23.7494 9.88511 24.3598C10.1305 24.9912 10.4585 25.5268 10.9923 26.0604C11.5257 26.5944 12.0613 26.9232 12.6923 27.1685C13.3031 27.4059 14.001 27.5677 15.0228 27.6145C16.0468 27.6611 16.3738 27.6725 18.9808 27.6725C21.5882 27.6725 21.9144 27.6611 22.9384 27.6145C23.9605 27.5677 24.6589 27.4059 25.2697 27.1685C25.9009 26.9232 26.4357 26.5944 26.9691 26.0604C27.5031 25.5268 27.8311 24.9912 28.0771 24.36C28.3131 23.7494 28.4751 23.0516 28.5231 22.03C28.5691 21.006 28.5811 20.6796 28.5811 18.0724C28.5811 15.4651 28.5691 15.1379 28.5231 14.1139C28.4751 13.0919 28.3131 12.3943 28.0771 11.7839C27.8311 11.1525 27.5031 10.6169 26.9691 10.0833C26.4351 9.54927 25.9011 9.22127 25.2691 8.97626C24.6571 8.73886 23.9591 8.57706 22.937 8.53026C21.913 8.48366 21.587 8.47226 18.979 8.47226L18.982 8.47226ZM18.1208 10.2023C18.288 10.202 18.4679 10.2021 18.662 10.2022L18.982 10.2023C21.5452 10.2023 21.849 10.2115 22.8612 10.2575C23.7973 10.3003 24.3053 10.4567 24.6437 10.5881C25.0917 10.7621 25.4111 10.9701 25.7469 11.3061C26.0829 11.6421 26.2909 11.9621 26.4653 12.4101C26.5967 12.7481 26.7533 13.2561 26.7959 14.1921C26.8419 15.2041 26.8519 15.5081 26.8519 18.0702C26.8519 20.6322 26.8419 20.9362 26.7959 21.9482C26.7531 22.8842 26.5967 23.3922 26.4653 23.7302C26.2913 24.1782 26.0829 24.4972 25.7469 24.833C25.4109 25.169 25.0919 25.377 24.6437 25.551C24.3057 25.683 23.7973 25.839 22.8612 25.8818C21.8492 25.9278 21.5452 25.9378 18.982 25.9378C16.4186 25.9378 16.1148 25.9278 15.1028 25.8818C14.1668 25.8386 13.6587 25.6822 13.3201 25.5508C12.8721 25.3768 12.5521 25.1688 12.2161 24.8328C11.8801 24.4968 11.6721 24.1776 11.4977 23.7294C11.3663 23.3914 11.2097 22.8834 11.1671 21.9474C11.1211 20.9354 11.1119 20.6314 11.1119 18.0678C11.1119 15.5041 11.1211 15.2017 11.1671 14.1897C11.2099 13.2537 11.3663 12.7457 11.4977 12.4073C11.6717 11.9593 11.8801 11.6393 12.2161 11.3033C12.5521 10.9673 12.8721 10.7593 13.3201 10.5849C13.6585 10.4529 14.1668 10.2969 15.1028 10.2539C15.9884 10.2139 16.3316 10.2019 18.1208 10.1999L18.1208 10.2023ZM22.9544 12.9479C22.9544 12.3117 23.4705 11.7963 24.1065 11.7963L24.1065 11.7959C24.7425 11.7959 25.2585 12.3119 25.2585 12.9479C25.2585 13.5839 24.7425 14.0999 24.1065 14.0999C23.4705 14.0999 22.9544 13.5839 22.9544 12.9479ZM18.9818 13.1423C16.2593 13.1424 14.052 15.3498 14.052 18.0724C14.052 20.795 16.2594 23.0014 18.982 23.0014C21.7046 23.0014 23.9113 20.795 23.9113 18.0724C23.9113 15.3497 21.7044 13.1423 18.9818 13.1423ZM22.182 18.0724C22.182 16.3049 20.7492 14.8723 18.982 14.8723C17.2146 14.8723 15.782 16.3049 15.782 18.0724C15.782 19.8396 17.2146 21.2724 18.982 21.2724C20.7492 21.2724 22.182 19.8396 22.182 18.0724Z" fill="#1DA737"/>
</g>
</svg>
