<svg width="136" height="196" viewBox="0 0 136 196" fill="none" xmlns="http://www.w3.org/2000/svg">
<path d="M105.594 169.162C105.594 166.975 105.615 164.796 105.581 162.61C105.574 161.973 105.753 161.689 106.418 161.752C106.937 161.8 107.469 161.779 107.995 161.759C108.742 161.724 109.303 161.952 109.497 162.741C109.642 163.336 109.905 163.177 110.244 162.886C111.461 161.828 112.894 161.433 114.471 161.551C116.996 161.745 118.816 163.53 118.934 166.256C119.079 169.515 118.989 172.78 119.01 176.039C119.01 176.433 118.837 176.579 118.463 176.572C117.356 176.565 116.249 176.551 115.149 176.572C114.533 176.585 114.603 176.177 114.603 175.79C114.603 173.216 114.603 170.649 114.603 168.075C114.603 167.909 114.603 167.743 114.603 167.577C114.589 166.622 114.603 165.626 113.613 165.107C112.562 164.554 111.586 164.962 110.645 165.522C110.161 165.813 110.002 166.2 110.009 166.754C110.036 169.653 110.022 172.559 110.022 175.465C110.022 176.572 110.022 176.572 108.881 176.572C108.051 176.572 107.22 176.544 106.397 176.585C105.788 176.62 105.574 176.419 105.587 175.79C105.615 173.59 105.594 171.376 105.594 169.162Z" fill="white"/>
<path d="M44.2726 173.614C42.6536 169.919 41.0346 166.218 39.3949 162.53C39.1389 161.963 39.1942 161.734 39.8792 161.762C40.7925 161.803 41.7057 161.803 42.6121 161.762C43.5115 161.727 44.0443 162.094 44.3487 162.959C45.179 165.277 46.0645 167.567 46.9294 169.871C46.9847 170.023 46.9986 170.196 47.2753 170.286C47.476 169.753 47.6905 169.227 47.8773 168.688C48.5415 166.785 49.2195 164.882 49.8491 162.966C50.1189 162.135 50.6171 161.741 51.4958 161.762C52.2983 161.783 53.1009 161.783 53.9035 161.762C54.4847 161.748 54.7268 161.852 54.4431 162.509C53.1909 165.373 51.9801 168.252 50.7555 171.123C50.285 172.161 49.856 173.219 49.4201 174.271C49.1019 174.997 48.7421 175.71 48.5069 176.471C48.4446 177.011 48.071 177.419 47.9188 177.924C47.7735 178.187 47.7458 178.498 47.5728 178.747C47.5313 178.823 47.4967 178.893 47.4552 178.969C47.047 179.695 47.047 180.775 46.1683 181.1C45.0198 181.529 43.7675 181.28 42.5637 181.245C42.024 181.231 42.363 180.795 42.4599 180.574C43.2694 178.851 44.0927 177.142 44.916 175.426C44.9576 174.735 44.4802 174.223 44.2726 173.614Z" fill="white"/>
<path d="M60.1402 176.794C58.9156 176.78 57.3381 176.358 55.8782 175.486C55.3524 175.175 55.1241 174.857 55.6015 174.331C55.6776 174.248 55.7191 174.144 55.7814 174.047C56.7362 172.525 57.0475 172.435 58.6457 173.245C59.4276 173.639 60.2301 173.888 61.1157 173.784C61.7799 173.701 62.3957 173.501 62.541 172.739C62.6932 171.951 62.1328 171.591 61.5239 171.328C60.41 170.844 59.1923 170.622 58.0992 170.069C55.9682 168.989 55.131 166.852 55.9751 164.61C56.3418 163.641 56.9922 162.915 57.8847 162.396C60.2094 161.047 63.9317 161.31 66.0695 162.949C66.5054 163.282 66.6438 163.579 66.2702 164.029C66.1457 164.174 66.0557 164.354 65.9519 164.513C65.2393 165.613 64.9902 165.689 63.7794 165.191C62.9561 164.852 62.1259 164.534 61.2126 164.665C60.6107 164.748 60.0433 164.942 59.9188 165.634C59.7873 166.34 60.2647 166.713 60.8321 166.942C61.7592 167.308 62.707 167.606 63.6341 167.966C65.8066 168.796 66.6992 169.924 66.713 171.805C66.7268 173.874 65.6198 175.459 63.6134 176.268C62.6517 176.655 61.6416 176.787 60.1402 176.794Z" fill="white"/>
<path d="M89.8834 163.994C90.4438 163.392 90.8727 162.818 91.4401 162.375C92.3879 161.635 93.4327 161.33 94.6227 161.566C95.2315 161.683 95.5429 161.981 95.3768 162.666C95.2108 163.365 95.1001 164.077 95.0032 164.79C94.9063 165.544 94.5466 165.848 93.7717 165.717C92.5263 165.496 91.4055 165.71 90.5683 166.776C90.2431 167.184 90.084 167.606 90.084 168.138C90.1048 170.657 90.0771 173.168 90.1048 175.687C90.1117 176.344 89.9664 176.642 89.2399 176.593C88.3059 176.531 87.358 176.552 86.424 176.586C85.8566 176.607 85.6422 176.434 85.6491 175.839C85.6698 171.411 85.6698 166.99 85.6491 162.562C85.6491 161.96 85.8151 161.669 86.4447 161.752C86.5831 161.773 86.7215 161.759 86.8599 161.759C89.1638 161.78 89.1638 161.78 89.8834 163.994Z" fill="white"/>
<path d="M102.031 169.202C102.031 171.416 102.017 173.623 102.044 175.837C102.051 176.418 101.872 176.619 101.29 176.598C100.294 176.557 99.2977 176.57 98.3083 176.591C97.8379 176.598 97.5957 176.487 97.5957 175.955C97.6095 171.451 97.6095 166.946 97.6026 162.442C97.6026 161.951 97.7687 161.75 98.2807 161.771C99.3046 161.799 100.329 161.799 101.346 161.771C101.892 161.757 102.058 161.965 102.051 162.498C102.017 164.719 102.031 166.96 102.031 169.202Z" fill="white"/>
<path d="M1.79912 141.713C0.574501 140.731 -0.00667463 139.451 0.0140816 137.887C0.0210004 137.278 0.000244141 136.67 0.000244141 136.061C0.000244141 97.6548 0.000244141 59.2488 0.000244141 20.8429C0.000244141 19.9019 0.0486754 18.961 0.090188 18.02C0.104025 17.6602 0.124782 17.3005 0.415369 17.0237C0.532988 16.9684 0.622932 16.996 0.69212 17.1067C0.85817 17.5149 0.782064 17.937 0.726713 18.3383C0.519151 19.8535 0.58142 21.3756 0.58142 22.8977C0.58142 60.681 0.58142 98.4642 0.58142 136.248C0.58142 137.022 0.602176 137.79 0.705957 138.565C0.851251 139.569 1.28713 140.399 2.0136 141.084C2.20733 141.271 2.47024 141.416 2.51867 141.72C2.28343 142.288 2.04128 141.796 1.79912 141.713Z" fill="#35AD45"/>
<path d="M0.629926 17.039C0.560738 17.0321 0.491551 17.0252 0.422363 17.0183C0.830569 15.6207 1.84762 14.8458 3.14143 14.3753C3.77104 14.147 4.43524 14.1055 5.09944 14.1055C44.4948 14.1055 83.8901 14.1055 123.292 14.1124C123.867 14.1124 124.455 14.064 124.981 14.3615C124.877 14.5068 124.725 14.569 124.558 14.6105C124.04 14.7005 123.514 14.6659 122.988 14.6659C83.9524 14.6659 44.9099 14.6797 5.87433 14.6382C3.88865 14.6382 2.31118 15.1848 1.1004 16.7484C0.982782 16.9145 0.858244 17.0667 0.629926 17.039Z" fill="#38A74C"/>
<path d="M109.157 191.497C109.157 190.833 109.15 190.168 109.157 189.504C109.164 188.757 109.648 188.39 110.25 188.819C110.707 189.144 110.949 188.978 111.33 188.812C111.897 188.556 112.478 188.577 112.935 189.061C113.17 189.31 113.329 189.456 113.668 189.158C114.332 188.57 115.128 188.508 115.917 188.854C116.712 189.2 116.885 189.94 116.906 190.715C116.934 191.684 116.892 192.652 116.927 193.621C116.948 194.278 116.525 194.216 116.103 194.23C115.647 194.243 115.28 194.23 115.308 193.6C115.342 192.714 115.322 191.829 115.308 190.943C115.301 190.452 115.252 189.919 114.616 189.919C113.952 189.912 113.848 190.445 113.848 190.978C113.841 191.78 113.806 192.583 113.862 193.386C113.903 194.029 113.71 194.243 113.032 194.25C112.305 194.257 112.208 193.939 112.236 193.344C112.27 192.569 112.25 191.794 112.236 191.019C112.229 190.514 112.25 189.933 111.544 189.912C110.824 189.892 110.735 190.41 110.748 190.999C110.769 191.857 110.728 192.714 110.769 193.572C110.804 194.264 110.382 194.223 109.911 194.237C109.427 194.25 109.109 194.188 109.143 193.579C109.185 192.88 109.157 192.189 109.157 191.497Z" fill="white"/>
<path d="M69.6651 191.469C69.6651 190.832 69.6651 190.196 69.6651 189.559C69.6651 188.736 70.1701 188.397 70.8551 188.861C71.2149 189.103 71.3947 189.04 71.713 188.874C72.3564 188.542 73.0068 188.528 73.5188 189.13C73.7748 189.435 73.9478 189.338 74.1968 189.13C74.8818 188.57 75.6636 188.501 76.4523 188.861C77.2411 189.22 77.4071 189.968 77.4279 190.736C77.4556 191.676 77.4002 192.617 77.4486 193.558C77.4832 194.243 77.075 194.223 76.5976 194.229C76.1341 194.236 75.7881 194.202 75.8158 193.579C75.8504 192.666 75.8296 191.753 75.8158 190.839C75.8089 190.369 75.712 189.912 75.117 189.912C74.5497 189.912 74.3767 190.341 74.3629 190.819C74.3421 191.732 74.3214 192.645 74.3629 193.558C74.3906 194.16 74.0931 194.236 73.6018 194.229C73.1244 194.216 72.7231 194.243 72.7508 193.558C72.7923 192.645 72.7647 191.732 72.7577 190.819C72.7508 190.341 72.6332 189.898 72.0382 189.905C71.4363 189.912 71.2564 190.293 71.2771 190.853C71.3048 191.739 71.2495 192.624 71.291 193.51C71.3256 194.146 71.0211 194.243 70.4884 194.229C69.9972 194.223 69.6097 194.216 69.6581 193.545C69.7066 192.853 69.672 192.161 69.6651 191.469C69.672 191.469 69.672 191.469 69.6651 191.469Z" fill="white"/>
<path d="M5.76294 187.04C7.13977 186.244 8.53735 186.189 9.94186 186.978C10.2532 187.151 10.613 187.358 10.274 187.815C10.011 188.168 9.78965 188.61 9.22231 188.278C8.35747 187.773 7.47187 187.704 6.66929 188.361C5.79753 189.074 5.69375 190.063 5.90823 191.087C6.23341 192.651 7.60332 193.274 9.00783 192.492C9.36068 192.298 9.60976 192.194 9.9557 192.526C10.4054 192.955 10.4054 193.246 9.90726 193.64C8.75183 194.554 6.0051 194.685 4.7874 192.859C3.95023 191.475 3.79802 190.036 4.44838 188.541C4.76664 187.946 5.22328 187.455 5.76294 187.04Z" fill="white"/>
<path d="M97.5826 156.349C98.5166 155.214 99.5959 154.854 100.779 155.276C102.184 155.781 102.896 157.297 102.35 158.618C101.775 160.009 100.032 160.659 98.6827 159.974C98.4128 159.836 98.1776 159.642 97.9285 159.476C97.0568 158.604 96.8976 157.352 97.5826 156.349Z" fill="white"/>
<path d="M84.1754 191.488C84.1754 190.824 84.1685 190.16 84.1754 189.496C84.1824 188.749 84.7359 188.396 85.3516 188.839C85.7114 189.102 85.8982 189.088 86.2649 188.901C87.5725 188.23 88.8525 188.894 88.984 190.354C89.0877 191.482 89.0393 192.616 89.0393 193.751C89.0393 194.387 88.5273 194.187 88.1814 194.208C87.8216 194.235 87.4272 194.284 87.4342 193.716C87.4411 192.775 87.4411 191.834 87.4342 190.893C87.4272 190.388 87.3304 189.897 86.7008 189.904C86.085 189.911 85.7598 190.25 85.7806 190.914C85.8152 191.8 85.7598 192.685 85.8013 193.564C85.829 194.173 85.5038 194.221 85.0264 194.214C84.5491 194.208 84.1339 194.235 84.1754 193.55C84.21 192.872 84.1824 192.18 84.1754 191.488C84.1824 191.488 84.1824 191.488 84.1754 191.488Z" fill="white"/>
<path d="M43.6672 191.462C43.6672 190.826 43.6672 190.189 43.6672 189.553C43.6742 188.736 44.2069 188.39 44.8642 188.861C45.2032 189.103 45.3623 189.089 45.7013 188.916C47.0505 188.217 48.3443 188.874 48.4827 190.383C48.5865 191.483 48.5311 192.59 48.538 193.697C48.545 194.382 48.0261 194.188 47.6455 194.216C47.2581 194.243 46.919 194.237 46.9329 193.69C46.9536 192.804 46.9467 191.919 46.9398 191.04C46.9329 190.5 46.926 189.905 46.1718 189.912C45.4799 189.919 45.2516 190.362 45.2793 191.033C45.3208 191.891 45.2586 192.749 45.2931 193.6C45.3208 194.243 44.9403 194.23 44.4975 194.223C44.0685 194.216 43.6465 194.271 43.6672 193.621C43.688 192.901 43.6672 192.182 43.6672 191.462Z" fill="white"/>
<path d="M100.841 190.361C100.841 189.309 100.875 188.258 100.827 187.213C100.792 186.5 101.187 186.486 101.705 186.493C102.211 186.5 102.626 186.473 102.612 187.199C102.57 188.776 102.633 190.354 102.584 191.925C102.563 192.644 102.833 192.859 103.491 192.796C103.843 192.762 104.21 192.824 104.57 192.775C105.158 192.706 105.421 192.859 105.414 193.523C105.407 194.152 105.137 194.256 104.604 194.235C103.58 194.208 102.557 194.201 101.539 194.235C100.986 194.256 100.82 194.035 100.834 193.509C100.861 192.457 100.841 191.406 100.841 190.361Z" fill="white"/>
<path d="M85.9381 3.90663C85.9589 1.43663 88.5119 -0.120083 90.7259 1.00075C91.0096 1.14605 91.5077 1.24983 91.2656 1.7549C91.058 2.19078 90.7467 2.43985 90.207 2.14235C89.529 1.76873 88.8025 1.77565 88.1798 2.26688C87.5087 2.79963 87.3703 3.56069 87.4948 4.37018C87.7024 5.71934 88.8578 6.36278 90.0686 5.74701C90.5737 5.49102 90.9265 5.51177 91.1687 5.98917C91.4385 6.50807 90.9196 6.65337 90.6221 6.81942C88.4358 8.03711 85.9174 6.46656 85.9381 3.90663Z" fill="white"/>
<path d="M126.586 0.733544C126.89 0.733544 127.195 0.726625 127.499 0.733544C127.79 0.740462 128.156 0.657438 128.184 1.11407C128.205 1.52228 128.018 1.8267 127.596 1.88205C127.215 1.93049 126.828 1.9374 126.44 1.92357C125.984 1.90281 125.776 2.10345 125.769 2.54625C125.762 3.06516 126.15 2.90603 126.42 2.92678C127.561 3.01673 128.246 3.57714 128.398 4.56652C128.565 5.61125 127.97 6.64906 126.973 7.01576C126.122 7.3271 125.292 7.24407 124.51 6.76668C124.275 6.62139 124.005 6.46226 124.22 6.12324C124.386 5.86033 124.586 5.61125 124.953 5.73579C125.216 5.82573 125.458 5.97103 125.721 6.04021C126.115 6.144 126.51 6.11632 126.78 5.77038C127.077 5.39677 127.132 4.96089 126.946 4.51809C126.766 4.09605 126.378 4.03378 125.977 4.02686C124.365 4.01994 124.365 4.01994 124.614 2.46323C124.621 2.43555 124.621 2.40788 124.628 2.3802C125.015 0.463713 124.51 0.761219 126.586 0.733544Z" fill="white"/>
<path d="M123.112 4.10165C123.721 4.95266 123.687 5.87285 123.029 6.55089C122.317 7.28428 120.857 7.42265 119.985 6.83456C119.805 6.71694 119.66 6.54397 119.494 6.39868C119.335 6.08733 118.878 5.78983 119.3 5.40929C119.75 5.00109 120.2 5.11871 120.573 5.58918C120.898 5.99739 121.313 6.12193 121.805 5.90744C122.455 5.11871 122.33 4.60672 121.403 4.3784C121.106 4.30229 120.884 4.22619 120.884 3.86641C120.884 3.52739 121.044 3.36134 121.369 3.31983C121.805 3.2714 122.095 3.06384 122.116 2.59336C122.13 2.26818 122.033 1.97068 121.708 1.84614C121.251 1.67317 120.905 1.85306 120.649 2.24743C120.511 2.46191 120.366 2.66947 120.075 2.66255C119.826 2.66255 119.556 2.67639 119.376 2.47574C119.162 2.24051 119.349 2.00527 119.452 1.79079C119.937 0.801408 121.265 0.365526 122.393 0.822164C123.313 1.18886 123.61 1.94992 123.285 3.07076C123.188 3.41669 122.483 3.65193 123.112 4.10165Z" fill="white"/>
<path d="M62.7813 188.66C63.2587 188.667 63.7222 188.75 64.1374 188.992C64.3795 189.13 64.6424 189.29 64.4487 189.642C64.2965 189.926 64.0959 190.148 63.7222 190.051C63.4593 189.981 63.1964 189.885 62.9197 189.85C62.636 189.809 62.3316 189.85 62.2486 190.182C62.1724 190.5 62.4492 190.611 62.6706 190.708C62.9958 190.853 63.3417 190.964 63.6738 191.102C64.255 191.344 64.6424 191.753 64.6494 192.417C64.6563 193.143 64.3449 193.711 63.6877 194.029C62.809 194.451 61.9165 194.375 61.0447 193.974C60.7956 193.863 60.4912 193.731 60.6572 193.365C60.8164 193.026 61.0378 192.735 61.4944 192.88C61.8058 192.977 62.1171 193.116 62.4354 193.171C62.719 193.219 63.0165 193.123 63.0926 192.804C63.1687 192.507 62.9128 192.368 62.6844 192.258C62.5115 192.175 62.3247 192.119 62.1448 192.057C60.9617 191.628 60.5327 191.033 60.7057 190.065C60.8648 189.193 61.6674 188.646 62.7813 188.66Z" fill="white"/>
<path d="M26.0292 191.55C26.0292 191.245 26.0292 190.941 26.0292 190.636C26.0292 190.283 26.0776 189.972 25.5864 189.799C25.1229 189.64 25.1298 188.99 25.5795 188.872C26.1399 188.727 26.2437 188.353 26.3129 187.91C26.389 187.405 26.5965 187.087 27.1639 187.128C27.7797 187.17 27.6551 187.647 27.6274 187.993C27.579 188.581 27.8142 188.803 28.3885 188.734C28.8313 188.685 28.9489 188.934 28.9489 189.336C28.9489 189.737 28.7621 189.903 28.3954 189.854C27.7243 189.765 27.5928 190.117 27.6413 190.685C27.6759 191.093 27.6551 191.515 27.6482 191.923C27.6413 192.477 27.5444 193.058 28.4369 193.009C28.7552 192.996 28.9005 193.397 28.9558 193.687C29.0181 194.006 28.6929 194.068 28.4715 194.151C27.1085 194.663 26.0776 193.985 26.0361 192.539C26.0223 192.207 26.0292 191.875 26.0292 191.55Z" fill="white"/>
<path d="M65.8549 191.608C65.8549 191.303 65.8549 190.999 65.8549 190.694C65.8549 190.314 65.9102 189.975 65.3775 189.788C64.9347 189.636 64.9693 188.992 65.4328 188.861C65.9448 188.715 66.0624 188.376 66.1316 187.961C66.2147 187.436 66.4153 187.062 67.0311 187.131C67.6468 187.2 67.4531 187.692 67.4531 188.037C67.4531 188.501 67.543 188.799 68.0896 188.736C68.5117 188.688 68.7746 188.812 68.7607 189.324C68.7469 189.781 68.5186 189.919 68.1311 189.871C67.5292 189.795 67.4323 190.127 67.46 190.618C67.4877 191.116 67.4739 191.614 67.4669 192.113C67.4531 192.625 67.4739 193.047 68.1934 193.005C68.5601 192.984 68.7331 193.393 68.7746 193.711C68.823 194.022 68.4909 194.077 68.2626 194.161C66.8719 194.666 65.8895 193.994 65.8549 192.521C65.848 192.216 65.8549 191.912 65.8549 191.608Z" fill="white"/>
<path d="M122.974 194.302C121.971 194.281 121.397 193.783 121.327 192.884C121.272 192.199 121.314 191.507 121.3 190.815C121.293 190.393 121.41 189.985 120.795 189.763C120.421 189.625 120.38 189.03 120.857 188.878C121.403 188.712 121.521 188.359 121.59 187.916C121.666 187.418 121.86 187.093 122.441 187.127C123.071 187.169 122.926 187.639 122.905 187.985C122.87 188.56 123.071 188.816 123.659 188.733C124.109 188.67 124.212 188.933 124.226 189.334C124.24 189.743 124.04 189.902 123.673 189.86C123.016 189.777 122.856 190.096 122.905 190.684C122.939 191.092 122.905 191.514 122.912 191.922C122.919 192.462 122.78 193.077 123.694 193.015C124.005 192.994 124.171 193.396 124.219 193.679C124.275 194.039 123.915 194.095 123.666 194.171C123.403 194.254 123.126 194.274 122.974 194.302Z" fill="white"/>
<path d="M53.2279 192.686C53.1172 192.963 53.0065 193.24 52.8958 193.517C52.7575 193.869 52.6675 194.25 52.1417 194.222C51.6643 194.195 51.1316 194.326 50.9309 193.683C50.3567 192.292 49.8516 190.874 49.3396 189.462C49.0905 188.784 49.1943 188.639 49.9 188.625C50.3013 188.618 50.668 188.68 50.8963 189.054C51.2007 190.078 51.4983 191.102 51.8027 192.119C51.8649 192.126 51.9341 192.133 51.9964 192.14C52.2801 191.247 52.5914 190.362 52.8405 189.462C52.9996 188.881 53.3317 188.68 53.9198 188.701C54.4664 188.715 54.7224 188.819 54.4456 189.407C54.3488 189.601 54.3004 189.822 54.2242 190.03C53.8783 190.915 53.5946 191.815 53.2279 192.686Z" fill="white"/>
<path d="M94.899 192.879C95.0097 192.934 95.1204 192.982 95.2311 193.038C95.6255 193.072 96.179 193.391 96.3243 192.809C96.4488 192.304 95.8746 192.242 95.5079 192.097C95.0513 191.917 94.6154 191.702 94.2625 191.343C93.8266 190.298 93.9858 189.495 94.7399 188.997C95.4871 188.499 97.0646 188.568 97.6458 189.101C97.8464 189.281 97.8741 189.461 97.7357 189.682C97.5835 189.931 97.4036 190.125 97.0715 190.042C96.781 189.966 96.4904 189.876 96.1929 189.834C95.9438 189.8 95.667 189.855 95.584 190.139C95.4941 190.443 95.7293 190.588 95.9645 190.692C96.1652 190.782 96.3797 190.844 96.5803 190.928C97.2099 191.17 97.8395 191.419 97.9433 192.207C98.0471 192.996 97.7219 193.598 97.0646 194.034C96.0822 194.539 95.1204 194.366 94.1726 193.937C93.9581 193.84 93.709 193.695 93.9304 193.377C94.1657 193.045 94.3455 192.602 94.899 192.879Z" fill="white"/>
<path d="M40.5111 190.291C40.5111 189.246 40.5388 188.194 40.5042 187.15C40.4765 186.285 41.0992 186.568 41.5351 186.513C42.0332 186.451 42.2961 186.589 42.2892 187.177C42.2616 189.301 42.2477 191.425 42.2892 193.549C42.3031 194.304 41.8672 194.228 41.3829 194.241C40.8709 194.255 40.4627 194.255 40.4903 193.529C40.5457 192.442 40.5111 191.363 40.5111 190.291Z" fill="white"/>
<path d="M116.638 4.26742C116.216 3.97683 115.76 4.02526 115.282 4.08061C114.369 4.19131 114.175 3.97683 114.32 3.10507C114.722 0.711186 114.722 0.704267 117.157 0.738861C117.469 0.74578 117.953 0.538217 117.98 1.13323C118.008 1.70748 117.648 1.90813 117.136 1.92197C116.777 1.92888 116.417 1.92888 116.057 1.92888C115.621 1.92888 115.607 2.2679 115.566 2.56541C115.517 2.95978 115.808 2.92518 116.057 2.92518C116.5 2.9321 116.943 2.96669 117.316 3.25036C118.209 4.01142 118.416 4.89702 117.939 5.89332C117.503 6.79968 116.382 7.3255 115.365 7.09026C115.012 7.00724 114.673 6.90346 114.362 6.71665C114.154 6.59211 113.843 6.48833 114.044 6.17699C114.196 5.93483 114.376 5.63733 114.77 5.78262C114.95 5.85181 115.13 5.92792 115.303 6.00402C115.808 6.2185 116.299 6.2531 116.652 5.78262C117.005 5.30523 117.06 4.76557 116.638 4.26742Z" fill="white"/>
<path d="M90.936 187.398C91.7732 186.892 92.0915 187.031 92.0845 187.944C92.0845 188.47 92.1606 188.816 92.8041 188.733C93.1985 188.678 93.4199 188.83 93.4129 189.286C93.4129 189.722 93.2331 189.916 92.8248 189.861C92.216 189.778 92.043 190.068 92.0915 190.629C92.1261 191.037 92.0984 191.459 92.0984 191.874C92.0984 192.441 91.9462 193.099 92.9148 193.016C93.1639 192.995 93.24 193.362 93.4129 193.535C93.5721 193.742 93.4614 193.894 93.3022 194.026C92.555 194.648 91.1989 194.379 90.68 193.5C90.3548 192.594 90.5762 191.653 90.5209 190.732C90.5001 190.324 90.5624 189.944 90.0297 189.736C89.6699 189.598 89.746 189.196 89.9397 188.885C90.8668 188.788 90.7354 187.979 90.936 187.398Z" fill="white"/>
<path d="M37.0922 190.265C37.0922 191.372 37.0645 192.479 37.0991 193.586C37.1199 194.298 36.6702 194.201 36.2204 194.229C35.7223 194.257 35.4524 194.16 35.4594 193.565C35.487 191.351 35.487 189.137 35.4594 186.93C35.4524 186.321 35.7569 186.272 36.2412 186.279C36.7255 186.286 37.1199 186.279 37.0991 186.951C37.0714 188.051 37.0922 189.158 37.0922 190.265Z" fill="white"/>
<path d="M95.5688 2.69733C95.1537 2.67658 95.0222 2.94641 94.7939 3.03635C94.4687 3.16781 94.275 2.98792 94.0882 2.76652C93.9014 2.5382 93.8945 2.32372 94.1435 2.12308C94.6348 1.72179 95.1122 1.29975 95.6103 0.905378C95.9424 0.642466 96.3575 0.649385 96.7173 0.78776C97.084 0.926135 96.9318 1.3205 96.9318 1.59725C96.9456 2.84263 96.9456 4.088 96.9318 5.32646C96.9249 5.76926 96.911 6.17746 97.5476 6.13595C97.9212 6.10827 97.9973 6.37119 97.9904 6.68945C97.9834 7.00771 97.8036 7.12533 97.513 7.12533C96.6274 7.12533 95.7418 7.11841 94.8562 7.12533C94.5172 7.12533 94.3442 7.00079 94.3442 6.64102C94.3442 6.302 94.4826 6.09444 94.8354 6.13595C95.5273 6.21897 95.5896 5.82461 95.5757 5.27802C95.548 4.43394 95.5688 3.57601 95.5688 2.69733Z" fill="white"/>
<path d="M107.873 191.529C107.873 192.22 107.845 192.912 107.88 193.597C107.914 194.227 107.534 194.241 107.084 194.227C106.669 194.213 106.24 194.303 106.254 193.639C106.274 192.207 106.281 190.767 106.247 189.335C106.226 188.609 106.703 188.747 107.132 188.713C107.631 188.678 107.914 188.796 107.886 189.384C107.845 190.096 107.873 190.809 107.873 191.529Z" fill="white"/>
<path d="M22.8329 191.371C22.8329 190.679 22.8605 189.988 22.8259 189.296C22.7983 188.701 23.165 188.701 23.5801 188.715C23.9814 188.728 24.438 188.604 24.4311 189.282C24.4103 190.749 24.4173 192.209 24.4311 193.675C24.438 194.291 24.016 194.208 23.6354 194.208C23.248 194.208 22.819 194.298 22.8329 193.682C22.8398 192.921 22.8329 192.146 22.8329 191.371Z" fill="white"/>
<path d="M119.702 191.475C119.702 192.195 119.681 192.914 119.709 193.634C119.736 194.298 119.287 194.222 118.871 194.222C118.47 194.229 118.09 194.256 118.097 193.655C118.117 192.188 118.124 190.728 118.097 189.261C118.09 188.632 118.505 188.722 118.878 188.728C119.245 188.735 119.702 188.611 119.695 189.24C119.695 189.988 119.702 190.735 119.702 191.475Z" fill="white"/>
<path d="M107.04 186.264C107.649 186.34 108.022 186.624 108.029 187.212C108.029 187.8 107.649 188.146 107.095 188.146C106.535 188.146 106.161 187.807 106.161 187.212C106.147 186.624 106.521 186.347 107.04 186.264Z" fill="white"/>
<path d="M24.6055 187.221C24.5432 187.789 24.218 188.141 23.6438 188.141C23.1041 188.148 22.7443 187.809 22.7236 187.27C22.7028 186.689 23.0349 186.308 23.623 186.287C24.2042 186.273 24.5224 186.633 24.6055 187.221Z" fill="white"/>
<path d="M118.956 186.272C119.502 186.369 119.883 186.659 119.855 187.247C119.834 187.822 119.461 188.168 118.893 188.154C118.333 188.133 117.973 187.773 117.987 187.199C118.008 186.611 118.381 186.327 118.956 186.272Z" fill="white"/>
<path d="M122.307 171.452C121.788 172.635 121.608 173.769 122.673 174.786C122.895 174.994 122.777 175.195 122.535 175.305C121.006 175.983 120.563 177.194 120.812 178.751C120.196 177.658 120.549 176.343 121.718 175.561C122.258 175.201 122.576 174.994 122.023 174.288C121.338 173.423 121.559 172.185 122.307 171.452Z" fill="white"/>
<path d="M124.606 14.4028C124.731 14.389 124.855 14.3752 124.98 14.3613C126.398 14.4997 127.194 15.496 127.941 16.5477C127.948 16.7068 127.955 16.859 127.962 17.0181C127.858 17.0873 127.734 17.0873 127.664 16.9974C126.876 15.9872 125.852 15.2746 124.731 14.6796C124.627 14.6381 124.593 14.5274 124.606 14.4028Z" fill="#29A84B"/>
<path d="M80.2714 162.168C78.1058 161.179 76.0924 161.635 74.1621 162.811C75.3591 161.31 79.0744 160.853 80.2714 162.168Z" fill="white"/>
<path d="M125.949 171.127C126.011 170.982 126.136 170.927 126.281 170.94C128.094 171.134 129.803 170.761 131.429 169.965C130.523 170.837 129.353 171.044 128.177 171.148C127.444 171.21 126.696 171.134 125.949 171.127Z" fill="white"/>
<path d="M3.61288 13.0551C3.59212 13.3526 3.38456 13.3664 3.14932 13.3941C2.67885 13.4425 3.11473 13.6085 3.11473 13.7192C2.85182 13.7192 2.58199 13.7054 2.31908 13.7192C1.80017 13.7538 1.76558 13.4356 1.78633 13.0551C2.39518 13.0551 3.00403 13.0551 3.61288 13.0551Z" fill="#F1F6F4"/>
<path d="M78.6265 189.861C78.6472 190.442 78.329 190.961 78.3636 191.549C78.4189 192.484 78.8756 193.203 79.4637 193.874C78.1352 193.196 77.734 191.252 78.6265 189.861Z" fill="white"/>
<path d="M4.4411 188.549C3.97061 190.037 4.14359 191.469 4.78012 192.866C3.79764 191.773 3.63851 189.746 4.4411 188.549Z" fill="white"/>
<path d="M97.5838 156.349C97.1133 157.456 97.2586 158.494 97.9228 159.476C96.9196 158.715 96.7535 157.221 97.5838 156.349Z" fill="white"/>
<path d="M49.4285 174.267C49.6983 173.146 50.1342 172.088 50.7638 171.119C50.4663 172.233 50.0166 173.278 49.4285 174.267Z" fill="white"/>
<path d="M48.4514 176.448C48.6659 175.673 48.9081 174.912 49.427 174.276C49.3232 175.064 48.8596 175.715 48.6105 176.448C48.5621 176.503 48.5068 176.51 48.4514 176.448Z" fill="white"/>
<path d="M5.76338 187.041C5.32058 187.539 4.8847 188.044 4.44189 188.543C4.62178 187.816 5.05767 187.311 5.76338 187.041Z" fill="white"/>
<path d="M44.2739 173.611C44.6545 174.157 45.1111 174.676 44.9312 175.43C44.7651 174.801 44.3431 174.268 44.2739 173.611Z" fill="white"/>
<path d="M48.4536 176.449C48.5089 176.449 48.5573 176.449 48.6127 176.449C48.5158 177.002 48.329 177.514 47.9277 177.923C47.9416 177.369 48.3083 176.947 48.4536 176.449Z" fill="white"/>
<path d="M1.79907 141.715C2.01355 141.784 2.22804 141.847 2.44252 141.916C2.60165 141.944 2.67084 142.04 2.67084 142.2C2.59473 142.22 2.52554 142.234 2.44944 142.255C2.14501 142.172 1.88902 142.047 1.79907 141.715Z" fill="#9BDCA3"/>
<path d="M47.5814 178.745C47.5676 178.413 47.6852 178.143 47.9274 177.921C47.9758 178.26 47.872 178.544 47.5814 178.745Z" fill="white"/>
<path d="M2.66936 142.197C2.59325 142.1 2.51714 142.01 2.44104 141.914C2.12277 141.367 1.49317 141.153 1.14723 140.613C0.48995 139.575 0.303144 138.434 0.296225 137.25C0.289307 125.855 0.289307 114.453 0.289307 103.058C0.289307 75.4521 0.289307 47.8394 0.296225 20.2336C0.296225 19.1612 0.413844 18.0957 0.621406 17.0371C1.64538 15.3213 3.07064 14.3734 5.14627 14.3734C44.6039 14.3873 84.0615 14.3873 123.526 14.3873C123.886 14.3873 124.246 14.3942 124.605 14.4011C125.948 14.9892 127.068 15.8471 127.954 17.0164H127.947C128.141 18.1165 128.445 19.2096 128.272 20.3512C128.217 20.7041 128.258 21.0708 128.258 21.4305C128.258 60.1063 128.258 98.7822 128.252 137.458C128.252 137.942 128.404 138.461 128.009 138.883C127.587 139.091 127.47 138.842 127.442 138.496C127.407 138.088 127.428 137.679 127.428 137.278C127.435 137.112 127.435 136.953 127.497 136.794C127.767 136.33 127.677 135.825 127.677 135.334C127.684 117.719 127.684 100.104 127.684 82.4885C127.684 62.2719 127.684 42.0553 127.677 21.8457C127.677 21.4997 127.788 21.1261 127.573 20.8148C127.421 21.2022 127.504 21.5966 127.504 21.9771C127.497 59.795 127.497 97.6129 127.497 135.424C127.497 135.95 127.525 136.475 127.428 136.994C127.407 138.101 127.435 139.215 127.428 140.322C127.421 140.405 127.394 140.481 127.352 140.558C127.034 140.841 126.854 141.236 126.598 141.568L126.612 141.575C126.245 141.741 125.927 141.983 125.588 142.204C125.532 142.273 125.484 142.35 125.429 142.419C124.834 142.571 124.232 142.592 123.623 142.592C84.4697 142.592 45.3165 142.592 6.16332 142.585C5.00097 142.585 3.80403 142.64 2.66936 142.197Z" fill="#1DA737"/>
<path d="M127.936 138.907C128.095 138.429 128.109 137.938 128.109 137.433C128.102 101.829 128.116 66.2253 128.088 30.6214C128.081 26.0896 128.344 21.5509 127.957 17.0192C128.503 17.7387 128.309 18.6105 128.434 19.4061C128.51 19.8904 128.448 20.4024 128.448 20.9006C128.448 59.7355 128.448 98.5773 128.448 137.412C128.448 138.139 128.379 138.844 128.254 139.557C128.088 139.751 128.15 140.055 127.929 140.228C127.728 140.477 127.652 140.83 127.285 140.934C127.175 140.816 127.161 140.699 127.265 140.567L127.272 140.56C127.555 140.034 127.451 139.35 127.936 138.907Z" fill="#29A84B"/>
<path d="M127.27 140.568C127.276 140.693 127.283 140.81 127.29 140.935C127.2 141.295 126.979 141.509 126.612 141.571C126.557 141.059 126.771 140.72 127.27 140.568Z" fill="#1FA735"/>
<path d="M125.61 142.206C125.783 141.722 126.108 141.494 126.634 141.577C126.44 142.027 126.087 142.22 125.61 142.206Z" fill="#3BA44E"/>
<path d="M127.935 140.228C127.921 139.944 127.962 139.688 128.26 139.557C128.253 139.834 128.371 140.166 127.935 140.228Z" fill="#7BB989"/>
<path fill-rule="evenodd" clip-rule="evenodd" d="M4.20826 163.801C4.2074 164.597 4.20653 165.392 4.20653 166.188C4.20653 166.893 4.20722 167.599 4.2079 168.305C4.21029 170.777 4.21269 173.252 4.18578 175.722C4.17886 176.351 4.32415 176.607 5.00911 176.594C6.55685 176.571 8.10174 176.575 9.64744 176.578C10.5063 176.58 11.3654 176.582 12.2254 176.58C14.5985 176.573 16.8263 176.033 18.812 174.677C22.3544 172.262 23.9042 167.578 22.6588 163.095C21.4965 158.909 17.7673 155.99 13.2009 155.824C11.613 155.763 10.0228 155.766 8.43291 155.769C7.31417 155.772 6.19564 155.774 5.0783 155.754C4.38642 155.74 4.18578 155.962 4.1927 156.647C4.21345 159.034 4.21086 161.416 4.20826 163.801ZM9.06854 164.652C9.06767 165.143 9.0668 165.634 9.0668 166.126V172.09V172.173C9.03913 172.574 9.1014 172.885 9.6203 172.871C10.044 172.859 10.4685 172.865 10.8933 172.871C11.6825 172.881 12.4725 172.892 13.2596 172.788C15.2522 172.526 16.6913 171.474 17.48 169.613C18.2895 167.717 18.331 165.738 17.8329 163.759C17.1548 161.054 15.2383 159.56 12.4432 159.491C12.074 159.482 11.7049 159.485 11.3362 159.489C10.8205 159.493 10.3057 159.498 9.79327 159.47C9.19134 159.435 9.04605 159.677 9.05297 160.238C9.07372 161.711 9.07113 163.181 9.06854 164.652Z" fill="white"/>
<path fill-rule="evenodd" clip-rule="evenodd" d="M122.73 171.124C122.579 171.232 122.428 171.34 122.303 171.453C121.486 172.525 121.666 173.771 122.241 174.428C122.683 174.94 122.58 175.14 122.061 175.473C120.725 176.331 120.442 177.161 120.815 178.759C121.196 179.665 121.853 180.343 122.739 180.731C125.728 182.032 128.751 182.094 131.733 180.724C133.165 180.067 134.21 178.987 134.625 177.396C135.172 175.3 134.251 173.625 132.197 172.996C131.186 172.684 130.135 172.622 129.083 172.574C128.842 172.561 128.6 172.555 128.359 172.549C127.686 172.532 127.014 172.515 126.357 172.352C125.555 172.159 125.465 171.819 125.956 171.128C126.266 170.967 126.598 170.997 126.92 171.026C127.001 171.033 127.081 171.04 127.16 171.045C128.703 171.128 130.128 170.796 131.436 169.965C132.888 168.969 133.56 167.571 133.331 165.835C133.241 165.157 133.38 164.915 134.051 164.783C135.158 164.569 135.393 164.098 135.185 162.721C135.09 162.092 134.712 162.153 134.337 162.213C134.168 162.24 133.999 162.267 133.857 162.23C133.68 162.182 133.486 162.194 133.292 162.206C133.206 162.211 133.119 162.216 133.034 162.216C131.795 162.216 130.585 162.175 129.36 161.787C127.596 161.227 125.79 161.414 124.095 162.182C121.182 163.503 120.372 166.907 122.365 169.225C122.498 169.378 122.691 169.504 122.879 169.626C123.201 169.835 123.506 170.033 123.458 170.339C123.415 170.632 123.072 170.878 122.73 171.124ZM127.375 168.386C126.095 168.372 125.307 167.625 125.307 166.421C125.307 165.148 126.061 164.47 127.451 164.491C128.78 164.511 129.486 165.21 129.458 166.469C129.437 167.715 128.683 168.4 127.375 168.386ZM127.473 178.654C127.405 178.651 127.337 178.648 127.269 178.645C126.618 178.616 125.97 178.587 125.356 178.343C124.72 178.087 124.367 177.644 124.54 176.918C124.706 176.226 125.28 175.825 125.972 175.866C126.335 175.884 126.698 175.891 127.062 175.899C127.69 175.912 128.318 175.925 128.94 175.991C128.985 175.995 129.03 176 129.075 176.004C129.757 176.073 130.519 176.15 130.642 177.084C130.739 177.824 130.158 178.329 129.037 178.516C128.702 178.57 128.364 178.591 128.027 178.613L128.027 178.613C127.842 178.625 127.657 178.637 127.473 178.654Z" fill="white"/>
<path fill-rule="evenodd" clip-rule="evenodd" d="M82.7902 165.608C82.382 164.169 81.6417 162.923 80.2718 162.169C78.0855 161 76.0721 161.45 74.1695 162.813C74.1155 162.859 74.0596 162.904 74.0035 162.95C73.9088 163.026 73.8136 163.104 73.7267 163.186C73.4569 163.435 73.2355 163.47 73.1594 163.041C72.9656 161.913 72.2046 161.678 71.2083 161.761C70.7655 161.796 70.3227 161.796 69.8799 161.761C69.3402 161.719 69.1603 161.934 69.1603 162.474C69.1742 168.527 69.1742 174.574 69.1603 180.628C69.1534 181.154 69.3679 181.293 69.8453 181.279C70.8416 181.251 71.831 181.244 72.8272 181.279C73.4015 181.299 73.616 181.12 73.6022 180.531C73.5752 179.455 73.5776 178.384 73.58 177.309C73.5807 177.002 73.5814 176.695 73.5814 176.387C73.5814 176.365 73.5812 176.342 73.5811 176.32C73.5788 175.971 73.5767 175.654 74.1557 175.986C76.9647 177.584 80.2234 176.761 81.9392 174C83.579 171.364 83.6136 168.507 82.7902 165.608ZM73.5733 167.101V169.343C73.5699 169.772 73.5699 170.201 73.5699 170.629C73.5699 171.058 73.5699 171.487 73.5664 171.916C73.5664 172.255 73.5872 172.553 73.8639 172.823C75.0124 173.95 77.2679 173.778 77.9806 172.359C79.0322 170.277 79.0045 168.076 78.112 165.939C77.6969 164.942 76.6383 164.652 75.393 164.991C74.2029 165.316 73.5733 166.049 73.5733 167.101Z" fill="white"/>
<path fill-rule="evenodd" clip-rule="evenodd" d="M37.6419 172.736C37.6438 172.288 37.6456 171.84 37.6456 171.391H37.6456C37.6387 171.391 37.6387 171.391 37.6249 171.398C37.6249 170.95 37.6286 170.501 37.6324 170.053C37.6411 169.008 37.6498 167.963 37.611 166.922C37.5142 164.424 36.1719 162.466 33.9441 161.83C30.9898 160.986 28.2638 161.657 25.8077 163.47C25.6347 163.601 25.4617 163.739 25.4963 164.009C25.6762 165.483 27.1776 166.334 28.5336 165.711C28.6548 165.654 28.7752 165.596 28.8956 165.537C29.4217 165.281 29.9476 165.025 30.5332 164.929C32.3874 164.625 33.4044 165.531 33.3353 167.406C33.3214 167.828 33.183 167.987 32.7541 168.001C32.0414 168.022 31.315 168.057 30.6093 168.16C28.8934 168.409 27.2398 168.845 25.9114 170.042C24.7145 171.115 24.4585 172.478 24.839 173.979C25.1988 175.397 26.1467 176.262 27.5512 176.594C29.606 177.086 31.5087 176.74 33.1623 175.377C33.6051 175.017 33.8957 174.906 34.0963 175.577C34.3177 176.331 34.8851 176.594 35.6254 176.581C35.6807 176.58 35.736 176.579 35.7913 176.578C36.1788 176.571 36.5663 176.564 36.9538 176.594C37.5003 176.629 37.6664 176.401 37.6526 175.868C37.6332 174.822 37.6375 173.78 37.6419 172.736ZM29.1837 173.431C30.4845 174.275 31.6606 173.84 32.8161 173.099C33.469 172.788 33.4389 172.26 33.4087 171.733C33.3986 171.556 33.3886 171.379 33.4042 171.211C33.4526 170.719 33.2035 170.512 32.7192 170.532C31.8198 170.574 30.9273 170.664 30.0832 171.024C28.9139 171.653 28.6371 172.407 29.1837 173.431Z" fill="white"/>
<path d="M32.816 173.099C33.4525 172.518 33.2796 171.75 33.2726 171.031C33.2726 170.622 32.9613 170.65 32.6845 170.657C31.7713 170.671 30.8857 170.844 30.0139 171.12C29.8963 171.21 29.7856 171.21 29.668 171.114C30.685 170.532 31.7989 170.429 32.9336 170.442C33.0651 170.442 33.2173 170.484 33.3141 170.56C33.8123 170.975 33.4387 172.822 32.816 173.099Z" fill="white"/>
<path d="M29.6734 171.113C29.7911 171.113 29.9018 171.12 30.0194 171.12C28.9608 171.874 28.857 172.158 29.1891 173.431C28.5111 172.67 28.6841 171.846 29.6734 171.113Z" fill="white"/>
<path d="M4.44151 13.0546C4.27546 13.0546 4.10941 13.0546 3.94336 13.0546C3.97103 12.8885 4.01255 12.7294 4.23395 12.7571C4.39999 12.7778 4.42075 12.9231 4.44151 13.0546Z" fill="#F1F6F4"/>
<path fill-rule="evenodd" clip-rule="evenodd" d="M135.507 191.08C135.507 190.825 135.506 190.569 135.506 190.312C135.506 189.98 135.504 189.648 135.502 189.316C135.498 188.541 135.494 187.766 135.513 186.991C135.527 186.445 135.319 186.3 134.794 186.258C134.026 186.203 133.811 186.514 133.887 187.213C133.914 187.464 133.909 187.714 133.904 187.965C133.901 188.102 133.899 188.238 133.901 188.375C133.915 188.756 133.853 188.908 133.382 188.776C132.047 188.403 131.051 188.97 130.594 190.271C130.324 191.053 130.331 191.848 130.539 192.637C130.94 194.173 132.123 194.692 133.514 193.924C133.537 193.911 133.56 193.898 133.583 193.885C133.806 193.758 133.958 193.671 134.178 193.979C134.441 194.353 134.89 194.263 135.25 194.166C135.553 194.085 135.53 193.823 135.509 193.576C135.504 193.507 135.498 193.44 135.499 193.377C135.51 192.61 135.508 191.846 135.507 191.08ZM133.912 191.598V191.349C133.905 191.19 133.898 191.024 133.912 190.851C133.946 190.332 133.836 189.917 133.213 189.855C132.604 189.793 132.286 190.132 132.154 190.664C132.078 190.976 132.044 191.315 132.065 191.64C132.067 191.684 132.07 191.73 132.073 191.775C132.107 192.363 132.143 192.991 132.985 193.017C133.67 193.037 133.912 192.636 133.912 191.598Z" fill="white"/>
<path fill-rule="evenodd" clip-rule="evenodd" d="M16.8091 191.516C16.8102 191.777 16.8113 192.037 16.8113 192.299C16.8129 192.516 16.8156 192.733 16.8183 192.951C16.8273 193.674 16.8363 194.396 16.8044 195.115C16.7767 195.716 16.8943 196 17.607 196C18.3127 196 18.4718 195.71 18.4165 195.115C18.4096 195.031 18.4113 194.948 18.413 194.865C18.4147 194.782 18.4165 194.699 18.4096 194.616C18.368 194.118 18.4995 194.014 19.0184 194.174C20.1254 194.513 21.1079 194.021 21.5922 192.949C22.0142 192.001 22.0211 191.019 21.696 190.043C21.2462 188.701 20.1046 188.258 18.8662 188.957C18.8577 188.962 18.8494 188.966 18.8411 188.971C18.5376 189.143 18.3463 189.251 18.0567 188.888C17.8215 188.59 17.3787 188.652 17.0466 188.763C16.7544 188.864 16.7803 189.116 16.805 189.356C16.8125 189.428 16.8199 189.5 16.8182 189.566C16.8034 190.218 16.8062 190.866 16.8091 191.516ZM18.409 191.286C18.4082 191.36 18.4074 191.434 18.4074 191.508C18.4074 191.569 18.4082 191.632 18.4089 191.695C18.4105 191.823 18.4121 191.954 18.4074 192.089C18.3867 192.566 18.4558 192.981 19.037 193.064C19.6251 193.154 19.978 192.878 20.1509 192.331C20.3239 191.791 20.2893 191.245 20.1994 190.698C20.1164 190.214 19.8604 189.854 19.3207 189.903C18.7672 189.951 18.3797 190.214 18.4074 190.85C18.412 190.993 18.4105 191.139 18.409 191.286Z" fill="white"/>
<path fill-rule="evenodd" clip-rule="evenodd" d="M84.276 4.1968C85.1339 3.5672 85.2584 2.73003 84.9332 1.77524C84.615 1.2079 84.1168 0.903479 83.4941 0.772023C82.8834 0.651793 82.2693 0.66862 81.6565 0.685411C81.3877 0.692777 81.1191 0.700136 80.8512 0.695916C80.5606 0.695916 80.3946 0.889641 80.3946 1.18023C80.3932 1.363 80.3917 1.54577 80.3903 1.72853C80.3772 3.37225 80.3641 5.0154 80.4015 6.65296C80.4124 7.19976 80.7864 7.18045 81.1442 7.16197C81.2391 7.15707 81.3329 7.15222 81.4185 7.15802C81.8337 7.1857 82.0135 6.99197 81.972 6.55609C81.9374 6.17556 81.9651 5.78811 81.9997 5.40066C82.0551 4.70879 82.3456 4.7503 82.7815 5.08932C82.8597 5.22026 82.9417 5.34863 83.0234 5.47658C83.2095 5.76779 83.3941 6.05685 83.5287 6.36929C83.8193 7.06116 84.3521 7.16494 85.0024 7.13035C85.4729 7.10959 85.6044 6.95738 85.3345 6.53534C85.1973 6.32448 85.0639 6.11082 84.9304 5.89711C84.7003 5.52879 84.4702 5.16029 84.2206 4.80565C84.0407 4.54966 84.0061 4.39053 84.276 4.1968ZM81.9328 2.44599C81.9373 2.55907 81.9418 2.67273 81.9199 2.77296C81.9436 2.87676 81.9385 2.99734 81.9334 3.11779C81.9192 3.45496 81.905 3.79111 82.5219 3.75543C83.1376 3.71391 83.6081 3.51327 83.6427 2.80064C83.6704 2.17103 83.2206 1.81818 82.4734 1.81818C81.9077 1.81818 81.9201 2.12976 81.9328 2.44599Z" fill="white"/>
<path fill-rule="evenodd" clip-rule="evenodd" d="M112.966 6.05911C113.326 5.41567 113.416 4.70995 113.443 3.95581L113.443 3.94449C113.395 3.15228 113.344 2.32646 112.862 1.60344C111.977 0.309634 110.019 0.309634 109.258 1.67955C108.455 3.12556 108.448 4.67536 109.237 6.12138C110.046 7.60891 112.136 7.5328 112.966 6.05911ZM111.787 5.52052C112.002 5.03621 112.022 4.51039 112.029 3.98456C112.029 3.43106 112.009 2.88448 111.808 2.35865C111.676 2.03347 111.469 1.77056 111.088 1.76364C110.708 1.75672 110.452 1.98504 110.348 2.32406C110.009 3.40339 110.002 4.48963 110.369 5.56204C110.473 5.86646 110.701 6.0671 111.047 6.07402C111.434 6.08094 111.649 5.83879 111.787 5.52052Z" fill="white"/>
<path fill-rule="evenodd" clip-rule="evenodd" d="M15.6859 192.5C15.6854 192.396 15.685 192.292 15.685 192.188V192.188C15.685 191.884 15.685 191.58 15.6919 191.289C15.6781 188.951 14.0314 187.954 11.9558 189.04C11.9125 189.063 11.8659 189.084 11.8185 189.105C11.5398 189.231 11.2338 189.37 11.423 189.802C11.6237 190.258 11.9834 190.369 12.447 190.168C12.4731 190.157 12.4991 190.146 12.5252 190.135C12.8247 190.006 13.1279 189.875 13.4779 189.926C13.9138 189.995 14.066 190.3 14.0798 190.694C14.0912 191.053 13.8584 191.06 13.629 191.067C13.58 191.068 13.5311 191.07 13.4848 191.075C12.9659 191.13 12.447 191.227 11.9696 191.462C11.174 191.856 10.8419 192.534 11.0633 193.289C11.2708 193.994 11.8866 194.368 12.7514 194.306C13.1181 194.278 13.4641 194.188 13.7685 193.98C14.0452 193.787 14.2597 193.69 14.5296 194.029C14.7579 194.313 15.1453 194.285 15.4567 194.167C15.7174 194.064 15.7009 193.833 15.6852 193.611C15.6808 193.55 15.6766 193.49 15.6781 193.434C15.6884 193.123 15.6871 192.811 15.6859 192.5ZM12.5508 192.714C12.5093 193.081 12.7999 193.212 13.1874 193.226C13.6163 193.157 14.073 193.053 14.1283 192.451C14.156 192.078 13.9207 191.981 13.6025 192.022C13.5738 192.026 13.5449 192.03 13.5159 192.034C13.0764 192.09 12.6157 192.15 12.5508 192.714Z" fill="white"/>
<path fill-rule="evenodd" clip-rule="evenodd" d="M127.769 191.764C127.871 191.765 127.972 191.767 128.074 191.767C128.461 191.76 128.848 191.76 129.243 191.767C129.61 191.767 129.789 191.601 129.831 191.227C129.955 190.065 129.153 188.951 128.004 188.715C126.745 188.459 125.534 189.048 125.043 190.155C124.49 191.393 124.856 193.019 125.86 193.766C126.842 194.5 128.537 194.465 129.43 193.718C129.741 193.462 129.734 193.254 129.492 192.964C129.16 192.569 128.828 192.694 128.454 192.86C127.901 193.109 127.333 193.206 126.828 192.749C126.593 192.542 126.378 192.272 126.496 191.953C126.575 191.737 126.783 191.75 126.981 191.762C127.043 191.766 127.104 191.77 127.16 191.767C127.363 191.757 127.566 191.76 127.769 191.764ZM127 190.823C127.146 190.807 127.294 190.79 127.395 190.866C127.507 190.808 127.651 190.817 127.791 190.825C128.049 190.842 128.292 190.857 128.288 190.444C128.288 189.98 127.866 189.78 127.409 189.793C126.945 189.807 126.53 190.043 126.523 190.478C126.523 190.876 126.758 190.85 127 190.823Z" fill="white"/>
<path fill-rule="evenodd" clip-rule="evenodd" d="M34.2969 192.617C34.2961 192.469 34.2953 192.322 34.2953 192.174C34.2953 191.842 34.2953 191.517 34.2815 191.178C34.2608 188.895 32.4826 187.898 30.4693 189.054C30.4357 189.074 30.4003 189.093 30.3645 189.113C30.1123 189.25 29.8387 189.4 30.0265 189.794C30.2202 190.209 30.5385 190.354 30.9813 190.181C31.0456 190.156 31.1094 190.128 31.1733 190.101C31.439 189.986 31.7054 189.871 32.0122 189.905C32.4411 189.946 32.6487 190.202 32.6902 190.61C32.7382 191.03 32.4743 191.045 32.2094 191.059C32.1687 191.061 32.1279 191.063 32.0883 191.067C31.4517 191.129 30.8291 191.247 30.2894 191.621C29.729 192.001 29.5145 192.541 29.6667 193.205C29.8258 193.89 30.3102 194.208 30.9744 194.284C31.4241 194.333 31.8669 194.277 32.2543 194.042C32.6072 193.828 32.8217 193.717 33.2299 194.063C33.7626 194.52 34.2815 194.201 34.2953 193.502C34.3 193.207 34.2984 192.912 34.2969 192.617ZM31.1709 192.755C31.1501 193.136 31.4753 193.219 31.8973 193.219C32.271 193.129 32.7207 193.018 32.7414 192.409C32.7553 192.077 32.5339 191.987 32.2571 192.029C32.2107 192.035 32.1635 192.04 32.1159 192.046C31.6744 192.096 31.2083 192.149 31.1709 192.755Z" fill="white"/>
<path fill-rule="evenodd" clip-rule="evenodd" d="M57.9649 191.764C58.0664 191.765 58.1682 191.766 58.2699 191.766C58.685 191.759 59.1001 191.759 59.5083 191.759C59.8889 191.752 60.0273 191.545 60.0618 191.185C60.1725 189.967 59.3285 188.874 58.1246 188.687C56.8585 188.493 55.7445 189.075 55.2672 190.175C54.7275 191.413 55.108 193.053 56.1043 193.786C57.0453 194.478 58.7265 194.464 59.6121 193.752C59.622 193.744 59.632 193.736 59.6421 193.728C59.8287 193.583 60.0312 193.425 59.8474 193.143C59.8439 193.138 59.8405 193.132 59.8371 193.127C59.6738 192.882 59.4938 192.612 59.1347 192.7C59.0072 192.73 58.8838 192.784 58.76 192.839C58.6554 192.885 58.5506 192.931 58.4429 192.963C57.917 193.115 57.3981 193.129 56.9899 192.679C56.8239 192.499 56.6578 192.271 56.7339 192.008C56.8126 191.744 57.0235 191.754 57.226 191.763C57.2729 191.765 57.3193 191.767 57.3635 191.766C57.5616 191.761 57.7628 191.763 57.9649 191.764ZM58.5738 190.495C58.5599 190.024 58.1863 189.803 57.7366 189.762C57.2315 189.782 56.7818 189.983 56.7541 190.481C56.7255 190.897 56.984 190.87 57.2424 190.844C57.3581 190.832 57.4738 190.82 57.5636 190.848C57.6397 190.869 57.7366 190.869 57.8127 190.848C57.8923 190.83 57.9877 190.836 58.0837 190.842C58.3295 190.858 58.5787 190.873 58.5738 190.495Z" fill="white"/>
<path fill-rule="evenodd" clip-rule="evenodd" d="M81.8141 188.826C80.6656 188.376 79.5378 188.743 78.6246 189.863C77.995 191.752 78.2164 192.818 79.4548 193.883C80.5618 194.54 81.6619 194.409 82.7412 193.8C82.9488 193.683 83.2186 193.523 83.0664 193.219C82.9211 192.921 82.7205 192.617 82.3123 192.707C82.1804 192.734 82.0528 192.79 81.9248 192.845C81.8244 192.889 81.7237 192.933 81.6204 192.963C81.0254 193.143 80.4511 193.129 80.0775 192.548C79.8077 192.126 79.7662 191.752 80.465 191.766C80.9444 191.771 81.4208 191.769 81.8982 191.768C82.1372 191.767 82.3766 191.766 82.6167 191.766C82.9972 191.766 83.2324 191.642 83.267 191.206C83.3501 190.209 82.7481 189.192 81.8141 188.826ZM80.4331 190.847C80.5676 190.837 80.7053 190.827 80.8103 190.878C80.9264 190.814 81.0791 190.831 81.2282 190.848C81.4788 190.876 81.7191 190.904 81.7582 190.539C81.8066 190.034 81.3707 189.771 80.8725 189.771C80.3813 189.771 79.9385 190.02 79.9454 190.519C79.9499 190.881 80.1862 190.864 80.4331 190.847Z" fill="white"/>
<path fill-rule="evenodd" clip-rule="evenodd" d="M101.292 3.08133C101.184 3.08111 101.063 3.08087 100.946 2.89734C101.12 2.6827 101.298 2.46592 101.478 2.24701C101.756 1.90847 102.039 1.56483 102.316 1.21609L102.317 1.21448C102.456 1.04158 102.654 0.793919 102.247 0.752535C102.197 0.747573 102.147 0.741884 102.096 0.736139C101.65 0.685812 101.165 0.631146 100.842 1.02237C100.754 1.13084 100.666 1.23902 100.577 1.34728C99.9122 2.1574 99.2441 2.97167 98.8291 3.94207C98.414 4.9107 98.6492 6.01078 99.3272 6.61963C100.033 7.26307 101.216 7.37377 102.116 6.88254C102.932 6.43974 103.389 5.47112 103.202 4.57168C103.022 3.68608 102.406 3.18793 101.368 3.08415C101.344 3.08144 101.318 3.08138 101.292 3.08133ZM101.86 5.02793C101.86 4.40524 101.473 4.10774 100.871 4.06622C100.22 4.11465 99.9435 4.51594 99.9435 5.09712C99.9366 5.69905 100.227 6.11418 100.878 6.10034C101.542 6.0865 101.86 5.65754 101.86 5.02793Z" fill="white"/>
<path fill-rule="evenodd" clip-rule="evenodd" d="M107.71 3.05695C107.711 2.9278 107.712 2.79865 107.712 2.6695C107.712 2.5612 107.714 2.45291 107.715 2.34499C107.72 2.09439 107.724 1.84582 107.705 1.60401C107.7 1.53027 107.707 1.44841 107.715 1.3655C107.739 1.10617 107.764 0.836675 107.407 0.773762C107.378 0.768535 107.348 0.762992 107.318 0.757381C106.95 0.688719 106.526 0.609831 106.245 0.974405C105.352 2.13675 104.467 3.2991 103.63 4.50297C103.242 5.05647 103.574 5.61688 104.245 5.6584C104.709 5.68607 105.179 5.69299 105.65 5.6584C106.245 5.61688 106.625 5.74834 106.522 6.46097C106.466 6.86918 106.57 7.13901 107.089 7.13901C107.566 7.13901 107.739 6.95912 107.712 6.50248C107.691 6.12195 107.677 5.78985 108.161 5.56153C108.514 5.39548 108.528 4.85582 108.127 4.69669C107.705 4.52805 107.708 4.25453 107.712 3.96288C107.712 3.91951 107.713 3.87574 107.712 3.83185C107.707 3.57355 107.709 3.31525 107.71 3.05695ZM106.547 3.17053C106.548 2.96455 106.549 2.74115 106.549 2.49005C106.114 2.81452 105.89 3.15482 105.686 3.46305C105.621 3.56232 105.558 3.65825 105.49 3.74927C105.447 3.8065 105.391 3.86373 105.335 3.92205C105.166 4.0964 104.987 4.28048 105.096 4.50341C105.208 4.74596 105.439 4.71493 105.671 4.6838C105.784 4.66875 105.896 4.65368 105.995 4.66946C106.355 4.73173 106.556 4.55876 106.549 4.16439C106.544 3.84967 106.546 3.53779 106.547 3.17053Z" fill="white"/>
<path d="M97.7354 109.363C97.7216 109.626 97.597 109.834 97.431 110.035C96.9951 110.941 96.4624 111.792 95.9919 112.678C95.8397 113.037 95.5768 113.328 95.4107 113.681C95.1962 113.958 94.9748 114.234 94.7603 114.511C92.7816 117.099 90.2977 119.091 87.4818 120.689C87.2881 120.8 87.1151 120.932 86.9422 121.07C85.4339 121.997 83.7595 122.558 82.099 123.132C81.5594 123.319 81.0266 123.54 80.4593 123.623C77.7472 124.294 75.0142 124.834 72.2329 125.131C68.9811 125.477 65.7293 125.609 62.4636 125.602C54.8046 125.588 47.1386 125.581 39.4796 125.609C37.9298 125.616 36.5183 125.346 35.3422 124.273C34.4981 123.457 34.1591 122.44 34.1591 121.291C34.1591 102.908 34.1591 84.5182 34.1591 66.1351C34.1591 65.803 34.1383 65.4709 34.2282 65.1458C34.3735 64.4677 34.5257 63.7897 34.927 63.2085C35.7434 62.3229 36.6014 61.4996 37.8883 61.375C47.616 61.375 57.3368 61.292 67.0577 61.4235C70.2611 61.465 73.4783 61.8663 76.6401 62.5097C77.8509 62.7588 79.0686 63.0079 80.2587 63.3607C80.7153 63.5475 81.1858 63.7067 81.6424 63.8866C82.1959 64.0318 82.7148 64.2948 83.2891 64.3916C83.6281 64.5092 83.9533 64.6891 84.3269 64.696C84.7558 64.7376 85.0741 65.0351 85.4546 65.1942H85.4615C86.1465 65.4433 86.7899 65.7823 87.4403 66.1144C87.6133 66.3289 87.9523 66.2943 88.1045 66.5364C88.4781 66.7094 88.7895 66.9792 89.1562 67.1591C90.6229 68.1001 91.9859 69.1656 93.1414 70.4801C93.6257 71.1997 94.193 71.8431 94.7603 72.5004C95.0786 73.1438 95.6459 73.6281 95.9158 74.2993C96.6076 75.1433 96.7737 76.2988 97.5832 77.0737C97.7492 77.3366 97.9084 77.5995 97.9084 77.9247C98.1713 78.8795 98.5657 79.7858 98.8908 80.7199C99.4789 82.3942 99.6519 84.1516 99.9494 85.8882C100.531 89.2714 100.593 92.6962 100.448 96.1141C100.351 98.3903 100.136 100.66 99.6311 102.901C99.3821 104.029 99.0292 105.136 98.8493 106.278C98.4204 107.274 98.1229 108.339 97.7354 109.363Z" fill="#FEFEFE"/>
<path d="M127.605 136.915C127.605 137.026 127.605 137.136 127.605 137.247C127.494 137.344 127.383 137.344 127.273 137.247C127.273 98.5298 127.273 59.8125 127.287 21.0952C127.287 20.7423 126.996 20.2303 127.605 20.0366C127.833 20.3272 127.771 20.6731 127.771 20.9983C127.771 59.3213 127.771 97.6442 127.771 135.96C127.771 136.278 127.84 136.624 127.605 136.915Z" fill="#25A432"/>
<path d="M94.4219 30.6639C94.5257 30.657 94.6295 30.6431 94.7402 30.6362C95.0584 30.3595 95.4528 30.3664 95.8402 30.3664C101.278 30.3595 106.717 30.3595 112.155 30.3664C112.563 30.3664 112.992 30.3456 113.317 30.6847L113.303 30.6985C113.525 30.8853 113.497 31.1413 113.497 31.3904C113.497 37.3889 113.518 43.3875 113.49 49.3929C113.49 49.4483 113.476 49.5036 113.462 49.559C112.923 50.1748 112.169 50.071 111.49 50.0779C106.661 50.1056 101.839 50.0917 97.0095 50.0917C96.3176 50.0917 95.6327 50.0987 94.9408 50.0848C94.4011 50.0779 94.1175 49.8427 94.2489 49.2615C94.5049 49.0678 94.754 49.2892 95.01 49.2753C99.7355 49.3376 104.454 49.2822 109.18 49.303C110.204 49.3099 111.221 49.2822 112.245 49.3168C112.57 49.3583 112.902 49.4137 112.923 48.9225C112.943 43.5604 112.93 38.2053 112.93 32.8502C112.923 32.698 112.923 32.5527 112.93 32.4005C112.95 32.1099 112.909 31.8332 112.784 31.5633C112.639 31.2312 112.321 31.2866 112.065 31.2866C106.419 31.2866 100.766 31.2312 95.1207 31.3143C94.8024 31.252 94.7194 31.8539 94.332 31.591C94.2213 31.2658 94.1728 30.9476 94.4219 30.6639Z" fill="#D2B300"/>
<path d="M1.37926 20.1525C1.37926 59.0289 1.37926 97.9053 1.37926 136.782C1.33083 136.782 1.27548 136.782 1.22705 136.782C1.22705 97.9053 1.22705 59.0289 1.22705 20.1525C1.27548 20.1594 1.33083 20.1594 1.37926 20.1525Z" fill="#19AA36"/>
<path d="M127.604 136.913C127.604 97.9534 127.604 58.987 127.604 20.0276C127.832 20.0622 127.936 20.2006 127.936 20.4289C127.936 20.6503 127.936 20.8717 127.936 21.0931C127.936 59.3468 127.936 97.6006 127.922 135.854C127.922 136.2 128.213 136.712 127.604 136.913Z" fill="#1FA735"/>
<path d="M68.0742 60.4261C67.1332 60.3362 66.3237 60.8689 65.4035 60.8689C56.8935 60.862 48.3834 60.8689 39.8734 60.8689C39.6796 60.8689 39.4859 60.8689 39.2922 60.8551C39.1054 60.8412 38.9878 60.7305 38.9947 60.5368C38.9947 60.3362 39.1123 60.2324 39.2991 60.2186C39.4928 60.2047 39.6865 60.2047 39.8803 60.2047C48.9992 60.2047 58.1181 60.2047 67.237 60.2116C67.5207 60.2116 67.8251 60.1286 68.0742 60.4261Z" fill="#1EA63D"/>
<path d="M94.4208 30.6621C94.4139 30.9873 94.407 31.3194 94.4001 31.6446C94.7114 31.9213 94.6422 32.3088 94.6422 32.6547C94.6422 37.8507 94.6491 43.0467 94.6422 48.2357C94.6422 48.5886 94.6907 48.9622 94.3932 49.2459C94.2063 50 94.7529 49.8616 95.1542 49.8616C98.8765 49.8686 102.592 49.8755 106.314 49.8616C108.459 49.8547 110.604 49.9377 112.756 49.8063C112.991 49.7924 113.184 49.7717 113.337 49.5849C113.447 49.4811 113.385 49.3151 113.482 49.2044C113.551 49.1767 113.613 49.1905 113.662 49.2459C113.717 49.744 113.399 49.9792 112.991 50.0346C112.479 50.1107 111.974 50.2491 111.441 50.2491C106.051 50.2352 100.655 50.2422 95.2649 50.2352C94.1372 50.2352 93.9019 49.9516 94.0611 48.8653C94.0956 48.6509 94.068 48.4225 94.068 48.2011C94.068 42.6385 94.0611 37.0827 94.0818 31.52C94.0818 31.2294 93.8604 30.7659 94.4208 30.6621Z" fill="#34A834"/>
<path d="M113.311 30.6823C107.451 30.6753 101.591 30.6753 95.7307 30.6684C95.3986 30.6684 95.0665 30.6477 94.7414 30.6338C94.6514 29.935 95.1219 29.9904 95.5785 29.9904C100.816 29.9973 106.06 29.9904 111.298 29.9904C111.768 29.9904 112.239 30.0181 112.702 29.9835C113.242 29.9489 113.394 30.1979 113.311 30.6823Z" fill="#25A632"/>
<path d="M34.3441 64.8633C34.3372 83.2326 34.3372 101.595 34.3164 119.964C34.3164 121.5 34.3441 122.995 35.3404 124.282C34.4202 123.942 34.3787 123.064 34.1504 122.31C34.0051 122.019 34.0812 121.708 34.0812 121.41C34.0743 102.965 34.0743 84.5195 34.0812 66.0741C34.0812 65.7766 34.0189 65.4653 34.1504 65.1747C34.1227 65.064 33.9774 64.9533 34.1435 64.8426C34.2057 64.7941 34.2818 64.8011 34.3441 64.8633Z" fill="#58AD66"/>
<path d="M34.1452 65.1733C34.1452 77.5856 34.1521 89.9978 34.1521 102.403C34.1521 109.038 34.1521 115.673 34.1521 122.301C33.91 122.045 33.9999 121.727 33.9999 121.43C33.993 102.964 33.993 84.5043 33.993 66.0382C33.993 65.7545 33.91 65.4363 34.1452 65.1733Z" fill="#43AE62"/>
<path d="M80.4599 63.5329C76.8068 62.495 73.0707 61.8931 69.2862 61.734C58.8804 61.2981 48.4607 61.6025 38.0549 61.5541C37.9166 61.5541 37.7782 61.5402 37.6467 61.5333C37.7643 61.0628 38.1449 61.2981 38.387 61.2912C41.4244 61.2704 44.4617 61.2773 47.499 61.2773C54.0995 61.2773 60.6931 61.2773 67.2936 61.2842C67.5911 61.2842 67.9024 61.2012 68.1861 61.3673C70.6491 61.5887 73.1261 61.7271 75.5684 62.1768C77.2704 62.495 78.9655 62.8479 80.6467 63.2838C80.7713 63.3184 80.8751 63.4291 80.9858 63.5052C80.8059 63.6643 80.6329 63.6297 80.4599 63.5329Z" fill="#6AC27D"/>
<path d="M98.7042 106.332C98.8149 105.156 99.23 104.035 99.4652 102.886C99.8042 101.267 100.005 99.6484 100.192 98.0225C100.448 95.857 100.455 93.6637 100.344 91.4912C100.15 87.5268 99.6659 83.5969 98.3444 79.8193C98.1091 79.1551 97.7217 78.5393 97.7286 77.799C98.033 77.7368 97.9154 78.055 98.0469 78.1519C98.3236 78.74 98.5658 79.3419 98.7111 79.9784C99.0017 80.2552 98.891 80.6565 99.0363 80.9817C99.3268 81.3207 99.2092 81.7704 99.3753 82.144V82.1371C99.6451 82.6076 99.5552 83.1472 99.7074 83.6454C100.434 87.5406 100.711 91.4705 100.579 95.4349C100.462 99.0603 100.005 102.637 99.0086 106.131C98.9532 106.339 98.8287 106.526 98.7318 106.719C98.6073 106.595 98.635 106.463 98.7042 106.332Z" fill="#D4F3D9"/>
<path d="M93.1541 49.1205C93.1541 43.0044 93.1541 36.8951 93.1541 30.7789C93.2094 30.7789 93.2578 30.7789 93.3132 30.7789C93.3132 36.8951 93.3132 43.0044 93.3132 49.1205C93.2648 49.1205 93.2094 49.1205 93.1541 49.1205Z" fill="#15AC31"/>
<path d="M92.6728 30.7789C92.6728 36.8951 92.6728 43.0044 92.6728 49.1205C92.6175 49.1205 92.569 49.1205 92.5137 49.1205C92.5137 43.0113 92.5137 36.8951 92.5137 30.7858C92.569 30.7858 92.6244 30.7789 92.6728 30.7789Z" fill="#26A23C"/>
<path d="M68.1789 61.3747C58.4511 61.3677 48.7233 61.3539 38.9956 61.3539C38.5459 61.3539 38.0546 61.2017 37.6395 61.5338C36.5671 61.769 35.7991 62.4886 35.0381 63.2151C34.955 63.2773 34.8789 63.2704 34.8167 63.1874C35.7714 61.7137 37.1275 61.1671 38.871 61.174C48.322 61.2155 57.78 61.1948 67.2379 61.2086C67.5562 61.2155 67.909 61.091 68.1789 61.3747Z" fill="#3CA94F"/>
<path d="M113.502 49.2467C113.447 49.3574 113.391 49.4751 113.336 49.5858C113.336 43.6495 113.329 37.7063 113.329 31.77C113.329 31.4102 113.308 31.0504 113.301 30.6907C113.364 30.6768 113.426 30.6699 113.488 30.6561C113.633 30.8567 113.571 31.085 113.571 31.2995C113.571 37.0628 113.571 42.8331 113.571 48.5964C113.578 48.8178 113.626 49.0461 113.502 49.2467Z" fill="#47BA3F"/>
<path d="M113.505 49.2468C113.498 43.0476 113.498 36.8553 113.491 30.6561C113.768 30.8982 113.664 31.2234 113.664 31.514C113.671 37.4295 113.671 43.3381 113.664 49.2537C113.608 49.2468 113.553 49.2468 113.505 49.2468Z" fill="#2FA327"/>
<path d="M86.936 120.967C87.2612 120.49 87.8078 120.31 88.2714 120.04C90.4092 118.795 92.2358 117.196 93.8548 115.335C94.1246 115.031 94.3599 114.671 94.7611 114.512C94.602 115.128 93.9862 115.432 93.7441 115.993C93.3566 116.498 92.9415 116.968 92.3949 117.314C90.859 118.774 89.1224 119.95 87.2751 120.981C87.1574 121.071 87.0467 121.071 86.936 120.967Z" fill="#D2F0DA"/>
<path d="M86.9341 120.965C87.0448 120.972 87.1624 120.972 87.2731 120.979C85.6957 122.127 83.8414 122.66 82.0426 123.296C81.5375 123.476 81.0463 123.788 80.4651 123.635C81.9319 123.082 83.4056 122.556 84.8585 121.975C85.5642 121.677 86.2422 121.297 86.9341 120.965Z" fill="#6ABD7C"/>
<path d="M93.0652 70.5351C91.889 69.2413 90.4637 68.2519 89.0869 67.1933C89.0316 67.1518 89.0108 67.1103 89.0316 67.0688C89.0523 67.0273 89.0731 67.0134 89.0938 67.0134C90.187 67.5531 91.1487 68.2796 91.9789 69.1582C92.401 69.601 93.1344 69.7671 93.2451 70.5005C93.1966 70.5766 93.1344 70.5904 93.0652 70.5351Z" fill="#45B15C"/>
<path d="M127.272 137.244C127.383 137.244 127.494 137.244 127.604 137.244C127.777 137.784 127.238 138.469 127.936 138.905C127.84 139.507 127.75 140.109 127.272 140.559C127.079 139.452 127.376 138.351 127.272 137.244Z" fill="#1FA735"/>
<path d="M98.0539 78.1443C97.9501 78.0267 97.8394 77.909 97.7357 77.7914C97.7011 77.5354 97.5765 77.3279 97.4105 77.1341C96.8916 76.2762 96.5041 75.3353 95.9368 74.4981C95.9229 74.3666 95.9575 74.249 96.0475 74.1522C97.0438 75.3214 97.7633 76.6291 98.0539 78.1443Z" fill="#4BB060"/>
<path d="M98.7054 106.334C98.7124 106.458 98.7262 106.59 98.7331 106.714C98.5671 107.662 98.228 108.541 97.7368 109.364C97.8683 108.292 98.2765 107.309 98.7054 106.334Z" fill="#D3F8DC"/>
<path d="M95.9026 112.671C96.3315 111.744 96.7882 110.831 97.4316 110.035C97.2033 111.031 96.636 111.855 96.0825 112.685C96.0202 112.768 95.9579 112.761 95.9026 112.671Z" fill="#C8EDD2"/>
<path d="M85.4463 65.1876C85.0104 65.2499 84.706 64.8832 84.3047 64.8417C84.0279 64.7241 83.7304 64.6895 83.4537 64.5719C83.3707 64.4266 83.0524 64.4819 83.1216 64.1913C83.9795 64.3159 84.8236 64.4819 85.4463 65.1876Z" fill="#59B168"/>
<path d="M93.0645 70.5349C93.1267 70.528 93.1821 70.5141 93.2443 70.5072C93.7079 71.1991 94.4413 71.6834 94.7457 72.486C93.9431 72.0432 93.5557 71.2406 93.0645 70.5349Z" fill="#BCEAC4"/>
<path d="M87.4053 66.1976C86.7342 65.9001 86.0284 65.6579 85.4473 65.1874C86.3121 65.2013 86.9763 65.6787 87.6336 66.1561C87.5783 66.2598 87.5022 66.2737 87.4053 66.1976Z" fill="#4BAF61"/>
<path d="M96.054 74.1598C96.0609 74.2705 96.0678 74.3812 96.0748 74.485C95.881 74.5887 95.8257 74.4227 95.7496 74.312C95.6319 73.5855 94.7463 73.2811 94.7463 72.4924C95.369 72.9006 95.5628 73.6478 96.054 74.1598Z" fill="#BBF1BE"/>
<path d="M34.8178 63.1933C34.8939 63.2002 34.9631 63.2071 35.0392 63.221C34.8108 63.7675 34.5756 64.3141 34.3473 64.8607C34.2781 64.8538 34.2089 64.8469 34.1328 64.8399C34.3404 64.2795 34.2919 63.6153 34.8178 63.1933Z" fill="#43AE62"/>
<path d="M83.1162 64.1964C83.2407 64.2933 83.3721 64.397 83.4967 64.4939C83.4413 64.5977 83.3583 64.6115 83.2684 64.5423C82.7218 64.3763 82.1752 64.2033 81.6286 64.0373C81.5871 63.8712 81.6217 63.7813 81.8154 63.8435C82.2928 63.7951 82.6664 64.1341 83.1162 64.1964Z" fill="#C1EDC7"/>
<path d="M92.3948 117.306C92.8237 116.842 93.2181 116.344 93.7439 115.984C93.4879 116.628 93.0728 117.098 92.3948 117.306Z" fill="#46AA5C"/>
<path d="M98.7172 79.9731C98.4128 79.3919 98.1775 78.79 98.053 78.1465C98.5096 78.6655 98.731 79.2743 98.7172 79.9731Z" fill="#4BB060"/>
<path d="M81.8151 63.8436C81.7528 63.9059 81.6905 63.9751 81.6283 64.0374C81.2754 63.7883 80.7565 63.9059 80.459 63.5323C80.632 63.5254 80.8049 63.5185 80.971 63.5115C81.2754 63.5669 81.5729 63.6361 81.8151 63.8436Z" fill="#B3E7BE"/>
<path d="M99.7077 83.633C99.4724 83.1556 99.3686 82.6575 99.3756 82.1248C99.8737 82.5468 99.7077 83.1072 99.7077 83.633Z" fill="#4DAA5C"/>
<path d="M99.3759 82.139C99.0991 81.7999 99.0438 81.3917 99.0369 80.9766C99.5696 81.2395 99.3551 81.7238 99.3759 82.139Z" fill="#4DAA5C"/>
<path d="M89.0941 67.0209C89.0941 67.0831 89.0872 67.1385 89.0872 67.2007C88.679 67.0831 88.3261 66.8963 88.084 66.5365C88.5268 66.4812 88.762 66.8548 89.0941 67.0209Z" fill="#5CB76E"/>
<path d="M99.0429 80.9757C98.8492 80.6713 98.6693 80.3599 98.7177 79.9725C99.3127 80.1454 98.9806 80.6228 99.0429 80.9757Z" fill="#4DAA5C"/>
<path d="M95.9021 112.67C95.9644 112.677 96.0267 112.677 96.0889 112.684C95.9713 113.085 95.8053 113.459 95.4178 113.68C95.3901 113.251 95.743 113.009 95.9021 112.67Z" fill="#A3DEAA"/>
<path d="M87.4043 66.1967C87.4804 66.1828 87.5565 66.169 87.6326 66.1483C87.8471 66.1967 88.1031 66.1967 88.0823 66.5288C87.7917 66.5565 87.5911 66.3973 87.4043 66.1967Z" fill="#5CB76E"/>
<path d="M82.7719 102.368C82.2807 103.344 82.163 104.479 81.485 105.378C81.1667 105.793 80.8831 106.222 80.717 106.727C80.6409 107.122 80.378 107.398 80.1358 107.696L80.1428 107.71C79.693 108.215 79.2987 108.782 78.676 109.1C76.7941 110.616 74.587 111.37 72.2761 111.958C70.5811 112.387 68.886 112.587 67.1355 112.622C66.4436 112.636 65.7518 112.878 65.0253 112.857C62.2509 112.767 59.4903 112.498 56.709 112.608C55.1661 112.67 53.6232 112.546 52.0803 112.712C51.6099 112.76 51.3815 112.664 51.43 112.172C51.7275 111.653 51.769 111.128 51.4646 110.595C51.4507 110.443 51.4784 110.304 51.5476 110.173C51.7067 109.834 51.6652 109.467 51.6652 109.107C51.6652 98.0858 51.6652 87.0573 51.6652 76.0357C51.6652 75.6552 51.7275 75.2539 51.5061 74.908C51.4646 74.3337 51.7828 74.2991 52.2187 74.4306C52.3502 74.5205 52.4193 74.652 52.4609 74.7973C52.6407 75.413 53.1735 75.2193 53.5679 75.2262C56.0586 75.247 58.5424 75.2608 61.0332 75.2262C62.0848 75.2124 63.1226 75.3923 64.0982 75.3369C63.7453 75.1086 62.9843 75.7936 62.8182 74.8388C63.1503 74.5067 63.5724 74.6312 63.9667 74.5966C64.4649 74.5551 64.9976 74.7073 65.4543 74.3891C65.904 74.2023 66.4021 74.1815 66.8449 74.2922C68.3671 74.6658 69.9653 74.4306 71.4736 74.908C72.802 75.33 74.2342 75.42 75.4519 76.1879C75.611 76.2917 75.8324 76.264 76.0123 76.3125C76.6972 76.3125 77.14 76.8729 77.735 77.0735C78.3439 77.5025 78.9251 77.9661 79.4509 78.4988C80.3434 79.3775 81.0145 80.4084 81.5819 81.5154C82.8549 83.9784 83.3323 86.656 83.6091 89.3751C83.9135 92.3778 83.8305 95.3805 83.5814 98.3764C83.4776 99.7117 83.2147 101.068 82.7719 102.368Z" fill="#1DA737"/>
<path d="M51.2256 113.03C50.7274 112.857 50.9211 112.428 50.9142 112.11C50.9004 108.602 50.9073 105.087 50.9073 101.579C50.9073 92.7373 50.9073 83.8882 50.9073 75.046C50.9073 73.8698 50.9627 73.8214 52.1112 73.8283C54.5397 73.8352 56.9751 73.8352 59.4035 73.8283C63.3195 73.8214 67.2286 73.9183 71.1101 74.5064C72.5699 74.7278 74.0367 75.0253 75.3443 75.7863C75.2751 75.8694 75.1852 75.9247 75.0814 75.9455C73.3379 75.475 71.622 74.8454 69.8093 74.6862C67.8375 74.5064 65.8726 74.3196 63.88 74.368C60.2891 74.4648 56.6914 74.4026 53.0936 74.3957C51.3224 74.3957 51.3224 74.3818 51.3224 76.1807C51.3224 87.6312 51.3224 99.0817 51.3224 110.532C51.3224 111.335 51.3847 112.13 51.4608 112.926C51.4262 113.044 51.3501 113.078 51.2256 113.03Z" fill="#CCF4D5"/>
<path d="M82.7701 102.37C82.9846 100.592 83.4343 98.855 83.5381 97.0631C83.801 92.3237 83.7457 87.6328 82.1474 83.0803C81.9399 82.4853 81.5317 81.9663 81.4556 81.3229C81.3795 81.233 81.3933 81.1638 81.4902 81.1015C82.3896 82.4991 82.8047 84.0558 83.1645 85.661C83.8495 88.6914 84.0086 91.7564 83.9463 94.8352C83.8979 97.2706 83.6488 99.6991 83.1161 102.086C83.0676 102.28 82.9569 102.363 82.7701 102.37Z" fill="#E0F4E0"/>
<path d="M51.2273 113.029C51.3103 113.008 51.3864 112.995 51.4695 112.974C52.0091 112.739 52.5903 112.732 53.1645 112.732C56.0843 112.725 59.0109 112.704 61.9306 112.746C62.92 112.759 63.9163 112.822 64.8918 112.746C67.2857 112.545 69.7004 112.545 72.0527 111.908C73.0836 111.625 74.1284 111.424 75.0901 110.94C75.3737 110.801 75.7127 110.732 76.0518 110.781C76.1625 110.836 76.1901 110.919 76.1417 111.03C74.6334 111.708 73.0767 112.22 71.437 112.455C70.1847 112.642 68.9393 112.932 67.687 112.995C62.3872 113.258 57.0806 113.181 51.7739 113.175C51.5871 113.168 51.3933 113.168 51.2273 113.029Z" fill="#D7F5DD"/>
<path d="M95.7424 74.3143C95.8531 74.3696 95.9638 74.4319 96.0676 74.4872C96.5796 75.3382 97.1746 76.1477 97.4029 77.1371C96.974 76.8742 96.6903 76.5559 96.628 76.0094C96.5588 75.3521 95.7978 75.0061 95.7424 74.3143Z" fill="#E5FBE8"/>
<path d="M81.484 81.1012C81.4702 81.1773 81.4632 81.2465 81.4494 81.3226C80.7852 80.3747 80.121 79.4338 79.4568 78.4859C80.5292 79.0463 80.9443 80.1256 81.484 81.1012Z" fill="#D9F3DE"/>
<path d="M75.1311 75.8283C75.2072 75.8144 75.2764 75.8006 75.3525 75.7867C76.2173 76.0842 77.0338 76.4855 77.8087 76.9768C77.8848 77.0529 77.8778 77.1151 77.7879 77.1774C77.1929 77.0806 76.8054 76.5132 76.1897 76.4579C75.823 76.2711 75.2556 76.4233 75.1311 75.8283Z" fill="#C0EBC9"/>
<path d="M78.8384 108.871C79.2743 108.483 79.7033 108.096 80.1392 107.702C79.7656 108.649 78.9699 109.189 78.1673 109.715C78.1466 109.68 78.1189 109.646 78.0981 109.618C78.2019 109.224 78.5133 109.044 78.8384 108.871Z" fill="#B0E6B8"/>
<path d="M77.7971 77.1768C77.804 77.1077 77.811 77.0454 77.8179 76.9762C78.406 77.4328 79.167 77.7027 79.4645 78.4845C78.8211 78.1524 78.3299 77.6335 77.7971 77.1768Z" fill="#D9F3DE"/>
<path d="M80.6392 106.715C80.6807 106.12 80.9297 105.65 81.4832 105.373C81.4971 105.94 81.0266 106.265 80.826 106.729C80.7637 106.791 80.7014 106.791 80.6392 106.715Z" fill="#3BAA50"/>
<path d="M80.6375 106.712C80.6997 106.719 80.762 106.719 80.8243 106.726C80.7413 107.155 80.589 107.536 80.1255 107.688C80.1462 107.28 80.5268 107.072 80.6375 106.712Z" fill="#8CDA9D"/>
<path d="M76.1471 111.017C76.1402 110.948 76.1402 110.878 76.1333 110.809C76.2509 110.38 76.6799 110.422 76.9774 110.256C77.0604 110.27 77.1227 110.318 77.1642 110.394C76.9359 110.781 76.5277 110.871 76.1471 111.017Z" fill="#DBF8E5"/>
<path d="M77.1662 110.393C77.1039 110.379 77.0486 110.365 76.9863 110.352C77.2008 109.867 77.5883 109.66 78.0933 109.625C78.121 109.653 78.1487 109.687 78.1694 109.715C77.8858 110.02 77.5398 110.227 77.1662 110.393Z" fill="#B0E6B8"/>
<path d="M83.2678 64.5439C83.3439 64.5301 83.42 64.5093 83.4961 64.4955C83.8006 64.537 84.0912 64.5923 84.2987 64.8414C83.9113 64.9037 83.5653 64.8137 83.2678 64.5439Z" fill="#CFF4D6"/>
<path d="M112.494 49.5559C106.579 49.5559 100.663 49.549 94.7477 49.549C94.5678 49.2515 94.5747 48.9124 94.5747 48.5873C94.5747 43.7511 94.5747 38.9218 94.5747 34.0856C94.5747 33.8157 94.5263 33.5321 94.6923 33.2761C94.9414 33.0547 95.2596 33.0754 95.5572 33.0754C100.975 33.0685 106.392 33.0685 111.802 33.0754C112.107 33.0754 112.418 33.0547 112.681 33.2484C112.944 33.5528 112.896 33.9195 112.896 34.2724C112.902 38.9702 112.902 43.668 112.896 48.3589C112.909 48.8017 112.93 49.2584 112.494 49.5559Z" fill="#F7C201"/>
<path d="M94.739 33.3123C94.739 38.7227 94.7459 44.1401 94.7459 49.5506C94.6283 49.4468 94.5107 49.3499 94.3931 49.2461C94.3931 43.3791 94.4 37.512 94.4 31.6449C94.6698 31.5134 94.4692 31.1329 94.739 30.9945C95.161 31.4996 95.7561 31.3543 96.2819 31.3543C100.911 31.3681 105.532 31.3543 110.161 31.3681C110.957 31.3681 111.759 31.2436 112.541 31.5065C112.707 31.5964 112.762 31.7348 112.728 31.9147C112.679 32.0116 112.603 32.0877 112.506 32.1361C112.057 32.316 111.579 32.2676 111.116 32.2676C106.252 32.2745 101.381 32.2676 96.5171 32.2676C96.2196 32.2676 95.929 32.2537 95.6384 32.3229C100.641 32.3644 105.636 32.3575 110.638 32.3575C110.998 32.3575 111.358 32.3298 111.711 32.4129C112.008 32.482 112.34 32.5512 112.195 33.0009C111.87 33.2223 111.503 33.1324 111.15 33.1324C106.03 33.1393 100.904 33.1324 95.7837 33.1393C95.424 33.1462 95.0573 33.0632 94.739 33.3123Z" fill="#F0C603"/>
<path d="M112.665 31.6515C106.964 31.6515 101.263 31.6515 95.5619 31.6515C95.0915 31.6515 94.6417 31.6792 94.7386 30.9942C100.633 30.9942 106.535 30.9942 112.43 30.9804C112.935 30.9804 113.253 31.0496 112.997 31.6515C112.893 31.7415 112.783 31.7484 112.665 31.6515Z" fill="#F3C106"/>
<path d="M112.492 49.5562C112.624 49.1618 112.665 48.7605 112.665 48.3385C112.658 43.3293 112.658 38.3201 112.658 33.304C112.818 33.2141 112.963 33.1933 113.06 33.394C113.087 38.3824 113.06 43.3639 113.074 48.3523C113.074 48.6498 112.997 48.9612 113.15 49.2448C113.101 49.6946 112.762 49.5562 112.492 49.5562Z" fill="#F0C603"/>
<path d="M113.163 49.2463C112.887 48.9696 113.004 48.6167 113.004 48.2985C112.997 43.3031 112.997 38.3078 112.997 33.3055C112.907 33.2087 112.852 33.0911 112.852 32.9596C112.887 32.7866 112.914 32.6067 113.163 32.6483C113.163 38.1832 113.163 43.7113 113.163 49.2463Z" fill="#E8C910"/>
<path d="M113.164 32.6496C113.04 32.7257 113.005 32.8502 112.998 32.9817C112.798 33.1408 112.59 33.1754 112.362 33.0509C112.106 32.5942 112.431 32.3036 112.666 31.9854C113.067 31.7432 113.026 32.1652 113.157 32.3175C113.164 32.4282 113.164 32.5389 113.164 32.6496Z" fill="#F0C603"/>
<path d="M113.165 32.3164C112.999 32.2126 112.923 31.9635 112.674 31.9843C112.674 31.8736 112.674 31.7629 112.674 31.6522C112.785 31.6522 112.895 31.6522 113.006 31.6522C113.234 31.8251 113.144 32.0811 113.165 32.3164Z" fill="#E8C910"/>
<path d="M78.0941 109.626C77.6859 109.806 77.3054 110.035 76.9871 110.353C76.6827 110.464 76.3783 110.574 76.143 110.816C73.9636 111.619 71.7427 112.256 69.4318 112.532C66.9895 112.823 64.5334 112.92 62.0772 112.947C58.5417 112.982 55.0063 112.975 51.4708 112.982C51.1179 112.768 51.1802 112.415 51.1733 112.089C51.1594 109.931 51.1456 107.772 51.1456 105.614C51.1387 95.5122 51.1456 85.4177 51.1387 75.3164C51.1387 74.1471 51.1387 74.1471 52.3287 74.1471C56.3692 74.154 60.4098 74.1263 64.4434 74.1817C67.9651 74.2301 71.4521 74.5484 74.8008 75.773C74.9046 75.8076 75.0153 75.8076 75.126 75.8214C75.4788 76.029 75.8317 76.2435 76.1915 76.451C75.7141 76.5064 75.292 76.4649 74.8907 76.1189C74.4064 75.6969 73.7145 75.6761 73.1334 75.5239C71.6943 75.1572 70.2413 74.6729 68.733 74.7075C67.6468 74.7352 66.609 74.2993 65.5227 74.4861C65.3152 74.6591 65.0592 74.6383 64.817 74.6452C60.9425 74.7559 57.0611 74.7213 53.1866 74.7213C52.8545 74.7213 52.5224 74.7421 52.2526 74.493C51.9897 74.5138 51.6437 74.3823 51.5815 74.8182C51.7198 75.3025 51.7544 75.7937 51.7544 76.2919C51.7544 87.2927 51.7544 98.3004 51.7475 109.301C51.7475 109.654 51.8305 110.028 51.5884 110.346C51.5884 110.457 51.5884 110.567 51.5884 110.678C51.8582 111.121 51.8098 111.564 51.5884 112.006C51.4569 112.574 51.8513 112.664 52.1903 112.498C52.5709 112.311 52.9306 112.345 53.3042 112.339C56.1202 112.332 58.9361 112.373 61.752 112.311C62.4923 112.297 63.0873 112.733 63.8207 112.671C66.5882 112.429 69.3557 112.373 72.0956 111.757C73.417 111.46 74.5725 110.803 75.8801 110.533C76.738 110.353 77.423 109.723 78.1218 109.197C78.3501 109.024 78.5507 108.858 78.8483 108.865C78.5923 109.121 78.3432 109.377 78.0941 109.626Z" fill="#30A649"/>
<path d="M51.5867 110.346C51.5867 99.0611 51.5798 87.7697 51.6075 76.4852C51.6075 75.9248 51.2062 75.3713 51.5798 74.8109C52.1195 74.9492 51.905 75.392 51.905 75.7034C51.9189 81.5359 51.9119 87.3615 51.9119 93.194C51.9119 98.6113 51.9189 104.029 51.905 109.446C51.905 109.764 52.1195 110.207 51.5867 110.346Z" fill="#16AB37"/>
<path d="M62.8717 74.8178C62.9409 75.2191 63.2522 75.143 63.5152 75.1499C64.1448 75.1568 64.7675 75.1499 65.404 75.1499C65.3971 75.572 65.1411 75.4751 64.9819 75.4751C60.9552 75.482 56.9285 75.4751 52.9018 75.4889C52.3898 75.4889 52.1892 75.3091 52.2515 74.8178C52.4867 74.6241 52.7704 74.6518 53.0471 74.6518C56.0637 74.6518 59.0733 74.6448 62.0899 74.6518C62.3528 74.6587 62.6434 74.5964 62.8717 74.8178Z" fill="#20A53E"/>
<path d="M62.8727 74.8187C59.3303 74.8187 55.7879 74.8187 52.2524 74.8187C52.2524 74.708 52.2524 74.6042 52.2524 74.4935C56.6804 74.4935 61.1015 74.4935 65.5295 74.4935C65.4672 74.8879 65.1559 74.8187 64.8999 74.8187C64.2219 74.8256 63.5438 74.8187 62.8727 74.8187Z" fill="#17AC31"/>
<path d="M51.5808 112.008C51.5808 111.565 51.5808 111.122 51.5808 110.68C52.1135 111.129 52.1205 111.572 51.5808 112.008Z" fill="#16AB37"/>
<path d="M112.333 32.9819C112.554 32.9819 112.775 32.9819 112.997 32.9819C112.997 33.0926 112.997 33.2033 112.997 33.314C112.886 33.314 112.775 33.314 112.665 33.314C106.687 33.314 100.716 33.314 94.7383 33.314C94.8767 32.7743 95.3195 32.9888 95.6308 32.9888C101.145 32.975 106.652 32.9819 112.167 32.9819C112.222 32.8781 112.277 32.8781 112.333 32.9819Z" fill="#F9BF0A"/>
<path d="M112.335 32.9803C112.279 32.9803 112.224 32.9803 112.168 32.9803C112.03 32.4407 111.587 32.6621 111.276 32.6552C106.115 32.6413 100.946 32.6552 95.7849 32.6275C95.4458 32.6275 94.7886 32.9319 94.8093 32.2815C94.8232 31.7557 95.432 31.9979 95.771 31.991C101.403 31.9771 107.035 31.9771 112.667 31.9771C112.791 32.3922 112.424 32.6413 112.335 32.9803Z" fill="#FAC103"/>
</svg>
