<svg width="69" height="100" viewBox="0 0 69 100" fill="none" xmlns="http://www.w3.org/2000/svg">
<path d="M53.2016 86.5806C53.2016 85.4874 53.212 84.3977 53.1947 83.3046C53.1912 82.9863 53.2812 82.8445 53.6133 82.8756C53.8727 82.8998 54.1391 82.8894 54.402 82.8791C54.7756 82.8618 55.0558 82.9759 55.1527 83.3703C55.2253 83.6678 55.3568 83.5882 55.5263 83.4429C56.1351 82.9137 56.8512 82.7165 57.64 82.7753C58.9027 82.8721 59.8125 83.7647 59.8713 85.1277C59.9439 86.757 59.899 88.3899 59.9093 90.0192C59.9093 90.2164 59.8228 90.2891 59.636 90.2856C59.0825 90.2821 58.529 90.2752 57.979 90.2856C57.6711 90.2925 57.7057 90.0884 57.7057 89.8947C57.7057 88.6078 57.7057 87.3244 57.7057 86.0375C57.7057 85.9545 57.7057 85.8714 57.7057 85.7884C57.6988 85.311 57.7057 84.8129 57.211 84.5534C56.6852 84.2766 56.1974 84.4808 55.7269 84.761C55.4848 84.9063 55.4052 85.1 55.4087 85.3767C55.4225 86.8262 55.4156 88.2792 55.4156 89.7321C55.4156 90.2856 55.4156 90.2856 54.8448 90.2856C54.4297 90.2856 54.0145 90.2718 53.6029 90.2925C53.2985 90.3098 53.1912 90.2095 53.1981 89.8947C53.212 88.7946 53.2016 87.6876 53.2016 86.5806Z" fill="#1E1A18"/>
<path d="M22.5407 88.8067C21.7312 86.9594 20.9217 85.1086 20.1019 83.2647C19.9739 82.9811 20.0015 82.8669 20.344 82.8808C20.8007 82.9015 21.2573 82.9015 21.7105 82.8808C22.1602 82.8635 22.4266 83.0468 22.5788 83.4792C22.9939 84.6381 23.4367 85.7832 23.8691 86.9351C23.8968 87.0112 23.9037 87.0977 24.0421 87.1427C24.1424 86.8763 24.2496 86.6134 24.3431 86.3436C24.6751 85.3923 25.0142 84.4409 25.329 83.4827C25.4639 83.0676 25.713 82.8704 26.1523 82.8808C26.5536 82.8911 26.9549 82.8911 27.3562 82.8808C27.6467 82.8738 27.7678 82.9257 27.626 83.2544C26.9998 84.6865 26.3945 86.1256 25.7821 87.5613C25.5469 88.0802 25.3324 88.6095 25.1145 89.1353C24.9554 89.4985 24.7755 89.8548 24.6579 90.2354C24.6267 90.5052 24.4399 90.7093 24.3638 90.9618C24.2912 91.0933 24.2773 91.249 24.1908 91.3735C24.1701 91.4116 24.1528 91.4462 24.132 91.4842C23.9279 91.8474 23.9279 92.3871 23.4886 92.5497C22.9143 92.7642 22.2882 92.6396 21.6863 92.6223C21.4164 92.6154 21.5859 92.3975 21.6344 92.2868C22.0391 91.4254 22.4508 90.5709 22.8624 89.713C22.8832 89.3671 22.6445 89.1111 22.5407 88.8067Z" fill="#1E1A18"/>
<path d="M30.4745 90.3967C29.8622 90.3898 29.0735 90.1787 28.3435 89.7429C28.0806 89.5872 27.9665 89.4281 28.2052 89.1651C28.2432 89.1236 28.264 89.0717 28.2951 89.0233C28.7725 88.2622 28.9282 88.2173 29.7273 88.622C30.1182 88.8192 30.5195 88.9437 30.9623 88.8919C31.2944 88.8503 31.6023 88.75 31.6749 88.3695C31.751 87.9751 31.4708 87.7952 31.1664 87.6638C30.6094 87.4216 30.0006 87.3109 29.454 87.0342C28.3885 86.4945 27.9699 85.4256 28.392 84.3047C28.5753 83.8204 28.9005 83.4572 29.3468 83.1977C30.5091 82.5231 32.3702 82.6546 33.4392 83.4745C33.6571 83.6405 33.7263 83.7893 33.5395 84.0141C33.4772 84.0868 33.4323 84.1767 33.3804 84.2563C33.0241 84.8063 32.8995 84.8444 32.2941 84.5953C31.8825 84.4258 31.4674 84.2667 31.0107 84.3324C30.7097 84.3739 30.4261 84.4708 30.3638 84.8167C30.2981 85.1696 30.5368 85.3564 30.8204 85.4705C31.284 85.6539 31.7579 85.8026 32.2215 85.9825C33.3077 86.3976 33.754 86.9615 33.7609 87.9025C33.7678 88.9368 33.2143 89.729 32.2111 90.1338C31.7303 90.3275 31.2252 90.3932 30.4745 90.3967Z" fill="#1E1A18"/>
<path d="M45.346 83.9967C45.6262 83.6957 45.8407 83.4086 46.1243 83.1872C46.5983 82.817 47.1206 82.6648 47.7156 82.7824C48.0201 82.8412 48.1757 82.99 48.0927 83.3325C48.0097 83.6819 47.9543 84.0382 47.9059 84.3945C47.8575 84.7716 47.6776 84.9238 47.2901 84.858C46.6674 84.7473 46.107 84.8546 45.6885 85.3873C45.5259 85.5914 45.4463 85.8024 45.4463 86.0688C45.4567 87.328 45.4428 88.5838 45.4567 89.843C45.4601 90.1716 45.3875 90.3204 45.0243 90.2962C44.5572 90.265 44.0833 90.2754 43.6163 90.2927C43.3326 90.3031 43.2254 90.2166 43.2288 89.9191C43.2392 87.7051 43.2392 85.4946 43.2288 83.2806C43.2288 82.9796 43.3119 82.8343 43.6267 82.8758C43.6959 82.8862 43.765 82.8793 43.8342 82.8793C44.9862 82.8897 44.9862 82.8897 45.346 83.9967Z" fill="#1E1A18"/>
<path d="M51.4196 86.601C51.4196 87.708 51.4127 88.8115 51.4265 89.9185C51.43 90.2091 51.3401 90.3095 51.0495 90.2991C50.5513 90.2783 50.0532 90.2852 49.5585 90.2956C49.3232 90.2991 49.2021 90.2437 49.2021 89.9774C49.2091 87.7253 49.2091 85.4732 49.2056 83.2212C49.2056 82.9756 49.2886 82.8752 49.5446 82.8856C50.0566 82.8995 50.5686 82.8995 51.0771 82.8856C51.3504 82.8787 51.4335 82.9825 51.43 83.2488C51.4127 84.3593 51.4196 85.4802 51.4196 86.601Z" fill="#1F1A18"/>
<path d="M1.30398 72.8566C0.691669 72.3653 0.401082 71.7254 0.41146 70.9435C0.414919 70.6391 0.404541 70.3347 0.404541 70.0303C0.404541 50.8273 0.404541 31.6243 0.404541 12.4213C0.404541 11.9509 0.428757 11.4804 0.449513 11.0099C0.456432 10.83 0.46681 10.6501 0.612104 10.5118C0.670913 10.4841 0.715885 10.4979 0.750479 10.5533C0.833504 10.7574 0.795451 10.9684 0.767776 11.169C0.663994 11.9266 0.695129 12.6877 0.695129 13.4488C0.695129 32.3404 0.695129 51.232 0.695129 70.1237C0.695129 70.5111 0.705507 70.8951 0.757398 71.2826C0.830044 71.7842 1.04799 72.1993 1.41122 72.5418C1.50808 72.6352 1.63954 72.7078 1.66375 72.86C1.54614 73.1437 1.42506 72.8981 1.30398 72.8566Z" fill="#35AD45"/>
<path d="M0.71926 10.5195C0.684666 10.5161 0.650072 10.5126 0.615479 10.5091C0.819582 9.81034 1.32811 9.42289 1.97501 9.18765C2.28981 9.07349 2.62191 9.05273 2.95401 9.05273C22.6517 9.05273 42.3494 9.05273 62.0505 9.05619C62.3376 9.05619 62.6317 9.03198 62.8946 9.18073C62.8427 9.25338 62.7666 9.28451 62.6835 9.30527C62.4241 9.35024 62.1612 9.33294 61.8983 9.33294C42.3805 9.33294 22.8592 9.33986 3.34146 9.31911C2.34862 9.31911 1.55989 9.5924 0.954497 10.3742C0.895688 10.4572 0.833419 10.5333 0.71926 10.5195Z" fill="#38A74C"/>
<path d="M0.0588122 82.4712C0.0912932 82.4712 0.117624 64.0094 0.117624 41.2355C0.117624 18.4616 0.0912932 -0.000244141 0.0588122 -0.000244141C0.0263311 -0.000244141 0 18.4616 0 41.2355C0 64.0094 0.0263311 82.4712 0.0588122 82.4712Z" fill="#F1F5FD"/>
<path d="M54.9828 97.7482C54.9828 97.4161 54.9794 97.084 54.9828 96.7519C54.9863 96.3783 55.2284 96.1949 55.5294 96.4094C55.7577 96.572 55.8788 96.489 56.0691 96.406C56.3527 96.278 56.6433 96.2883 56.8716 96.5305C56.9892 96.655 57.0688 96.7277 57.2383 96.5789C57.5704 96.2849 57.9682 96.2537 58.3626 96.4267C58.7604 96.5997 58.8469 96.9698 58.8573 97.3573C58.8711 97.8416 58.8504 98.3259 58.8677 98.8102C58.878 99.1388 58.667 99.1077 58.456 99.1146C58.2277 99.1215 58.0443 99.1146 58.0582 98.7998C58.0755 98.357 58.0651 97.9142 58.0582 97.4714C58.0547 97.2258 58.0305 96.9595 57.7122 96.9595C57.3801 96.956 57.3283 97.2224 57.3283 97.4887C57.3248 97.89 57.3075 98.2913 57.3352 98.6926C57.3559 99.0143 57.2591 99.1215 56.9201 99.125C56.5568 99.1285 56.5084 98.9693 56.5222 98.6718C56.5395 98.2844 56.5291 97.8969 56.5222 97.5095C56.5188 97.257 56.5291 96.9664 56.1763 96.956C55.8165 96.9456 55.7715 97.2051 55.7785 97.4991C55.7888 97.9281 55.7681 98.357 55.7888 98.786C55.8061 99.1319 55.5951 99.1112 55.3599 99.1181C55.1177 99.125 54.9586 99.0939 54.9759 98.7894C54.9966 98.44 54.9828 98.0941 54.9828 97.7482Z" fill="#211C1A"/>
<path d="M35.2367 97.7344C35.2367 97.4161 35.2367 97.0978 35.2367 96.7796C35.2367 96.3679 35.4892 96.1984 35.8317 96.4302C36.0116 96.5512 36.1015 96.5201 36.2607 96.4371C36.5824 96.271 36.9076 96.2641 37.1636 96.5651C37.2916 96.7173 37.3781 96.6689 37.5026 96.5651C37.8451 96.2849 38.236 96.2503 38.6303 96.4302C39.0247 96.6101 39.1077 96.9837 39.1181 97.3677C39.132 97.8381 39.1043 98.3086 39.1285 98.7791C39.1458 99.1216 38.9417 99.1112 38.703 99.1146C38.4712 99.1181 38.2982 99.1008 38.3121 98.7895C38.3294 98.3328 38.319 97.8762 38.3121 97.4196C38.3086 97.1843 38.2602 96.956 37.9627 96.956C37.679 96.956 37.5925 97.1705 37.5856 97.4092C37.5752 97.8658 37.5649 98.3224 37.5856 98.7791C37.5995 99.08 37.4507 99.1181 37.2051 99.1146C36.9664 99.1077 36.7657 99.1216 36.7796 98.7791C36.8003 98.3224 36.7865 97.8658 36.783 97.4092C36.7796 97.1705 36.7208 96.9491 36.4233 96.9525C36.1223 96.956 36.0324 97.1463 36.0427 97.4265C36.0566 97.8693 36.0289 98.3121 36.0497 98.7549C36.067 99.0731 35.9147 99.1216 35.6484 99.1146C35.4028 99.1112 35.209 99.1077 35.2332 98.7722C35.2575 98.4262 35.2402 98.0803 35.2367 97.7344C35.2402 97.7344 35.2402 97.7344 35.2367 97.7344Z" fill="#211B19"/>
<path d="M3.28577 95.5197C3.97418 95.1219 4.67297 95.0942 5.37523 95.4886C5.5309 95.5751 5.71079 95.6788 5.54128 95.9072C5.40982 96.0836 5.29912 96.305 5.01545 96.1389C4.58303 95.8864 4.14023 95.8518 3.73894 96.1805C3.30306 96.5368 3.25117 97.0315 3.35841 97.5434C3.521 98.3253 4.20596 98.6366 4.90821 98.2457C5.08464 98.1488 5.20918 98.0969 5.38214 98.263C5.607 98.4775 5.607 98.6228 5.35793 98.82C4.78021 99.2766 3.40684 99.3423 2.798 98.4291C2.37941 97.7372 2.30331 97.0176 2.62849 96.2704C2.78762 95.9729 3.01594 95.7273 3.28577 95.5197Z" fill="#201B19"/>
<path d="M49.1957 80.1742C49.6627 79.6069 50.2024 79.427 50.7939 79.638C51.4962 79.8905 51.8525 80.6481 51.5792 81.3089C51.2921 82.0042 50.4203 82.3294 49.7458 81.9869C49.6108 81.9177 49.4932 81.8209 49.3687 81.7378C48.9328 81.302 48.8532 80.6758 49.1957 80.1742Z" fill="#1F1A19"/>
<path d="M42.4923 97.7441C42.4923 97.412 42.4888 97.0799 42.4923 96.7478C42.4957 96.3742 42.7725 96.1978 43.0804 96.4192C43.2602 96.5507 43.3536 96.5438 43.537 96.4503C44.1908 96.1148 44.8308 96.4469 44.8965 97.1768C44.9484 97.7407 44.9242 98.308 44.9242 98.8754C44.9242 99.1936 44.6682 99.0933 44.4952 99.1037C44.3154 99.1175 44.1182 99.1417 44.1216 98.8581C44.1251 98.3876 44.1251 97.9171 44.1216 97.4466C44.1182 97.1941 44.0697 96.9485 43.7549 96.9519C43.447 96.9554 43.2845 97.1249 43.2948 97.457C43.3121 97.8998 43.2845 98.3426 43.3052 98.782C43.319 99.0864 43.1565 99.1106 42.9178 99.1071C42.6791 99.1037 42.4715 99.1175 42.4923 98.775C42.5096 98.436 42.4957 98.0901 42.4923 97.7441C42.4957 97.7441 42.4957 97.7441 42.4923 97.7441Z" fill="#231D1B"/>
<path d="M22.2382 97.7309C22.2382 97.4126 22.2382 97.0943 22.2382 96.7761C22.2416 96.3679 22.508 96.1949 22.8366 96.4301C23.0061 96.5512 23.0857 96.5443 23.2552 96.4578C23.9298 96.1084 24.5767 96.4371 24.6459 97.1912C24.6978 97.7412 24.6701 98.2947 24.6736 98.8483C24.677 99.1907 24.4176 99.0939 24.2273 99.1077C24.0336 99.1215 23.8641 99.1181 23.871 98.8448C23.8814 98.402 23.8779 97.9592 23.8744 97.5198C23.871 97.25 23.8675 96.9525 23.4905 96.956C23.1445 96.9594 23.0304 97.1808 23.0442 97.5164C23.0649 97.9453 23.0338 98.3743 23.0511 98.7998C23.065 99.1215 22.8747 99.1146 22.6533 99.1112C22.4388 99.1077 22.2278 99.1354 22.2382 98.8102C22.2485 98.4504 22.2382 98.0906 22.2382 97.7309Z" fill="#221D1B"/>
<path d="M8.24704 98.0941C8.24704 98.3017 8.25049 98.5092 8.24358 98.7168C8.24012 98.8482 8.29893 99.0177 8.13287 99.0835C7.9772 99.1423 7.78348 99.1561 7.66932 99.0143C7.5344 98.8448 7.42716 98.8932 7.28879 98.9901C7.13657 99.0939 6.9636 99.1388 6.78026 99.1527C6.34783 99.1838 6.03995 98.997 5.93617 98.6441C5.82547 98.2671 5.99152 97.928 6.38935 97.7309C6.62804 97.6132 6.8875 97.5648 7.14695 97.5371C7.27841 97.5233 7.45138 97.5648 7.44446 97.3469C7.43754 97.1497 7.36143 96.9975 7.14349 96.9629C6.95323 96.9352 6.79063 97.0148 6.62804 97.084C6.39626 97.1843 6.21638 97.1289 6.11605 96.9006C6.00535 96.6481 6.23367 96.5962 6.38243 96.5201C7.42024 95.977 8.24358 96.4751 8.25049 97.6444C8.24703 97.7897 8.24704 97.9419 8.24704 98.0941Z" fill="#211C1A"/>
<path d="M50.8246 97.1805C50.8246 96.6546 50.8419 96.1288 50.8177 95.6065C50.8004 95.2501 50.9976 95.2432 51.257 95.2467C51.5096 95.2501 51.7171 95.2363 51.7102 95.5995C51.6895 96.3883 51.7206 97.177 51.6964 97.9623C51.686 98.3221 51.8209 98.4293 52.1496 98.3982C52.326 98.3809 52.5093 98.412 52.6892 98.3878C52.9833 98.3532 53.1147 98.4293 53.1113 98.7614C53.1078 99.0762 52.9729 99.1281 52.7065 99.1177C52.1945 99.1039 51.6826 99.1004 51.174 99.1177C50.8973 99.1281 50.8142 99.0174 50.8212 98.7545C50.835 98.2287 50.8246 97.7028 50.8246 97.1805Z" fill="#2C2626"/>
<path d="M43.3734 3.95313C43.3837 2.71813 44.6602 1.93978 45.7672 2.50019C45.9091 2.57284 46.1582 2.62473 46.0371 2.87727C45.9333 3.09521 45.7776 3.21974 45.5078 3.07099C45.1688 2.88418 44.8055 2.88764 44.4942 3.13326C44.1586 3.39963 44.0894 3.78016 44.1517 4.18491C44.2555 4.85948 44.8332 5.18121 45.4386 4.87332C45.6911 4.74533 45.8676 4.7557 45.9886 4.9944C46.1236 5.25385 45.8641 5.3265 45.7154 5.40952C44.6222 6.01837 43.363 5.2331 43.3734 3.95313Z" fill="#211C1A"/>
<path d="M63.6976 2.36665C63.8498 2.36665 64.002 2.36319 64.1542 2.36665C64.2995 2.37011 64.4828 2.3286 64.4967 2.55692C64.507 2.76102 64.4136 2.91323 64.2026 2.9409C64.0124 2.96512 63.8186 2.96858 63.6249 2.96166C63.3966 2.95128 63.2928 3.0516 63.2893 3.273C63.2859 3.53246 63.4796 3.45289 63.6145 3.46327C64.1853 3.50824 64.5278 3.78845 64.6039 4.28314C64.6869 4.8055 64.3894 5.32441 63.8913 5.50776C63.4658 5.66343 63.0506 5.62192 62.6597 5.38322C62.5421 5.31057 62.4072 5.23101 62.5144 5.0615C62.5975 4.93004 62.6978 4.8055 62.8811 4.86777C63.0126 4.91274 63.1337 4.98539 63.2651 5.01998C63.4623 5.07188 63.6595 5.05804 63.7944 4.88507C63.9432 4.69826 63.9708 4.48032 63.8774 4.25892C63.7875 4.0479 63.5938 4.01677 63.3931 4.01331C62.5871 4.00985 62.5871 4.00985 62.7116 3.23149C62.7151 3.21765 62.7151 3.20382 62.7185 3.18998C62.9123 2.23173 62.6597 2.38049 63.6976 2.36665Z" fill="#221D1C"/>
<path d="M61.9606 4.05086C62.265 4.47636 62.2477 4.93646 61.9191 5.27547C61.5627 5.64217 60.8328 5.71136 60.3969 5.41731C60.307 5.3585 60.2343 5.27202 60.1513 5.19937C60.0718 5.0437 59.8434 4.89494 60.0545 4.70468C60.2793 4.50057 60.5042 4.55938 60.691 4.79462C60.8536 4.99872 61.0611 5.06099 61.3067 4.95375C61.6319 4.55938 61.5697 4.30339 61.1061 4.18923C60.9573 4.15118 60.8466 4.11312 60.8466 3.93324C60.8466 3.76373 60.9262 3.6807 61.0888 3.65995C61.3067 3.63573 61.452 3.53195 61.4624 3.29671C61.4693 3.13412 61.4209 2.98537 61.2583 2.9231C61.03 2.83662 60.857 2.92656 60.729 3.12374C60.6598 3.23098 60.5872 3.33477 60.4419 3.33131C60.3174 3.33131 60.1825 3.33822 60.0925 3.2379C59.9853 3.12028 60.0787 3.00267 60.1306 2.89542C60.3727 2.40073 61.0369 2.18279 61.6008 2.41111C62.0609 2.59446 62.2096 2.97499 62.047 3.53541C61.9986 3.70838 61.6458 3.826 61.9606 4.05086Z" fill="#211D1C"/>
<path d="M31.7952 96.3297C32.0339 96.3332 32.2657 96.3747 32.4732 96.4958C32.5943 96.5649 32.7258 96.6445 32.6289 96.8209C32.5528 96.9628 32.4525 97.0735 32.2657 97.025C32.1342 96.9905 32.0028 96.942 31.8644 96.9247C31.7225 96.904 31.5703 96.9247 31.5288 97.0908C31.4908 97.2499 31.6291 97.3053 31.7398 97.3537C31.9024 97.4263 32.0754 97.4817 32.2414 97.5509C32.532 97.672 32.7258 97.8761 32.7292 98.2082C32.7327 98.5714 32.577 98.8551 32.2484 99.0142C31.809 99.2252 31.3628 99.1872 30.9269 98.9865C30.8024 98.9312 30.6501 98.8654 30.7332 98.6821C30.8127 98.5126 30.9234 98.3673 31.1517 98.4399C31.3074 98.4884 31.4631 98.5576 31.6222 98.5852C31.7641 98.6094 31.9128 98.561 31.9509 98.4019C31.9889 98.2531 31.8609 98.1839 31.7468 98.1286C31.6603 98.0871 31.5669 98.0594 31.4769 98.0283C30.8854 97.8138 30.6709 97.5163 30.7574 97.032C30.8369 96.5961 31.2382 96.3228 31.7952 96.3297Z" fill="#211D1B"/>
<path d="M13.419 97.7746C13.419 97.6224 13.419 97.4702 13.419 97.318C13.419 97.1416 13.4432 96.9859 13.1976 96.8994C12.9658 96.8198 12.9693 96.4947 13.1942 96.4358C13.4744 96.3632 13.5263 96.1764 13.5609 95.955C13.5989 95.7024 13.7027 95.5433 13.9864 95.5641C14.2942 95.5848 14.232 95.8235 14.2181 95.9965C14.1939 96.2905 14.3115 96.4012 14.5987 96.3666C14.8201 96.3424 14.8789 96.467 14.8789 96.6676C14.8789 96.8683 14.7855 96.9513 14.6021 96.9271C14.2666 96.8821 14.2008 97.0585 14.2251 97.3422C14.2424 97.5463 14.232 97.7573 14.2285 97.9614C14.2251 98.2382 14.1766 98.5288 14.6229 98.5045C14.782 98.4976 14.8547 98.6983 14.8823 98.8436C14.9135 99.0027 14.7509 99.0338 14.6402 99.0754C13.9587 99.3314 13.4432 98.9923 13.4225 98.2693C13.4156 98.1033 13.419 97.9372 13.419 97.7746Z" fill="#211B1A"/>
<path d="M33.3317 97.8036C33.3317 97.6514 33.3317 97.4992 33.3317 97.347C33.3317 97.1567 33.3594 96.9872 33.093 96.8938C32.8716 96.8177 32.8889 96.496 33.1207 96.4302C33.3767 96.3576 33.4355 96.1881 33.4701 95.9805C33.5116 95.7176 33.6119 95.5308 33.9198 95.5654C34.2277 95.6 34.1308 95.8456 34.1308 96.0186C34.1308 96.2504 34.1758 96.3991 34.4491 96.368C34.6601 96.3438 34.7916 96.406 34.7847 96.662C34.7777 96.8903 34.6636 96.9595 34.4699 96.9353C34.1689 96.8973 34.1205 97.0633 34.1343 97.3089C34.1481 97.558 34.1412 97.8071 34.1378 98.0562C34.1308 98.3122 34.1412 98.5232 34.501 98.5024C34.6843 98.492 34.7708 98.6961 34.7916 98.8553C34.8158 99.0109 34.6497 99.0386 34.5356 99.0801C33.8403 99.3327 33.349 98.9971 33.3317 98.2603C33.3283 98.108 33.3317 97.9558 33.3317 97.8036Z" fill="#211C1A"/>
<path d="M61.8914 99.1509C61.3898 99.1405 61.1027 98.8914 61.0681 98.4417C61.0404 98.0992 61.0612 97.7533 61.0543 97.4074C61.0508 97.1963 61.1096 96.9922 60.8017 96.8815C60.6149 96.8124 60.5942 96.5148 60.8329 96.4387C61.1062 96.3557 61.165 96.1793 61.1996 95.9579C61.2376 95.7088 61.3345 95.5462 61.6251 95.5635C61.9399 95.5843 61.8672 95.8195 61.8568 95.9925C61.8395 96.2796 61.9399 96.4076 62.2339 96.3661C62.4588 96.335 62.5107 96.4664 62.5176 96.6671C62.5245 96.8712 62.4242 96.9507 62.2408 96.93C61.9122 96.8885 61.8326 97.0476 61.8568 97.3416C61.8741 97.5457 61.8568 97.7568 61.8603 97.9609C61.8638 98.2307 61.7946 98.5386 62.2512 98.5074C62.4069 98.4971 62.4899 98.6977 62.5141 98.8395C62.5418 99.0194 62.3619 99.0471 62.2374 99.0852C62.1059 99.1267 61.9675 99.137 61.8914 99.1509Z" fill="#211D1B"/>
<path d="M27.0181 98.3428C26.9628 98.4812 26.9074 98.6195 26.8521 98.7579C26.7829 98.9343 26.7379 99.1246 26.475 99.1108C26.2363 99.0969 25.97 99.1626 25.8696 98.8409C25.5825 98.1456 25.33 97.4364 25.074 96.7307C24.9494 96.3917 25.0013 96.3191 25.3542 96.3121C25.5548 96.3087 25.7382 96.3398 25.8523 96.5266C26.0045 97.0386 26.1533 97.5506 26.3055 98.0591C26.3366 98.0626 26.3712 98.066 26.4024 98.0695C26.5442 97.6232 26.6999 97.1804 26.8244 96.7307C26.904 96.4401 27.07 96.3398 27.3641 96.3502C27.6374 96.3571 27.7654 96.409 27.627 96.703C27.5786 96.7999 27.5543 96.9106 27.5163 97.0144C27.3433 97.4572 27.2015 97.9069 27.0181 98.3428Z" fill="#211C19"/>
<path d="M47.8539 98.439C47.9093 98.4667 47.9646 98.4909 48.02 98.5186C48.2172 98.5359 48.4939 98.695 48.5666 98.4044C48.6288 98.1519 48.3417 98.1208 48.1584 98.0481C47.93 97.9582 47.7121 97.8509 47.5357 97.671C47.3177 97.1487 47.3973 96.7474 47.7744 96.4983C48.148 96.2492 48.9367 96.2838 49.2273 96.5502C49.3276 96.6401 49.3415 96.7301 49.2723 96.8408C49.1962 96.9653 49.1062 97.0622 48.9402 97.0207C48.7949 96.9826 48.6496 96.9376 48.5008 96.9169C48.3763 96.8996 48.2379 96.9273 48.1964 97.0691C48.1514 97.2213 48.2691 97.294 48.3867 97.3459C48.487 97.3908 48.5943 97.422 48.6946 97.4635C49.0094 97.5845 49.3242 97.7091 49.3761 98.1035C49.428 98.4978 49.2654 98.7988 48.9367 99.0167C48.4455 99.2693 47.9646 99.1828 47.4907 98.9683C47.3835 98.9199 47.2589 98.8472 47.3696 98.6881C47.4872 98.522 47.5772 98.3006 47.8539 98.439Z" fill="#221D1A"/>
<path d="M20.66 97.1449C20.66 96.6226 20.6738 96.0967 20.6565 95.5744C20.6427 95.142 20.954 95.2838 21.172 95.2561C21.421 95.225 21.5525 95.2942 21.549 95.5882C21.5352 96.6502 21.5283 97.7123 21.549 98.7743C21.556 99.1514 21.338 99.1133 21.0959 99.1202C20.8399 99.1272 20.6358 99.1271 20.6496 98.7639C20.6773 98.2208 20.66 97.6811 20.66 97.1449Z" fill="#221E1C"/>
<path d="M58.7237 4.1338C58.5126 3.98851 58.2843 4.01272 58.0456 4.0404C57.589 4.09575 57.4921 3.98851 57.5648 3.55263C57.7654 2.35568 57.7654 2.35223 58.9831 2.36952C59.1388 2.37298 59.3809 2.2692 59.3948 2.56671C59.4086 2.85383 59.2287 2.95416 58.9727 2.96107C58.7929 2.96453 58.613 2.96453 58.4331 2.96453C58.2151 2.96453 58.2082 3.13404 58.1875 3.2828C58.1632 3.47998 58.3085 3.46268 58.4331 3.46268C58.6545 3.46614 58.8759 3.48344 59.0627 3.62527C59.5089 4.0058 59.6127 4.4486 59.374 4.94675C59.1561 5.39993 58.5957 5.66284 58.0871 5.54522C57.9107 5.50371 57.7412 5.45182 57.5855 5.35842C57.4817 5.29615 57.3261 5.24426 57.4264 5.08859C57.5025 4.96751 57.5924 4.81876 57.7896 4.8914C57.8796 4.926 57.9695 4.96405 58.056 5.0021C58.3085 5.10934 58.5542 5.12664 58.7306 4.8914C58.907 4.65271 58.9347 4.38287 58.7237 4.1338Z" fill="#211D1B"/>
<path d="M45.8722 95.6989C46.2908 95.4463 46.4499 95.5155 46.4464 95.9722C46.4464 96.2351 46.4845 96.408 46.8062 96.3665C47.0034 96.3389 47.1141 96.415 47.1106 96.6433C47.1106 96.8612 47.0207 96.9581 46.8166 96.9304C46.5122 96.8889 46.4257 97.0342 46.4499 97.3144C46.4672 97.5185 46.4534 97.7295 46.4534 97.9371C46.4534 98.2208 46.3773 98.5494 46.8616 98.5079C46.9861 98.4975 47.0242 98.6809 47.1106 98.7673C47.1902 98.8711 47.1349 98.9472 47.0553 99.013C46.6817 99.3243 46.0036 99.1894 45.7442 98.75C45.5816 98.2969 45.6923 97.8264 45.6646 97.3663C45.6542 97.1622 45.6854 96.9719 45.419 96.8681C45.2391 96.799 45.2772 96.5983 45.374 96.4426C45.8376 96.3942 45.7719 95.9895 45.8722 95.6989Z" fill="#211C1A"/>
<path d="M18.9503 97.132C18.9503 97.6855 18.9364 98.239 18.9537 98.7925C18.9641 99.1488 18.7393 99.1004 18.5144 99.1142C18.2653 99.1281 18.1304 99.0797 18.1339 98.7822C18.1477 97.6752 18.1477 96.5682 18.1339 95.4646C18.1304 95.1602 18.2826 95.136 18.5248 95.1394C18.7669 95.1429 18.9641 95.1394 18.9537 95.475C18.9399 96.025 18.9503 96.5785 18.9503 97.132Z" fill="#251F1E"/>
<path d="M48.1888 3.34851C47.9813 3.33814 47.9155 3.47305 47.8014 3.51802C47.6388 3.58375 47.5419 3.49381 47.4485 3.38311C47.3551 3.26895 47.3517 3.16171 47.4762 3.06139C47.7218 2.86074 47.9605 2.64972 48.2096 2.45254C48.3756 2.32108 48.5832 2.32454 48.7631 2.39373C48.9464 2.46291 48.8703 2.6601 48.8703 2.79847C48.8772 3.42116 48.8772 4.04385 48.8703 4.66308C48.8669 4.88448 48.8599 5.08858 49.1782 5.06782C49.365 5.05398 49.4031 5.18544 49.3996 5.34457C49.3961 5.5037 49.3062 5.56251 49.1609 5.56251C48.7181 5.56251 48.2753 5.55905 47.8325 5.56251C47.663 5.56251 47.5765 5.50024 47.5765 5.32036C47.5765 5.15085 47.6457 5.04707 47.8221 5.06782C48.1681 5.10933 48.1992 4.91215 48.1923 4.63886C48.1784 4.21682 48.1888 3.78785 48.1888 3.34851Z" fill="#262121"/>
<path d="M54.3406 97.7642C54.3406 98.1102 54.3268 98.4561 54.3441 98.7986C54.3614 99.1134 54.1711 99.1203 53.9463 99.1134C53.7387 99.1065 53.5242 99.1514 53.5311 98.8193C53.5415 98.1032 53.545 97.3837 53.5277 96.6676C53.5173 96.3044 53.756 96.3736 53.9705 96.3563C54.2196 96.339 54.3614 96.3978 54.3475 96.6918C54.3268 97.0481 54.3406 97.4045 54.3406 97.7642Z" fill="#25211F"/>
<path d="M11.8206 97.6857C11.8206 97.3398 11.8344 96.9938 11.8171 96.6479C11.8033 96.3504 11.9867 96.3504 12.1942 96.3573C12.3949 96.3642 12.6232 96.302 12.6197 96.641C12.6093 97.3744 12.6128 98.1043 12.6197 98.8377C12.6232 99.1456 12.4122 99.104 12.2219 99.104C12.0282 99.104 11.8137 99.149 11.8206 98.8411C11.8241 98.4606 11.8206 98.0732 11.8206 97.6857Z" fill="#231D1C"/>
<path d="M60.2553 97.7372C60.2553 98.097 60.2449 98.4568 60.2587 98.8166C60.2726 99.1487 60.0477 99.1106 59.8401 99.1106C59.6395 99.114 59.4492 99.1279 59.4527 98.8269C59.4631 98.0935 59.4665 97.3636 59.4527 96.6302C59.4492 96.3154 59.6568 96.3604 59.8436 96.3639C60.0269 96.3673 60.2553 96.305 60.2518 96.6198C60.2518 96.9935 60.2553 97.3671 60.2553 97.7372Z" fill="#231E1C"/>
<path d="M53.9241 95.1318C54.2286 95.1699 54.4154 95.3117 54.4188 95.6058C54.4188 95.8998 54.2286 96.0728 53.9518 96.0728C53.6716 96.0728 53.4848 95.9033 53.4848 95.6058C53.4779 95.3117 53.6647 95.1733 53.9241 95.1318Z" fill="#2B2725"/>
<path d="M12.707 95.6105C12.6759 95.8942 12.5133 96.0706 12.2262 96.0706C11.9563 96.0741 11.7765 95.9046 11.7661 95.6347C11.7557 95.3441 11.9218 95.1539 12.2158 95.1435C12.5064 95.1366 12.6655 95.3165 12.707 95.6105Z" fill="#282221"/>
<path d="M59.8822 95.136C60.1555 95.1844 60.3458 95.3297 60.332 95.6238C60.3216 95.9109 60.1348 96.0839 59.8511 96.0769C59.5709 96.0666 59.391 95.8867 59.3979 95.5995C59.4083 95.3055 59.5951 95.1637 59.8822 95.136Z" fill="#2A2425"/>
<path d="M61.5575 87.7258C61.298 88.3174 61.2081 88.8847 61.7408 89.3932C61.8515 89.497 61.7927 89.5974 61.6716 89.6527C60.9071 89.9917 60.6857 90.5971 60.8102 91.3755C60.5023 90.8289 60.6788 90.1716 61.2634 89.7807C61.5332 89.6008 61.6924 89.497 61.4156 89.1442C61.0731 88.7118 61.1838 88.0925 61.5575 87.7258Z" fill="#A8A4A2"/>
<path d="M62.7075 9.2013C62.7698 9.19438 62.832 9.18746 62.8943 9.18054C63.6035 9.24973 64.0013 9.74788 64.3749 10.2737C64.3784 10.3533 64.3818 10.4294 64.3853 10.5089C64.3334 10.5435 64.2711 10.5435 64.2365 10.4986C63.8422 9.99349 63.3302 9.63718 62.7698 9.33967C62.7179 9.31892 62.7006 9.26357 62.7075 9.2013Z" fill="#29A84B"/>
<path d="M40.54 83.0836C39.4572 82.5889 38.4505 82.8172 37.4854 83.4053C38.0838 82.6546 39.9415 82.4263 40.54 83.0836Z" fill="#767472"/>
<path d="M63.3787 87.5636C63.4098 87.4909 63.4721 87.4633 63.5447 87.4702C64.4511 87.567 65.3055 87.3802 66.1185 86.9824C65.6653 87.4183 65.0807 87.5221 64.4926 87.574C64.1259 87.6051 63.7523 87.567 63.3787 87.5636Z" fill="#706E6F"/>
<path d="M2.21086 8.52759C2.20048 8.67634 2.0967 8.68326 1.97908 8.6971C1.74384 8.72131 1.96178 8.80434 1.96178 8.85968C1.83033 8.85968 1.69541 8.85277 1.56396 8.85968C1.3045 8.87698 1.28721 8.71785 1.29759 8.52759C1.60201 8.52759 1.90643 8.52759 2.21086 8.52759Z" fill="#F1F6F4"/>
<path d="M39.7175 96.9305C39.7279 97.2211 39.5688 97.4806 39.5861 97.7746C39.6138 98.2416 39.8421 98.6014 40.1361 98.937C39.4719 98.598 39.2713 97.6259 39.7175 96.9305Z" fill="#686766"/>
<path d="M2.62484 96.2745C2.3896 97.0183 2.47609 97.7344 2.79436 98.4332C2.30312 97.8866 2.22355 96.873 2.62484 96.2745Z" fill="#7A7676"/>
<path d="M49.1962 80.1743C48.9609 80.7278 49.0336 81.2467 49.3657 81.738C48.8641 81.3574 48.7811 80.6102 49.1962 80.1743Z" fill="#AAA9A8"/>
<path d="M25.1189 89.1334C25.2538 88.573 25.4718 88.0438 25.7866 87.5594C25.6378 88.1164 25.4129 88.6388 25.1189 89.1334Z" fill="#6A6665"/>
<path d="M24.6301 90.224C24.7374 89.8366 24.8584 89.4561 25.1179 89.1378C25.066 89.5322 24.8342 89.8574 24.7097 90.224C24.6855 90.2517 24.6578 90.2552 24.6301 90.224Z" fill="#6A6665"/>
<path d="M3.28599 95.5206C3.06459 95.7697 2.84664 96.0222 2.62524 96.2713C2.71519 95.9081 2.93313 95.6555 3.28599 95.5206Z" fill="#7A7676"/>
<path d="M22.5413 88.8051C22.7315 89.0783 22.9598 89.3378 22.8699 89.7148C22.7869 89.4001 22.5759 89.1337 22.5413 88.8051Z" fill="#6E6C69"/>
<path d="M24.6311 90.2244C24.6588 90.2244 24.683 90.2244 24.7106 90.2244C24.6622 90.5011 24.5688 90.7571 24.3682 90.9612C24.3751 90.6845 24.5584 90.4734 24.6311 90.2244Z" fill="#ACAAA8"/>
<path d="M1.30371 72.8577C1.41095 72.8923 1.51819 72.9234 1.62543 72.958C1.705 72.9718 1.73959 73.0203 1.73959 73.0998C1.70154 73.1102 1.66695 73.1171 1.62889 73.1275C1.47668 73.086 1.34868 73.0237 1.30371 72.8577Z" fill="#9BDCA3"/>
<path d="M24.1951 91.3721C24.1882 91.2061 24.247 91.0712 24.3681 90.9604C24.3923 91.13 24.3404 91.2718 24.1951 91.3721Z" fill="#ACAAA8"/>
<path d="M1.7391 73.0987C1.70104 73.0503 1.66299 73.0053 1.62494 72.9569C1.46581 72.6836 1.151 72.5764 0.978035 72.3065C0.649394 71.7876 0.555991 71.2168 0.552532 70.6253C0.549072 64.9277 0.549072 59.2266 0.549072 53.529C0.549072 39.7261 0.549072 25.9198 0.552532 12.1169C0.552532 11.5807 0.611341 11.0479 0.715122 10.5186C1.22711 9.6607 1.93974 9.18677 2.97755 9.18677C22.7064 9.19369 42.4352 9.19369 62.1674 9.19369C62.3473 9.19369 62.5272 9.19715 62.7071 9.2006C63.3782 9.49465 63.9386 9.92361 64.3814 10.5082H64.378C64.4748 11.0583 64.6271 11.6049 64.5406 12.1757C64.5129 12.3521 64.5336 12.5354 64.5336 12.7153C64.5336 32.0532 64.5336 51.3911 64.5302 70.729C64.5302 70.9712 64.6063 71.2307 64.4091 71.4417C64.1981 71.5455 64.1393 71.4209 64.1254 71.248C64.1081 71.0438 64.1185 70.8397 64.1185 70.6391C64.122 70.5561 64.122 70.4765 64.1531 70.3969C64.288 70.1652 64.2431 69.9126 64.2431 69.667C64.2465 60.8594 64.2465 52.0519 64.2465 43.2443C64.2465 33.136 64.2465 23.0277 64.2431 12.9229C64.2431 12.7499 64.2984 12.5631 64.1912 12.4074C64.1151 12.6012 64.1566 12.7984 64.1566 12.9886C64.1531 31.8976 64.1531 50.8065 64.1531 69.712C64.1531 69.9749 64.167 70.2378 64.1185 70.4973C64.1081 71.0508 64.122 71.6077 64.1185 72.1612C64.1151 72.2027 64.1012 72.2408 64.0805 72.2788C63.9213 72.4207 63.8314 72.6179 63.7034 72.7839L63.7103 72.7874C63.527 72.8704 63.3678 72.9915 63.1983 73.1022C63.1707 73.1368 63.1464 73.1748 63.1188 73.2094C62.8213 73.2855 62.5203 73.2959 62.2159 73.2959C42.6393 73.2959 23.0627 73.2959 3.48608 73.2924C2.90491 73.2924 2.30643 73.3201 1.7391 73.0987Z" fill="#1DA737"/>
<path d="M64.3723 71.4531C64.4519 71.2144 64.4588 70.9687 64.4588 70.7162C64.4553 52.9143 64.4623 35.1123 64.4484 17.3104C64.445 15.0445 64.5764 12.7752 64.3827 10.5093C64.656 10.8691 64.5591 11.3049 64.6214 11.7028C64.6595 11.9449 64.6283 12.2009 64.6283 12.45C64.6283 31.8674 64.6283 51.2884 64.6283 70.7058C64.6283 71.0691 64.5937 71.4219 64.5315 71.7782C64.4484 71.8751 64.4796 72.0273 64.3689 72.1138C64.2685 72.2383 64.2305 72.4148 64.0471 72.4666C63.9918 72.4078 63.9849 72.349 64.0368 72.2833L64.0402 72.2798C64.1821 72.0169 64.1302 71.6745 64.3723 71.4531Z" fill="#29A84B"/>
<path d="M64.0392 72.2838C64.0427 72.3461 64.0461 72.4049 64.0496 72.4672C64.0046 72.647 63.8939 72.7543 63.7105 72.7854C63.6829 72.5294 63.7901 72.3599 64.0392 72.2838Z" fill="#1FA735"/>
<path d="M63.2092 73.1029C63.2957 72.8608 63.4583 72.7466 63.7212 72.7882C63.6243 73.013 63.4479 73.1099 63.2092 73.1029Z" fill="#3BA44E"/>
<path d="M64.3718 72.114C64.3648 71.9722 64.3856 71.8442 64.5343 71.7784C64.5309 71.9168 64.5897 72.0829 64.3718 72.114Z" fill="#7BB989"/>
<path fill-rule="evenodd" clip-rule="evenodd" d="M2.50843 83.9005C2.508 84.2981 2.50756 84.6958 2.50756 85.0938C2.50756 85.4465 2.50791 85.7995 2.50825 86.1525C2.50944 87.3885 2.51064 88.6257 2.49719 89.8608C2.49373 90.1756 2.56637 90.3036 2.90885 90.2967C3.68271 90.2855 4.45514 90.2873 5.22798 90.289C5.65741 90.29 6.08697 90.291 6.51698 90.2897C7.70354 90.2863 8.81746 90.0165 9.8103 89.3384C11.5815 88.1311 12.3564 85.7891 11.7337 83.5474C11.1525 81.4545 9.28793 79.9946 7.00475 79.9116C6.21081 79.8811 5.41568 79.8829 4.62075 79.8846C4.06138 79.8858 3.50212 79.887 2.94344 79.877C2.59751 79.8701 2.49719 79.9808 2.50065 80.3233C2.51102 81.5167 2.50973 82.7081 2.50843 83.9005ZM4.93856 84.3261C4.93813 84.5715 4.9377 84.817 4.9377 85.0627V88.0447V88.0862C4.92386 88.2868 4.955 88.4425 5.21445 88.4356C5.4263 88.4295 5.63857 88.4324 5.85097 88.4352C6.24553 88.4405 6.64054 88.4458 7.03408 88.3941C8.03038 88.2626 8.74993 87.7368 9.1443 86.8062C9.54904 85.8583 9.5698 84.869 9.32072 83.8796C8.98171 82.527 8.02346 81.7797 6.62587 81.7451C6.4413 81.7408 6.25673 81.7425 6.07241 81.7442C5.81453 81.7465 5.55715 81.7489 5.30093 81.7348C4.99997 81.7175 4.92732 81.8386 4.93078 82.1188C4.94116 82.8555 4.93986 83.5903 4.93856 84.3261Z" fill="#1E1A18"/>
<path fill-rule="evenodd" clip-rule="evenodd" d="M61.7693 87.5616C61.6937 87.6159 61.6182 87.6701 61.5557 87.7262C61.1475 88.2625 61.2374 88.8851 61.5246 89.2138C61.746 89.4698 61.6941 89.5701 61.4346 89.7361C60.767 90.1651 60.6251 90.5802 60.8119 91.3794C61.0022 91.8325 61.3308 92.1715 61.7736 92.3653C63.2681 93.0156 64.7798 93.0468 66.2708 92.3618C66.9869 92.0332 67.5093 91.4935 67.7168 90.6979C67.9901 89.6497 67.53 88.8125 66.5026 88.4977C65.9975 88.342 65.4717 88.3109 64.9459 88.2867C64.8253 88.2803 64.7045 88.2773 64.5838 88.2742C64.2473 88.2658 63.9113 88.2574 63.5829 88.176C63.1816 88.0791 63.1366 87.9096 63.3822 87.5637C63.5372 87.4834 63.7033 87.4983 63.8644 87.5128C63.9047 87.5165 63.9447 87.5201 63.9842 87.5221C64.7556 87.5637 65.4682 87.3976 66.1221 86.9825C66.8485 86.4843 67.1841 85.7855 67.0699 84.9172C67.025 84.5782 67.0941 84.4571 67.4297 84.3914C67.9832 84.2842 68.1008 84.0489 67.997 83.3605C67.9494 83.0459 67.7605 83.0761 67.5729 83.1061C67.4883 83.1197 67.4039 83.1332 67.3328 83.1149C67.2443 83.091 67.1474 83.0968 67.0503 83.1027C67.0071 83.1054 66.9638 83.108 66.9212 83.108C66.302 83.108 65.6966 83.0872 65.0843 82.8935C64.2021 82.6133 63.2992 82.7067 62.4517 83.0907C60.9953 83.7514 60.5905 85.4534 61.5868 86.6123C61.6531 86.6888 61.7499 86.7516 61.8438 86.8126C62.0048 86.9172 62.1574 87.0163 62.1334 87.1693C62.1118 87.3157 61.9404 87.4387 61.7693 87.5616ZM64.092 86.1927C63.452 86.1858 63.0576 85.8122 63.0576 85.2103C63.0576 84.5737 63.4347 84.2347 64.13 84.2451C64.7942 84.2555 65.1471 84.6049 65.1333 85.2345C65.1229 85.8572 64.7458 86.1997 64.092 86.1927ZM64.141 91.327L64.0389 91.3223H64.0389C63.7133 91.3079 63.3894 91.2935 63.0825 91.1713C62.7642 91.0433 62.5878 90.8219 62.6743 90.4587C62.7573 90.1128 63.0444 89.9121 63.3903 89.9329C63.5717 89.9417 63.7535 89.9455 63.9353 89.9493C64.2494 89.9558 64.5633 89.9623 64.8744 89.9951L64.942 90.0021C65.283 90.0364 65.6638 90.0747 65.7254 90.5417C65.7739 90.9119 65.4833 91.1644 64.9228 91.2578C64.7553 91.2846 64.5862 91.2955 64.4176 91.3065C64.3252 91.3124 64.2329 91.3184 64.141 91.327Z" fill="#1E1A17"/>
<path fill-rule="evenodd" clip-rule="evenodd" d="M41.7994 84.8037C41.5953 84.0842 41.2252 83.4615 40.5402 83.0844C39.447 82.4998 38.4404 82.7246 37.489 83.4061C37.462 83.4293 37.4341 83.4519 37.4061 83.4747C37.3587 83.5131 37.3111 83.5516 37.2676 83.5929C37.1327 83.7175 37.022 83.7348 36.984 83.5203C36.8871 82.9564 36.5066 82.8388 36.0084 82.8803C35.787 82.8976 35.5656 82.8976 35.3442 82.8803C35.0744 82.8596 34.9845 82.9668 34.9845 83.2366C34.9914 86.2636 34.9914 89.2871 34.9845 92.314C34.981 92.5769 35.0882 92.6461 35.3269 92.6392C35.8251 92.6254 36.3198 92.6219 36.8179 92.6392C37.105 92.6496 37.2123 92.5596 37.2054 92.2656C37.1919 91.7276 37.1931 91.1916 37.1943 90.6545C37.1947 90.501 37.195 90.3473 37.195 90.1934C37.195 90.1823 37.1949 90.1711 37.1948 90.16C37.1937 89.9852 37.1926 89.8269 37.4821 89.9928C38.8866 90.7919 40.516 90.3802 41.3739 88.9999C42.1938 87.6819 42.2111 86.2532 41.7994 84.8037ZM37.191 85.5503V86.6712C37.1892 86.8856 37.1892 87.1001 37.1892 87.3146C37.1892 87.5291 37.1892 87.7436 37.1875 87.958C37.1875 88.1275 37.1979 88.2763 37.3363 88.4112C37.9105 88.9751 39.0383 88.8886 39.3946 88.1794C39.9204 87.1382 39.9066 86.0381 39.4603 84.9692C39.2527 84.471 38.7235 84.3257 38.1008 84.4952C37.5058 84.6578 37.191 85.0245 37.191 85.5503Z" fill="#1E1A18"/>
<path fill-rule="evenodd" clip-rule="evenodd" d="M19.2252 88.3677C19.2262 88.1438 19.2271 87.9199 19.2271 87.6956H19.2271C19.2237 87.6956 19.2237 87.6956 19.2167 87.699C19.2167 87.4748 19.2186 87.2505 19.2205 87.0263C19.2248 86.5036 19.2292 85.9814 19.2098 85.4608C19.1614 84.212 18.4903 83.233 17.3763 82.9147C15.8992 82.4927 14.5362 82.8282 13.3081 83.7346C13.2216 83.8003 13.1352 83.8695 13.1525 84.0044C13.2424 84.7413 13.9931 85.1668 14.6711 84.8554C14.7317 84.8271 14.7919 84.7978 14.8521 84.7685C15.1151 84.6404 15.3781 84.5124 15.6709 84.4645C16.598 84.3123 17.1065 84.7655 17.0719 85.703C17.065 85.914 16.9958 85.9936 16.7813 86.0005C16.425 86.0109 16.0618 86.0282 15.7089 86.0801C14.851 86.2046 14.0242 86.4225 13.36 87.021C12.7615 87.5572 12.6335 88.2387 12.8238 88.9894C13.0037 89.6986 13.4776 90.131 14.1799 90.297C15.2073 90.5426 16.1586 90.3697 16.9854 89.6882C17.2068 89.5083 17.3521 89.4529 17.4525 89.7885C17.5632 90.1656 17.8468 90.297 18.217 90.2901C18.2446 90.2897 18.2723 90.2892 18.3 90.2887C18.4937 90.2853 18.6874 90.2819 18.8812 90.297C19.1545 90.3143 19.2375 90.2002 19.2306 89.9338C19.2209 89.4108 19.2231 88.8896 19.2252 88.3677ZM14.9962 88.7155C15.6465 89.1376 16.2346 88.9196 16.8123 88.5495C17.1388 88.394 17.1237 88.1299 17.1087 87.8661C17.1036 87.7777 17.0986 87.6893 17.1064 87.6051C17.1306 87.3595 17.0061 87.2557 16.7639 87.2661C16.3142 87.2868 15.8679 87.3318 15.4459 87.5117C14.8612 87.8265 14.7229 88.2036 14.9962 88.7155Z" fill="#1E1A18"/>
<path d="M16.8123 88.5496C17.1306 88.259 17.0441 87.875 17.0406 87.5152C17.0406 87.3111 16.8849 87.3249 16.7466 87.3284C16.2899 87.3353 15.8471 87.4218 15.4112 87.5602C15.3524 87.6051 15.2971 87.6051 15.2383 87.5567C15.7468 87.2661 16.3038 87.2142 16.8711 87.2212C16.9368 87.2212 17.0129 87.2419 17.0614 87.28C17.3104 87.4875 17.1236 88.4112 16.8123 88.5496Z" fill="#5B5655"/>
<path d="M15.2413 87.5564C15.3001 87.5564 15.3554 87.5599 15.4142 87.5599C14.8849 87.9369 14.8331 88.0788 14.9991 88.7153C14.6601 88.3347 14.7466 87.9231 15.2413 87.5564Z" fill="#75706F"/>
<path d="M2.62481 8.52716C2.54178 8.52716 2.45876 8.52716 2.37573 8.52716C2.38957 8.44413 2.41033 8.36457 2.52103 8.37841C2.60405 8.38879 2.61443 8.46143 2.62481 8.52716Z" fill="#F1F6F4"/>
<path fill-rule="evenodd" clip-rule="evenodd" d="M68.1578 97.5399C68.1576 97.4121 68.1574 97.2842 68.1574 97.156C68.1574 96.99 68.1565 96.8239 68.1555 96.6579C68.1533 96.2704 68.1512 95.883 68.1608 95.4956C68.1678 95.2223 68.064 95.1496 67.8011 95.1289C67.4171 95.1012 67.3098 95.2569 67.3479 95.6063C67.3613 95.7316 67.3588 95.857 67.3563 95.9823C67.355 96.0507 67.3536 96.1191 67.3548 96.1874C67.3617 96.3777 67.3306 96.4538 67.0954 96.3881C66.4277 96.2013 65.9296 96.4849 65.7012 97.1353C65.5663 97.5262 65.5698 97.924 65.6736 98.3184C65.8742 99.0864 66.4658 99.3458 67.1611 98.9618C67.173 98.9553 67.1845 98.9487 67.1956 98.9424C67.3073 98.8786 67.3831 98.8354 67.4932 98.9895C67.6246 99.1763 67.8495 99.1314 68.0294 99.0829C68.1807 99.0424 68.1695 98.9111 68.159 98.788C68.1561 98.7535 68.1532 98.7196 68.1539 98.6886C68.1591 98.3047 68.1585 97.9228 68.1578 97.5399ZM67.3602 97.799V97.6745C67.3567 97.5949 67.3533 97.5119 67.3602 97.4254C67.3775 97.166 67.3222 96.9584 67.0108 96.9273C66.7064 96.8961 66.5473 97.0656 66.4815 97.332C66.4435 97.4877 66.4262 97.6572 66.4366 97.8198C66.438 97.8421 66.4394 97.8647 66.4407 97.8873C66.4577 98.1814 66.4759 98.4953 66.8967 98.5082C67.2391 98.5186 67.3602 98.3179 67.3602 97.799Z" fill="#201C19"/>
<path fill-rule="evenodd" clip-rule="evenodd" d="M8.80883 97.7581C8.80939 97.8882 8.80996 98.0186 8.80996 98.1491C8.81076 98.2578 8.81211 98.3665 8.81346 98.4751C8.81797 98.8368 8.82246 99.198 8.8065 99.5571C8.79266 99.8581 8.85147 99.9999 9.20779 99.9999C9.56064 99.9999 9.64021 99.8546 9.61253 99.5571C9.60907 99.5156 9.60994 99.4741 9.6108 99.4326C9.61167 99.3911 9.61253 99.3495 9.60907 99.308C9.58832 99.059 9.65404 99.0071 9.9135 99.0866C10.467 99.2561 10.9582 99.0105 11.2004 98.4743C11.4114 98.0004 11.4149 97.5092 11.2523 97.0214C11.0274 96.3503 10.4566 96.1289 9.83739 96.4783C9.83316 96.4807 9.82898 96.483 9.82484 96.4854C9.67308 96.5713 9.57745 96.6255 9.43264 96.4437C9.31503 96.2949 9.09363 96.3261 8.92758 96.3814C8.78152 96.4319 8.79447 96.5577 8.80681 96.6777C8.81054 96.714 8.81422 96.7497 8.81342 96.7827C8.80601 97.1087 8.80742 97.433 8.80883 97.7581ZM9.60878 97.6428C9.60839 97.6797 9.608 97.7167 9.608 97.7537C9.608 97.7845 9.60838 97.8156 9.60876 97.8471C9.60953 97.9113 9.61032 97.977 9.608 98.0443C9.59763 98.283 9.63222 98.4906 9.92281 98.5321C10.2169 98.5771 10.3933 98.4387 10.4798 98.1654C10.5663 97.8956 10.549 97.6223 10.504 97.349C10.4625 97.1068 10.3345 96.9269 10.0646 96.9512C9.78789 96.9754 9.59417 97.1068 9.608 97.4251C9.61031 97.4965 9.60954 97.5694 9.60878 97.6428Z" fill="#211B19"/>
<path fill-rule="evenodd" clip-rule="evenodd" d="M42.5423 4.09825C42.9712 3.78345 43.0335 3.36486 42.8709 2.88747C42.7118 2.6038 42.4627 2.45159 42.1514 2.38586C41.846 2.32574 41.5389 2.33416 41.2325 2.34255C41.0981 2.34624 40.9639 2.34992 40.8299 2.34781C40.6846 2.34781 40.6016 2.44467 40.6016 2.58996C40.6009 2.68135 40.6002 2.77273 40.5994 2.86411C40.5929 3.68597 40.5864 4.50755 40.605 5.32633C40.6105 5.59973 40.7975 5.59007 40.9764 5.58083C41.0239 5.57838 41.0708 5.57596 41.1136 5.57886C41.3211 5.5927 41.4111 5.49583 41.3903 5.27789C41.373 5.08763 41.3869 4.8939 41.4041 4.70018C41.4318 4.35424 41.5771 4.375 41.7951 4.54451C41.8341 4.60998 41.8751 4.67416 41.916 4.73814C42.009 4.88374 42.1014 5.02827 42.1687 5.18449C42.314 5.53043 42.5803 5.58232 42.9055 5.56502C43.1407 5.55464 43.2065 5.47854 43.0716 5.26752C43.003 5.16209 42.9362 5.05526 42.8695 4.9484C42.7545 4.76424 42.6394 4.57999 42.5146 4.40267C42.4247 4.27468 42.4074 4.19511 42.5423 4.09825ZM41.3707 3.22284C41.3729 3.27938 41.3752 3.33621 41.3643 3.38633C41.3761 3.43823 41.3736 3.49852 41.371 3.55874C41.3639 3.72733 41.3568 3.8954 41.6652 3.87756C41.9731 3.8568 42.2083 3.75648 42.2256 3.40017C42.2395 3.08536 42.0146 2.90894 41.641 2.90894C41.3582 2.90894 41.3644 3.06473 41.3707 3.22284Z" fill="#211C1A"/>
<path fill-rule="evenodd" clip-rule="evenodd" d="M56.8873 5.0294C57.0672 4.70768 57.1122 4.35483 57.126 3.97775L57.1257 3.97209C57.1016 3.57599 57.0764 3.16308 56.8354 2.80157C56.3926 2.15466 55.4136 2.15466 55.0331 2.83962C54.6318 3.56263 54.6283 4.33753 55.0227 5.06054C55.4274 5.8043 56.4722 5.76625 56.8873 5.0294ZM56.2979 4.76011C56.4051 4.51795 56.4155 4.25504 56.4189 3.99213C56.4189 3.71538 56.4086 3.44209 56.3082 3.17917C56.2425 3.01658 56.1387 2.88513 55.9485 2.88167C55.7582 2.87821 55.6302 2.99237 55.5783 3.16188C55.4088 3.70154 55.4053 4.24466 55.5887 4.78087C55.6406 4.93308 55.7547 5.0334 55.9277 5.03686C56.1214 5.04032 56.2287 4.91924 56.2979 4.76011Z" fill="#211C1A"/>
<path d="M6.99846 98.6131C6.80474 98.6062 6.65944 98.5405 6.6802 98.3571C6.71479 98.0561 6.97425 98.0423 7.20602 98.0112C7.36516 97.9904 7.48278 98.0388 7.46894 98.2257C7.44126 98.5266 7.21294 98.5785 6.99846 98.6131Z" fill="#DCD8D6"/>
<path fill-rule="evenodd" clip-rule="evenodd" d="M64.2889 97.8816C64.3396 97.8824 64.3903 97.8832 64.4411 97.8832C64.6348 97.8797 64.8285 97.8797 65.0257 97.8832C65.2091 97.8832 65.299 97.8001 65.3198 97.6133C65.382 97.0322 64.9807 96.4752 64.4065 96.3576C63.7769 96.2296 63.1715 96.5236 62.9259 97.0771C62.6491 97.6964 62.8325 98.5093 63.3341 98.8829C63.8253 99.2496 64.6729 99.2323 65.1191 98.8587C65.2748 98.7307 65.2713 98.6269 65.1502 98.4816C64.9842 98.2845 64.8182 98.3467 64.6313 98.4298C64.3546 98.5543 64.0709 98.6027 63.8184 98.3744C63.7008 98.2706 63.5935 98.1357 63.6523 97.9766C63.6919 97.8685 63.7957 97.8749 63.8949 97.881C63.9259 97.8829 63.9564 97.8848 63.9844 97.8832C64.0859 97.8786 64.1874 97.8801 64.2889 97.8816ZM63.9043 97.4113C63.9771 97.4033 64.0512 97.3951 64.1019 97.4328C64.1577 97.4036 64.2298 97.4082 64.2996 97.4125C64.4288 97.4207 64.5504 97.4283 64.5482 97.2217C64.5482 96.99 64.3371 96.8897 64.1088 96.8966C63.877 96.9035 63.6695 97.0211 63.666 97.239C63.666 97.4377 63.7833 97.4247 63.9043 97.4113Z" fill="#211D1C"/>
<path fill-rule="evenodd" clip-rule="evenodd" d="M17.5527 98.3083C17.5524 98.2345 17.552 98.1607 17.552 98.0869C17.552 97.9208 17.552 97.7582 17.5451 97.5887C17.5347 96.4471 16.6456 95.949 15.6389 96.5267C15.6222 96.5366 15.6045 96.5463 15.5865 96.5561C15.4605 96.6251 15.3236 96.7 15.4175 96.8969C15.5144 97.1044 15.6735 97.1771 15.8949 97.0906C15.9271 97.0778 15.959 97.0641 15.9909 97.0503C16.1238 96.9929 16.257 96.9355 16.4104 96.9522C16.6249 96.973 16.7286 97.101 16.7494 97.3051C16.7734 97.515 16.6414 97.5221 16.509 97.5293C16.4886 97.5304 16.4683 97.5315 16.4484 97.5334C16.1302 97.5645 15.8188 97.6233 15.549 97.8101C15.2688 98.0004 15.1615 98.2702 15.2377 98.6023C15.3172 98.9448 15.5594 99.1039 15.8915 99.142C16.1163 99.1662 16.3377 99.1385 16.5315 99.0209C16.7079 98.9137 16.8151 98.8583 17.0192 99.0313C17.2856 99.2596 17.5451 99.1005 17.552 98.7511C17.5543 98.6035 17.5535 98.4559 17.5527 98.3083ZM15.9897 98.3775C15.9794 98.5678 16.1419 98.6093 16.353 98.6093C16.5398 98.5643 16.7646 98.5089 16.775 98.2045C16.7819 98.0385 16.6712 97.9935 16.5329 98.0142C16.5097 98.0173 16.486 98.02 16.4623 98.0227C16.2415 98.0479 16.0085 98.0745 15.9897 98.3775Z" fill="#211C1A"/>
<path fill-rule="evenodd" clip-rule="evenodd" d="M29.3868 97.882C29.4375 97.8824 29.4884 97.8828 29.5392 97.8828C29.7468 97.8793 29.9544 97.8793 30.1585 97.8793C30.3487 97.8759 30.4179 97.7721 30.4352 97.5922C30.4906 96.9834 30.0685 96.4368 29.4666 96.3434C28.8335 96.2465 28.2766 96.5371 28.0379 97.0871C27.768 97.7064 27.9583 98.5263 28.4565 98.8929C28.9269 99.2389 29.7676 99.232 30.2104 98.8756C30.2153 98.8718 30.2203 98.8679 30.2253 98.864C30.3187 98.7912 30.4199 98.7124 30.328 98.5712C30.3263 98.5686 30.3245 98.5661 30.3228 98.5635C30.2412 98.4409 30.1512 98.3058 29.9717 98.3498C29.9079 98.3648 29.8462 98.392 29.7843 98.4193C29.732 98.4423 29.6796 98.4654 29.6257 98.4813C29.3628 98.5574 29.1034 98.5643 28.8993 98.3394C28.8162 98.2495 28.7332 98.1353 28.7713 98.0039C28.8106 97.8719 28.916 97.8767 29.0173 97.8813C29.0407 97.8824 29.0639 97.8835 29.0861 97.8828C29.1851 97.8805 29.2857 97.8813 29.3868 97.882ZM29.6912 97.2473C29.6843 97.0121 29.4975 96.9014 29.2726 96.8806C29.0201 96.891 28.7952 96.9913 28.7814 97.2404C28.767 97.4483 28.8963 97.435 29.0255 97.4217C29.0833 97.4158 29.1412 97.4099 29.1861 97.4238C29.2242 97.4341 29.2726 97.4341 29.3106 97.4238C29.3505 97.415 29.3982 97.418 29.4461 97.421C29.5691 97.4287 29.6937 97.4365 29.6912 97.2473Z" fill="#211C1A"/>
<path fill-rule="evenodd" clip-rule="evenodd" d="M41.3113 96.4126C40.7371 96.1878 40.1732 96.3711 39.7166 96.9316C39.4018 97.876 39.5125 98.4087 40.1317 98.9414C40.6852 99.2701 41.2352 99.2044 41.7749 98.8999C41.8787 98.8411 42.0136 98.7616 41.9375 98.6093C41.8648 98.4606 41.7645 98.3084 41.5604 98.3534C41.4945 98.3669 41.4307 98.3946 41.3667 98.4225C41.3165 98.4443 41.2662 98.4662 41.2145 98.4814C40.917 98.5713 40.6299 98.5644 40.443 98.2738C40.3081 98.0628 40.2874 97.876 40.6368 97.8829C40.8765 97.8852 41.1147 97.8844 41.3534 97.8836C41.4729 97.8833 41.5926 97.8829 41.7126 97.8829C41.9029 97.8829 42.0205 97.8206 42.0378 97.6027C42.0793 97.1045 41.7784 96.596 41.3113 96.4126ZM40.6208 97.4231C40.6881 97.4183 40.7569 97.4134 40.8094 97.439C40.8675 97.4067 40.9439 97.4154 41.0184 97.4238C41.1437 97.438 41.2638 97.4517 41.2834 97.2695C41.3076 97.017 41.0896 96.8855 40.8406 96.8855C40.5949 96.8855 40.3735 97.01 40.377 97.2591C40.3792 97.4405 40.4974 97.432 40.6208 97.4231Z" fill="#211D1A"/>
<path fill-rule="evenodd" clip-rule="evenodd" d="M51.0503 3.54051C50.9964 3.5404 50.9358 3.54028 50.8774 3.44852C50.9644 3.3412 51.0534 3.23281 51.1434 3.12335C51.2825 2.95408 51.4237 2.78226 51.5624 2.60789L51.563 2.60709C51.6322 2.52064 51.7312 2.39681 51.5278 2.37611C51.503 2.37363 51.4778 2.37079 51.4523 2.36792C51.2293 2.34275 50.987 2.31542 50.8255 2.51103C50.7815 2.56527 50.7371 2.61936 50.6927 2.67349C50.3604 3.07855 50.0264 3.48568 49.8188 3.97088C49.6113 4.4552 49.7289 5.00524 50.0679 5.30966C50.4208 5.63138 51.0123 5.68673 51.4621 5.44112C51.8703 5.21972 52.0986 4.73541 52.0052 4.28569C51.9152 3.84289 51.6073 3.59381 51.0884 3.54192C51.0762 3.54057 51.0635 3.54054 51.0503 3.54051ZM51.3343 4.51381C51.3343 4.20247 51.1406 4.05372 50.8396 4.03296C50.5144 4.05717 50.376 4.25782 50.376 4.54841C50.3726 4.84937 50.5179 5.05694 50.843 5.05002C51.1751 5.0431 51.3343 4.82862 51.3343 4.51381Z" fill="#221D1B"/>
<path fill-rule="evenodd" clip-rule="evenodd" d="M54.2594 3.52832C54.2598 3.46375 54.2602 3.39917 54.2602 3.3346C54.2602 3.28045 54.2611 3.2263 54.262 3.17234C54.2642 3.04704 54.2664 2.92276 54.2567 2.80185C54.2542 2.76498 54.258 2.72405 54.2618 2.6826C54.2738 2.55293 54.2862 2.41818 54.1079 2.38673C54.0933 2.38411 54.0784 2.38134 54.0634 2.37854C53.8792 2.34421 53.6675 2.30476 53.5268 2.48705C53.0805 3.06822 52.6377 3.6494 52.2191 4.25133C52.0254 4.52808 52.1915 4.80829 52.527 4.82905C52.7588 4.84288 52.994 4.84634 53.2293 4.82905C53.5268 4.80829 53.717 4.87402 53.6651 5.23033C53.6375 5.43444 53.6894 5.56935 53.9488 5.56935C54.1875 5.56935 54.274 5.47941 54.2602 5.25109C54.2498 5.06082 54.2429 4.89477 54.485 4.78061C54.6614 4.69759 54.6684 4.42776 54.4677 4.34819C54.2569 4.26387 54.2585 4.12711 54.2601 3.98129C54.2604 3.9596 54.2606 3.93772 54.2602 3.91577C54.2579 3.78662 54.2586 3.65747 54.2594 3.52832ZM53.6778 3.58511C53.6782 3.48212 53.6787 3.37042 53.6787 3.24487C53.4615 3.40711 53.3492 3.57726 53.2475 3.73137C53.2147 3.781 53.1831 3.82897 53.1494 3.87448C53.1277 3.9031 53.0999 3.93171 53.0716 3.96087C52.9871 4.04805 52.8978 4.14009 52.9522 4.25155C53.0082 4.37283 53.1239 4.35731 53.24 4.34175C53.2961 4.33422 53.3523 4.32669 53.4019 4.33458C53.5818 4.36571 53.6821 4.27923 53.6787 4.08204C53.6764 3.92468 53.6771 3.76874 53.6778 3.58511Z" fill="#221E1D"/>
<path d="M49.2724 56.6815C49.2654 56.8129 49.2032 56.9167 49.1202 57.017C48.9022 57.4702 48.6358 57.8957 48.4006 58.3385C48.3245 58.5184 48.193 58.6637 48.11 58.8401C48.0028 58.9785 47.8921 59.1169 47.7848 59.2552C46.7955 60.549 45.5535 61.5453 44.1456 62.3444C44.0487 62.3998 43.9622 62.4655 43.8757 62.5347C43.1216 62.9983 42.2844 63.2785 41.4542 63.5656C41.1844 63.659 40.918 63.7697 40.6343 63.8112C39.2782 64.1468 37.9118 64.4166 36.5211 64.5654C34.8952 64.7383 33.2693 64.8041 31.6365 64.8006C27.807 64.7937 23.974 64.7902 20.1444 64.8041C19.3695 64.8075 18.6638 64.6726 18.0757 64.1364C17.6537 63.7282 17.4842 63.2197 17.4842 62.6454C17.4842 53.4539 17.4842 44.2589 17.4842 35.0673C17.4842 34.9012 17.4738 34.7352 17.5188 34.5726C17.5914 34.2336 17.6675 33.8946 17.8682 33.604C18.2764 33.1612 18.7053 32.7495 19.3488 32.6872C24.2127 32.6872 29.0731 32.6457 33.9335 32.7115C35.5352 32.7322 37.1438 32.9329 38.7247 33.2546C39.3301 33.3791 39.939 33.5037 40.534 33.6801C40.7623 33.7735 40.9975 33.8531 41.2259 33.943C41.5026 34.0156 41.7621 34.1471 42.0492 34.1955C42.2187 34.2543 42.3813 34.3443 42.5681 34.3477C42.7826 34.3685 42.9417 34.5173 43.132 34.5968H43.1354C43.4779 34.7214 43.7996 34.8909 44.1248 35.0569C44.2113 35.1642 44.3808 35.1469 44.4569 35.2679C44.6437 35.3544 44.7994 35.4893 44.9827 35.5793C45.7161 36.0498 46.3976 36.5825 46.9753 37.2398C47.2175 37.5996 47.5012 37.9213 47.7848 38.2499C47.944 38.5716 48.2276 38.8138 48.3625 39.1494C48.7085 39.5714 48.7915 40.1491 49.1963 40.5366C49.2793 40.668 49.3589 40.7995 49.3589 40.9621C49.4903 41.4395 49.6875 41.8926 49.8501 42.3597C50.1441 43.1968 50.2306 44.0755 50.3794 44.9438C50.67 46.6354 50.7011 48.3478 50.6284 50.0568C50.58 51.1949 50.4728 52.3296 50.2202 53.4504C50.0957 54.0143 49.9193 54.5678 49.8293 55.1386C49.6148 55.6367 49.4661 56.1695 49.2724 56.6815Z" fill="#FEFEFE"/>
<path d="M64.2067 70.4571C64.2067 70.5125 64.2067 70.5678 64.2067 70.6232C64.1514 70.6716 64.096 70.6716 64.0407 70.6232C64.0407 51.2645 64.0407 31.9059 64.0476 12.5472C64.0476 12.3708 63.9023 12.1148 64.2067 12.0179C64.3209 12.1632 64.2897 12.3362 64.2897 12.4988C64.2897 31.6603 64.2897 50.8217 64.2897 69.9797C64.2897 70.1389 64.3243 70.3118 64.2067 70.4571Z" fill="#25A432"/>
<path d="M1.09393 12.0762C1.09393 31.5144 1.09393 50.9526 1.09393 70.3908C1.06971 70.3908 1.04204 70.3908 1.01782 70.3908C1.01782 50.9526 1.01782 31.5144 1.01782 12.0762C1.04204 12.0796 1.06971 12.0796 1.09393 12.0762Z" fill="#19AA36"/>
<path d="M64.2063 70.4564C64.2063 50.9767 64.2063 31.4935 64.2063 12.0138C64.3205 12.0311 64.3723 12.1003 64.3723 12.2144C64.3723 12.3251 64.3723 12.4358 64.3723 12.5465C64.3723 31.6734 64.3723 50.8003 64.3654 69.9272C64.3654 70.1001 64.5107 70.3561 64.2063 70.4564Z" fill="#1FA735"/>
<path d="M34.4413 32.2129C33.9708 32.1679 33.566 32.4343 33.1059 32.4343C28.8509 32.4309 24.5959 32.4343 20.3409 32.4343C20.244 32.4343 20.1471 32.4343 20.0503 32.4274C19.9569 32.4205 19.8981 32.3651 19.9015 32.2683C19.9015 32.1679 19.9603 32.116 20.0537 32.1091C20.1506 32.1022 20.2474 32.1022 20.3443 32.1022C24.9038 32.1022 29.4632 32.1022 34.0227 32.1057C34.1645 32.1057 34.3167 32.0642 34.4413 32.2129Z" fill="#1EA63D"/>
<path d="M47.6149 17.3315C47.6668 17.3281 47.7187 17.3211 47.774 17.3177C47.9331 17.1793 48.1303 17.1828 48.3241 17.1828C51.0431 17.1793 53.7622 17.1793 56.4813 17.1828C56.6854 17.1828 56.8999 17.1724 57.0624 17.3419L57.0555 17.3488C57.1662 17.4422 57.1524 17.5702 57.1524 17.6948C57.1524 20.694 57.1628 23.6933 57.1489 26.696C57.1489 26.7237 57.142 26.7514 57.1351 26.7791C56.8653 27.087 56.4882 27.0351 56.1492 27.0385C53.7345 27.0524 51.3233 27.0454 48.9087 27.0454C48.5627 27.0454 48.2203 27.0489 47.8743 27.042C47.6045 27.0385 47.4627 26.9209 47.5284 26.6303C47.6564 26.5335 47.7809 26.6442 47.9089 26.6372C50.2717 26.6684 52.631 26.6407 54.9937 26.6511C55.5057 26.6545 56.0143 26.6407 56.5262 26.658C56.6888 26.6787 56.8549 26.7064 56.8653 26.4608C56.8756 23.7798 56.8687 21.1022 56.8687 18.4247C56.8653 18.3486 56.8653 18.2759 56.8687 18.1998C56.8791 18.0545 56.8583 17.9162 56.7961 17.7812C56.7234 17.6152 56.5643 17.6429 56.4363 17.6429C53.6134 17.6429 50.7871 17.6152 47.9643 17.6567C47.8051 17.6256 47.7636 17.9265 47.5699 17.7951C47.5146 17.6325 47.4903 17.4734 47.6149 17.3315Z" fill="#D2B300"/>
<path d="M47.6148 17.3311C47.6114 17.4936 47.6079 17.6597 47.6045 17.8223C47.7601 17.9607 47.7255 18.1544 47.7255 18.3274C47.7255 20.9253 47.729 23.5233 47.7255 26.1179C47.7255 26.2943 47.7497 26.4811 47.601 26.6229C47.5076 27 47.7809 26.9308 47.9815 26.9308C49.8427 26.9343 51.7004 26.9377 53.5615 26.9308C54.6339 26.9274 55.7063 26.9689 56.7822 26.9031C56.8998 26.8962 56.9967 26.8858 57.0728 26.7924C57.1281 26.7405 57.097 26.6575 57.1454 26.6022C57.18 26.5883 57.2111 26.5953 57.2354 26.6229C57.263 26.872 57.1039 26.9896 56.8998 27.0173C56.6438 27.0554 56.3913 27.1245 56.1249 27.1245C53.43 27.1176 50.7317 27.1211 48.0369 27.1176C47.473 27.1176 47.3554 26.9758 47.4349 26.4327C47.4522 26.3254 47.4384 26.2113 47.4384 26.1006C47.4384 23.3192 47.4349 20.5414 47.4453 17.76C47.4453 17.6147 47.3346 17.3829 47.6148 17.3311Z" fill="#34A834"/>
<path d="M57.0598 17.341C54.1297 17.3375 51.1996 17.3375 48.2695 17.3341C48.1035 17.3341 47.9374 17.3237 47.7749 17.3168C47.7299 16.9674 47.9651 16.995 48.1934 16.995C50.8122 16.9985 53.4344 16.995 56.0531 16.995C56.2884 16.995 56.5236 17.0089 56.7554 16.9916C57.0252 16.9743 57.1013 17.0988 57.0598 17.341Z" fill="#25A632"/>
<path d="M17.5767 34.4317C17.5733 43.6163 17.5733 52.7975 17.5629 61.9821C17.5629 62.7501 17.5767 63.4973 18.0749 64.1408C17.6148 63.9712 17.594 63.5319 17.4799 63.1548C17.4072 63.0095 17.4453 62.8539 17.4453 62.7051C17.4418 53.4824 17.4418 44.2597 17.4453 35.0371C17.4453 34.8883 17.4141 34.7326 17.4799 34.5873C17.466 34.532 17.3934 34.4766 17.4764 34.4213C17.5075 34.3971 17.5456 34.4005 17.5767 34.4317Z" fill="#58AD66"/>
<path d="M17.4768 34.5863C17.4768 40.7924 17.4802 46.9985 17.4802 53.2012C17.4802 56.5187 17.4802 59.8363 17.4802 63.1503C17.3592 63.0224 17.4041 62.8632 17.4041 62.7145C17.4007 53.4814 17.4007 44.2518 17.4007 35.0187C17.4007 34.8769 17.3592 34.7178 17.4768 34.5863Z" fill="#43AE62"/>
<path d="M40.6344 33.7664C38.8078 33.2475 36.9398 32.9465 35.0475 32.8669C29.8446 32.649 24.6348 32.8012 19.4319 32.777C19.3627 32.777 19.2935 32.7701 19.2278 32.7666C19.2866 32.5314 19.4769 32.649 19.5979 32.6455C21.1166 32.6351 22.6353 32.6386 24.1539 32.6386C27.4542 32.6386 30.751 32.6386 34.0512 32.6421C34.2 32.6421 34.3556 32.6005 34.4975 32.6836C35.729 32.7943 36.9674 32.8635 38.1886 33.0883C39.0396 33.2475 39.8872 33.4239 40.7278 33.6418C40.7901 33.6591 40.8419 33.7145 40.8973 33.7525C40.8074 33.8321 40.7209 33.8148 40.6344 33.7664Z" fill="#6AC27D"/>
<path d="M49.7564 55.1658C49.8117 54.5778 50.0193 54.0173 50.1369 53.4431C50.3064 52.6336 50.4067 51.8241 50.5001 51.0111C50.6281 49.9284 50.6316 48.8317 50.5763 47.7455C50.4794 45.7633 50.2372 43.7983 49.5765 41.9095C49.4589 41.5774 49.2651 41.2695 49.2686 40.8994C49.4208 40.8683 49.362 41.0274 49.4277 41.0758C49.5661 41.3699 49.6872 41.6708 49.7598 41.9891C49.9051 42.1275 49.8498 42.3281 49.9224 42.4907C50.0677 42.6602 50.0089 42.8851 50.0919 43.0719V43.0684C50.2269 43.3037 50.1819 43.5735 50.258 43.8226C50.6212 45.7702 50.7596 47.7351 50.6939 49.7173C50.6351 51.53 50.4067 53.3185 49.9086 55.0655C49.8809 55.1693 49.8186 55.2627 49.7702 55.3596C49.7079 55.2973 49.7218 55.2316 49.7564 55.1658Z" fill="#D4F3D9"/>
<path d="M46.9812 26.56C46.9812 23.5019 46.9812 20.4472 46.9812 17.3892C47.0089 17.3892 47.0331 17.3892 47.0608 17.3892C47.0608 20.4472 47.0608 23.5019 47.0608 26.56C47.0366 26.56 47.0089 26.56 46.9812 26.56Z" fill="#15AC31"/>
<path d="M46.7405 17.3892C46.7405 20.4472 46.7405 23.5019 46.7405 26.56C46.7128 26.56 46.6886 26.56 46.6609 26.56C46.6609 23.5053 46.6609 20.4472 46.6609 17.3926C46.6886 17.3926 46.7162 17.3892 46.7405 17.3892Z" fill="#26A23C"/>
<path d="M34.4938 32.6873C29.63 32.6838 24.7661 32.6769 19.9022 32.6769C19.6773 32.6769 19.4317 32.6008 19.2242 32.7668C18.688 32.8845 18.304 33.2442 17.9234 33.6075C17.8819 33.6386 17.8439 33.6351 17.8127 33.5936C18.2901 32.8568 18.9682 32.5835 19.8399 32.5869C24.5654 32.6077 29.2944 32.5973 34.0234 32.6042C34.1825 32.6077 34.3589 32.5454 34.4938 32.6873Z" fill="#3CA94F"/>
<path d="M57.1555 26.6232C57.1278 26.6786 57.1001 26.7374 57.0725 26.7927C57.0725 23.8246 57.069 20.853 57.069 17.8848C57.069 17.705 57.0586 17.5251 57.0552 17.3452C57.0863 17.3383 57.1174 17.3348 57.1486 17.3279C57.2212 17.4282 57.1901 17.5424 57.1901 17.6496C57.1901 20.5313 57.1901 23.4164 57.1901 26.298C57.1935 26.4087 57.2178 26.5229 57.1555 26.6232Z" fill="#47BA3F"/>
<path d="M57.1566 26.6232C57.1531 23.5236 57.1531 20.4275 57.1497 17.3279C57.2881 17.449 57.2362 17.6115 57.2362 17.7568C57.2396 20.7146 57.2396 23.6689 57.2362 26.6267C57.2085 26.6232 57.1808 26.6232 57.1566 26.6232Z" fill="#2FA327"/>
<path d="M43.8723 62.4836C44.0349 62.2449 44.3082 62.1549 44.54 62.02C45.6089 61.3973 46.5222 60.5982 47.3317 59.6676C47.4666 59.5154 47.5842 59.3355 47.7849 59.256C47.7053 59.5639 47.3974 59.7161 47.2763 59.9963C47.0826 60.2488 46.8751 60.4841 46.6018 60.657C45.8338 61.387 44.9655 61.975 44.0418 62.4905C43.983 62.5355 43.9277 62.5355 43.8723 62.4836Z" fill="#D2F0DA"/>
<path d="M43.8712 62.4823C43.9266 62.4858 43.9854 62.4858 44.0407 62.4892C43.252 63.0635 42.3249 63.3299 41.4255 63.6481C41.1729 63.7381 40.9273 63.8937 40.6367 63.8176C41.3701 63.5409 42.107 63.278 42.8334 62.9874C43.1863 62.8386 43.5253 62.6484 43.8712 62.4823Z" fill="#6ABD7C"/>
<path d="M46.937 37.2673C46.3489 36.6204 45.6363 36.1257 44.9479 35.5964C44.9202 35.5757 44.9098 35.5549 44.9202 35.5341C44.9306 35.5134 44.941 35.5065 44.9513 35.5065C45.4979 35.7763 45.9788 36.1395 46.3939 36.5789C46.6049 36.8003 46.9716 36.8833 47.0269 37.25C47.0027 37.288 46.9716 37.295 46.937 37.2673Z" fill="#45B15C"/>
<path d="M64.0404 70.6223C64.0958 70.6223 64.1511 70.6223 64.2065 70.6223C64.293 70.8921 64.0231 71.2346 64.3725 71.4526C64.3241 71.7535 64.2791 72.0545 64.0404 72.2794C63.9436 71.7259 64.0923 71.1758 64.0404 70.6223Z" fill="#1FA735"/>
<path d="M49.4314 41.072C49.3795 41.0132 49.3241 40.9544 49.2723 40.8956C49.255 40.7676 49.1927 40.6638 49.1097 40.5669C48.8502 40.138 48.6565 39.6675 48.3728 39.2489C48.3659 39.1832 48.3832 39.1244 48.4282 39.0759C48.9263 39.6606 49.2861 40.3144 49.4314 41.072Z" fill="#4BB060"/>
<path d="M49.757 55.1667C49.7605 55.229 49.7674 55.2947 49.7709 55.357C49.6878 55.831 49.5183 56.2703 49.2727 56.682C49.3384 56.1458 49.5425 55.6545 49.757 55.1667Z" fill="#D3F8DC"/>
<path d="M48.3557 58.3355C48.5702 57.8719 48.7985 57.4153 49.1202 57.0175C49.0061 57.5156 48.7224 57.9273 48.4457 58.3424C48.4145 58.3839 48.3834 58.3804 48.3557 58.3355Z" fill="#C8EDD2"/>
<path d="M43.1277 34.5937C42.9097 34.6249 42.7575 34.4415 42.5569 34.4208C42.4185 34.362 42.2698 34.3447 42.1314 34.2858C42.0899 34.2132 41.9307 34.2409 41.9653 34.0956C42.3943 34.1578 42.8163 34.2409 43.1277 34.5937Z" fill="#59B168"/>
<path d="M46.9365 37.2671C46.9677 37.2637 46.9953 37.2568 47.0265 37.2533C47.2582 37.5992 47.6249 37.8414 47.7771 38.2427C47.3759 38.0213 47.1821 37.62 46.9365 37.2671Z" fill="#BCEAC4"/>
<path d="M44.1069 35.0987C43.7714 34.9499 43.4185 34.8289 43.1279 34.5936C43.5604 34.6005 43.8925 34.8392 44.2211 35.0779C44.1934 35.1298 44.1554 35.1367 44.1069 35.0987Z" fill="#4BAF61"/>
<path d="M48.4314 39.0799C48.4349 39.1353 48.4383 39.1906 48.4418 39.2425C48.3449 39.2944 48.3173 39.2114 48.2792 39.156C48.2204 38.7928 47.7776 38.6406 47.7776 38.2462C48.0889 38.4503 48.1858 38.8239 48.4314 39.0799Z" fill="#BBF1BE"/>
<path d="M17.8129 33.5966C17.851 33.6 17.8856 33.6035 17.9236 33.6104C17.8095 33.8837 17.6919 34.157 17.5777 34.4303C17.5431 34.4268 17.5085 34.4233 17.4705 34.4199C17.5742 34.1397 17.55 33.8076 17.8129 33.5966Z" fill="#43AE62"/>
<path d="M41.9622 34.0978C42.0245 34.1463 42.0902 34.1982 42.1525 34.2466C42.1248 34.2985 42.0833 34.3054 42.0384 34.2708C41.7651 34.1878 41.4918 34.1013 41.2185 34.0183C41.1977 33.9352 41.215 33.8903 41.3119 33.9214C41.5506 33.8972 41.7374 34.0667 41.9622 34.0978Z" fill="#C1EDC7"/>
<path d="M46.6018 60.6528C46.8163 60.421 47.0135 60.1719 47.2764 59.9921C47.1484 60.3138 46.9408 60.549 46.6018 60.6528Z" fill="#46AA5C"/>
<path d="M49.763 41.9865C49.6108 41.6959 49.4932 41.395 49.4309 41.0732C49.6592 41.3327 49.7699 41.6371 49.763 41.9865Z" fill="#4BB060"/>
<path d="M41.3116 33.9217C41.2804 33.9528 41.2493 33.9874 41.2182 34.0185C41.0418 33.894 40.7823 33.9528 40.6335 33.766C40.72 33.7625 40.8065 33.7591 40.8895 33.7556C41.0418 33.7833 41.1905 33.8179 41.3116 33.9217Z" fill="#B3E7BE"/>
<path d="M50.2583 43.8164C50.1406 43.5777 50.0887 43.3286 50.0922 43.0623C50.3413 43.2733 50.2583 43.5535 50.2583 43.8164Z" fill="#4DAA5C"/>
<path d="M50.0921 43.0695C49.9537 42.8999 49.9261 42.6958 49.9226 42.4883C50.189 42.6197 50.0817 42.8619 50.0921 43.0695Z" fill="#4DAA5C"/>
<path d="M44.9514 35.5102C44.9514 35.5413 44.9479 35.569 44.9479 35.6001C44.7438 35.5413 44.5674 35.4479 44.4463 35.268C44.6677 35.2404 44.7853 35.4272 44.9514 35.5102Z" fill="#5CB76E"/>
<path d="M49.9259 42.4877C49.829 42.3355 49.7391 42.1798 49.7633 41.9861C50.0608 42.0726 49.8947 42.3113 49.9259 42.4877Z" fill="#4DAA5C"/>
<path d="M48.3552 58.3348C48.3864 58.3383 48.4175 58.3383 48.4486 58.3418C48.3898 58.5424 48.3068 58.7292 48.1131 58.8399C48.0992 58.6254 48.2757 58.5043 48.3552 58.3348Z" fill="#A3DEAA"/>
<path d="M44.1064 35.0982C44.1445 35.0913 44.1826 35.0844 44.2206 35.074C44.3278 35.0982 44.4558 35.0982 44.4455 35.2642C44.3002 35.2781 44.1998 35.1985 44.1064 35.0982Z" fill="#5CB76E"/>
<path d="M41.7901 53.1842C41.5445 53.672 41.4857 54.2393 41.1467 54.689C40.9875 54.8966 40.8457 55.1111 40.7627 55.3636C40.7246 55.5608 40.5932 55.6992 40.4721 55.8479L40.4756 55.8548C40.2507 56.1074 40.0535 56.3911 39.7422 56.5502C38.8012 57.3078 37.6977 57.6849 36.5422 57.9789C35.6947 58.1934 34.8472 58.2937 33.9719 58.311C33.626 58.3179 33.2801 58.439 32.9168 58.4286C31.5296 58.3836 30.1493 58.2487 28.7587 58.3041C27.9872 58.3352 27.2158 58.273 26.4443 58.356C26.2091 58.3802 26.0949 58.3318 26.1192 58.0861C26.2679 57.8267 26.2887 57.5638 26.1365 57.2974C26.1295 57.2213 26.1434 57.1521 26.178 57.0864C26.2575 56.9169 26.2368 56.7335 26.2368 56.5536C26.2368 51.0429 26.2368 45.5286 26.2368 40.0178C26.2368 39.8276 26.2679 39.6269 26.1572 39.454C26.1365 39.1668 26.2956 39.1495 26.5135 39.2153C26.5793 39.2602 26.6138 39.326 26.6346 39.3986C26.7245 39.7065 26.9909 39.6096 27.1881 39.6131C28.4335 39.6235 29.6754 39.6304 30.9208 39.6131C31.4466 39.6062 31.9655 39.6961 32.4533 39.6684C32.2768 39.5543 31.8963 39.8968 31.8133 39.4194C31.9793 39.2533 32.1904 39.3156 32.3875 39.2983C32.6366 39.2775 32.903 39.3536 33.1313 39.1945C33.3562 39.1011 33.6052 39.0907 33.8266 39.1461C34.5877 39.3329 35.3868 39.2153 36.141 39.454C36.8052 39.665 37.5213 39.7099 38.1301 40.0939C38.2097 40.1458 38.3204 40.132 38.4103 40.1562C38.7528 40.1562 38.9742 40.4364 39.2717 40.5367C39.5761 40.7512 39.8667 40.983 40.1296 41.2494C40.5759 41.6887 40.9114 42.2042 41.1951 42.7577C41.8316 43.9892 42.0703 45.328 42.2087 46.6875C42.3609 48.1889 42.3194 49.6902 42.1949 51.1882C42.143 51.8558 42.0115 52.5338 41.7901 53.1842Z" fill="#1DA737"/>
<path d="M26.0168 58.5147C25.7678 58.4283 25.8646 58.2138 25.8612 58.0547C25.8542 56.3008 25.8577 54.5434 25.8577 52.7895C25.8577 48.3684 25.8577 43.9439 25.8577 39.5228C25.8577 38.9347 25.8854 38.9105 26.4596 38.9139C27.6739 38.9174 28.8916 38.9174 30.1058 38.9139C32.0638 38.9105 34.0184 38.9589 35.9591 39.253C36.689 39.3637 37.4224 39.5124 38.0762 39.8929C38.0416 39.9345 37.9967 39.9621 37.9448 39.9725C37.073 39.7373 36.2151 39.4225 35.3087 39.3429C34.3228 39.253 33.3403 39.1596 32.344 39.1838C30.5486 39.2322 28.7497 39.2011 26.9509 39.1976C26.0653 39.1976 26.0653 39.1907 26.0653 40.0901C26.0653 45.8154 26.0653 51.5407 26.0653 57.2659C26.0653 57.6672 26.0964 58.065 26.1345 58.4629C26.1172 58.5217 26.0791 58.539 26.0168 58.5147Z" fill="#CCF4D5"/>
<path d="M41.7894 53.1848C41.8966 52.2957 42.1215 51.4274 42.1734 50.5314C42.3048 48.1618 42.2771 45.8163 41.478 43.54C41.3742 43.2425 41.1701 42.9831 41.1321 42.6614C41.094 42.6164 41.1009 42.5818 41.1494 42.5507C41.5991 43.2495 41.8067 44.0278 41.9866 44.8304C42.329 46.3456 42.4086 47.8781 42.3775 49.4175C42.3532 50.6352 42.2287 51.8495 41.9623 53.0429C41.9381 53.1398 41.8828 53.1813 41.7894 53.1848Z" fill="#E0F4E0"/>
<path d="M26.0181 58.5144C26.0596 58.5041 26.0976 58.4971 26.1391 58.4868C26.409 58.3691 26.6996 58.3657 26.9867 58.3657C28.4465 58.3622 29.9099 58.3519 31.3697 58.3726C31.8644 58.3795 32.3626 58.4107 32.8503 58.3726C34.0473 58.2723 35.2546 58.2723 36.4308 57.954C36.9462 57.8122 37.4686 57.7119 37.9494 57.4697C38.0913 57.4005 38.2608 57.3659 38.4303 57.3902C38.4857 57.4178 38.4995 57.4593 38.4753 57.5147C37.7211 57.8537 36.9428 58.1097 36.1229 58.2273C35.4968 58.3207 34.8741 58.466 34.2479 58.4971C31.598 58.6286 28.9447 58.5905 26.2914 58.5871C26.198 58.5836 26.1011 58.5836 26.0181 58.5144Z" fill="#D7F5DD"/>
<path d="M48.2756 39.157C48.331 39.1847 48.3863 39.2158 48.4382 39.2435C48.6942 39.669 48.9917 40.0737 49.1059 40.5684C48.8914 40.4369 48.7496 40.2778 48.7184 40.0045C48.6838 39.6759 48.3033 39.5029 48.2756 39.157Z" fill="#E5FBE8"/>
<path d="M41.1462 42.5503C41.1393 42.5884 41.1358 42.623 41.1289 42.661C40.7968 42.1871 40.4647 41.7166 40.1326 41.2427C40.6688 41.5229 40.8763 42.0625 41.1462 42.5503Z" fill="#D9F3DE"/>
<path d="M37.97 39.9138C38.008 39.9069 38.0426 39.9 38.0807 39.8931C38.5131 40.0418 38.9213 40.2425 39.3087 40.4881C39.3468 40.5261 39.3433 40.5573 39.2984 40.5884C39.0009 40.54 38.8071 40.2563 38.4993 40.2286C38.3159 40.1352 38.0322 40.2113 37.97 39.9138Z" fill="#C0EBC9"/>
<path d="M39.8238 56.4355C40.0417 56.2417 40.2562 56.048 40.4741 55.8508C40.2873 56.3248 39.8895 56.5946 39.4882 56.8575C39.4778 56.8402 39.464 56.8229 39.4536 56.8091C39.5055 56.6119 39.6612 56.5219 39.8238 56.4355Z" fill="#B0E6B8"/>
<path d="M39.3027 40.5881C39.3062 40.5535 39.3097 40.5224 39.3131 40.4878C39.6072 40.7161 39.9877 40.851 40.1364 41.2419C39.8147 41.0759 39.5691 40.8164 39.3027 40.5881Z" fill="#D9F3DE"/>
<path d="M40.7241 55.3575C40.7449 55.06 40.8694 54.8248 41.1462 54.6864C41.1531 54.9701 40.9178 55.1327 40.8175 55.3644C40.7864 55.3956 40.7553 55.3956 40.7241 55.3575Z" fill="#3BAA50"/>
<path d="M40.7233 55.356C40.7544 55.3594 40.7855 55.3594 40.8167 55.3629C40.7752 55.5774 40.6991 55.7676 40.4673 55.8437C40.4777 55.6396 40.6679 55.5358 40.7233 55.356Z" fill="#8CDA9D"/>
<path d="M38.4779 57.5082C38.4744 57.4736 38.4744 57.439 38.4709 57.4044C38.5298 57.19 38.7442 57.2107 38.893 57.1277C38.9345 57.1346 38.9656 57.1588 38.9864 57.1969C38.8722 57.3906 38.6681 57.4356 38.4779 57.5082Z" fill="#DBF8E5"/>
<path d="M38.9872 57.1966C38.956 57.1897 38.9284 57.1828 38.8972 57.1758C39.0045 56.9337 39.1982 56.8299 39.4507 56.8126C39.4646 56.8265 39.4784 56.8438 39.4888 56.8576C39.3469 57.0098 39.174 57.1136 38.9872 57.1966Z" fill="#B0E6B8"/>
<path d="M42.0383 34.2717C42.0764 34.2647 42.1144 34.2544 42.1525 34.2474C42.3047 34.2682 42.45 34.2959 42.5538 34.4204C42.3601 34.4515 42.1871 34.4066 42.0383 34.2717Z" fill="#CFF4D6"/>
<path d="M56.6513 26.7779C53.6935 26.7779 50.7358 26.7744 47.778 26.7744C47.6881 26.6256 47.6915 26.4561 47.6915 26.2935C47.6915 23.8754 47.6915 21.4608 47.6915 19.0427C47.6915 18.9078 47.6673 18.7659 47.7503 18.638C47.8749 18.5273 48.034 18.5376 48.1827 18.5376C50.8914 18.5342 53.6001 18.5342 56.3054 18.5376C56.4576 18.5376 56.6132 18.5273 56.7447 18.6241C56.8762 18.7763 56.8519 18.9597 56.8519 19.1361C56.8554 21.485 56.8554 23.8339 56.8519 26.1794C56.8589 26.4008 56.8692 26.6291 56.6513 26.7779Z" fill="#F7C201"/>
<path d="M47.7738 18.6562C47.7738 21.3614 47.7773 24.0701 47.7773 26.7753C47.7184 26.7235 47.6596 26.675 47.6008 26.6231C47.6008 23.6896 47.6043 20.756 47.6043 17.8225C47.7392 17.7568 47.6389 17.5665 47.7738 17.4973C47.9848 17.7498 48.2823 17.6772 48.5452 17.6772C50.8596 17.6841 53.1704 17.6772 55.4847 17.6841C55.8826 17.6841 56.2839 17.6219 56.6748 17.7533C56.7578 17.7983 56.7855 17.8675 56.7682 17.9574C56.744 18.0058 56.7059 18.0439 56.6575 18.0681C56.4326 18.1581 56.1939 18.1338 55.9621 18.1338C53.5302 18.1373 51.0948 18.1338 48.6629 18.1338C48.5141 18.1338 48.3688 18.1269 48.2235 18.1615C50.7246 18.1823 53.2223 18.1788 55.7234 18.1788C55.9033 18.1788 56.0832 18.165 56.2597 18.2065C56.4084 18.2411 56.5745 18.2757 56.5018 18.5005C56.3392 18.6112 56.1559 18.5663 55.9794 18.5663C53.4195 18.5697 50.8561 18.5663 48.2962 18.5697C48.1163 18.5732 47.9329 18.5317 47.7738 18.6562Z" fill="#F0C603"/>
<path d="M56.7372 17.8257C53.8867 17.8257 51.0362 17.8257 48.1856 17.8257C47.9504 17.8257 47.7255 17.8395 47.774 17.497C50.7213 17.497 53.6722 17.497 56.6196 17.4901C56.8721 17.4901 57.0312 17.5247 56.9032 17.8257C56.8514 17.8706 56.796 17.8741 56.7372 17.8257Z" fill="#F3C106"/>
<path d="M56.6506 26.7781C56.7164 26.5809 56.7371 26.3803 56.7371 26.1693C56.7337 23.6647 56.7337 21.1601 56.7337 18.6521C56.8132 18.6071 56.8859 18.5967 56.9343 18.697C56.9481 21.1912 56.9343 23.682 56.9412 26.1762C56.9412 26.3249 56.9032 26.4806 56.9793 26.6225C56.9551 26.8473 56.7856 26.7781 56.6506 26.7781Z" fill="#F0C603"/>
<path d="M56.9862 26.6229C56.8479 26.4845 56.9067 26.3081 56.9067 26.1489C56.9032 23.6513 56.9032 21.1536 56.9032 18.6525C56.8582 18.604 56.8306 18.5452 56.8306 18.4795C56.8479 18.393 56.8617 18.3031 56.9862 18.3238C56.9862 21.0913 56.9862 23.8554 56.9862 26.6229Z" fill="#E8C910"/>
<path d="M56.9864 18.3247C56.9241 18.3628 56.9069 18.425 56.9034 18.4908C56.8031 18.5703 56.6993 18.5876 56.5851 18.5254C56.4571 18.297 56.6197 18.1517 56.7373 17.9926C56.938 17.8715 56.9172 18.0826 56.983 18.1587C56.9864 18.214 56.9864 18.2694 56.9864 18.3247Z" fill="#F0C603"/>
<path d="M56.9868 18.158C56.9038 18.1061 56.8658 17.9816 56.7412 17.992C56.7412 17.9366 56.7412 17.8813 56.7412 17.8259C56.7966 17.8259 56.8519 17.8259 56.9073 17.8259C57.0214 17.9124 56.9765 18.0404 56.9868 18.158Z" fill="#E8C910"/>
<path d="M39.4511 56.8129C39.247 56.9028 39.0567 57.017 38.8976 57.1761C38.7454 57.2315 38.5932 57.2868 38.4756 57.4079C37.3859 57.8092 36.2754 58.1275 35.12 58.2658C33.8988 58.4111 32.6707 58.4596 31.4427 58.4734C29.6749 58.4907 27.9072 58.4872 26.1394 58.4907C25.963 58.3835 25.9941 58.207 25.9907 58.0444C25.9838 56.9651 25.9768 55.8858 25.9768 54.8065C25.9734 49.7558 25.9768 44.7086 25.9734 39.6579C25.9734 39.0732 25.9734 39.0732 26.5684 39.0732C28.5887 39.0767 30.609 39.0629 32.6258 39.0905C34.3866 39.1147 36.1301 39.2739 37.8044 39.8862C37.8563 39.9035 37.9117 39.9035 37.967 39.9104C38.1435 40.0142 38.3199 40.1214 38.4998 40.2252C38.2611 40.2529 38.0501 40.2321 37.8494 40.0592C37.6073 39.8481 37.2613 39.8378 36.9707 39.7617C36.2512 39.5783 35.5247 39.3361 34.7706 39.3534C34.2275 39.3673 33.7085 39.1493 33.1654 39.2427C33.0616 39.3292 32.9337 39.3189 32.8126 39.3223C30.8753 39.3777 28.9346 39.3604 26.9974 39.3604C26.8313 39.3604 26.6653 39.3707 26.5303 39.2462C26.3989 39.2566 26.2259 39.1909 26.1948 39.4088C26.264 39.651 26.2813 39.8966 26.2813 40.1456C26.2813 45.646 26.2813 51.1499 26.2778 56.6503C26.2778 56.8267 26.3193 57.0135 26.1982 57.1727C26.1982 57.228 26.1982 57.2834 26.1982 57.3387C26.3332 57.5601 26.3089 57.7815 26.1982 58.0029C26.1325 58.2866 26.3297 58.3316 26.4992 58.2485C26.6895 58.1551 26.8694 58.1724 27.0562 58.169C28.4641 58.1655 29.8721 58.1863 31.2801 58.1551C31.6502 58.1482 31.9477 58.3662 32.3144 58.335C33.6982 58.2139 35.0819 58.1863 36.4518 57.8784C37.1126 57.7296 37.6903 57.401 38.3441 57.2661C38.7731 57.1761 39.1156 56.8613 39.4649 56.5984C39.5791 56.5119 39.6794 56.4289 39.8282 56.4324C39.7002 56.5604 39.5756 56.6884 39.4511 56.8129Z" fill="#30A649"/>
<path d="M26.198 57.1729C26.198 51.5306 26.1946 45.8849 26.2084 40.2427C26.2084 39.9625 26.0078 39.6857 26.1946 39.4055C26.4644 39.4747 26.3572 39.6961 26.3572 39.8518C26.3641 42.768 26.3606 45.6808 26.3606 48.5971C26.3606 51.3058 26.3641 54.0145 26.3572 56.7231C26.3572 56.8823 26.4644 57.1037 26.198 57.1729Z" fill="#16AB37"/>
<path d="M31.84 39.4089C31.8746 39.6096 32.0303 39.5715 32.1618 39.575C32.4766 39.5784 32.7879 39.575 33.1062 39.575C33.1027 39.786 32.9747 39.7376 32.8951 39.7376C30.8818 39.741 28.8684 39.7376 26.8551 39.7445C26.5991 39.7445 26.4988 39.6545 26.5299 39.4089C26.6475 39.312 26.7894 39.3259 26.9277 39.3259C28.436 39.3259 29.9408 39.3224 31.4491 39.3259C31.5806 39.3293 31.7259 39.2982 31.84 39.4089Z" fill="#20A53E"/>
<path d="M31.8409 39.4089C30.0697 39.4089 28.2985 39.4089 26.5308 39.4089C26.5308 39.3536 26.5308 39.3017 26.5308 39.2463C28.7448 39.2463 30.9553 39.2463 33.1693 39.2463C33.1382 39.4435 32.9825 39.4089 32.8545 39.4089C32.5155 39.4124 32.1765 39.4089 31.8409 39.4089Z" fill="#17AC31"/>
<path d="M26.1948 58.0039C26.1948 57.7825 26.1948 57.5611 26.1948 57.3397C26.4612 57.5646 26.4646 57.786 26.1948 58.0039Z" fill="#16AB37"/>
<path d="M56.5706 18.4907C56.6813 18.4907 56.792 18.4907 56.9027 18.4907C56.9027 18.546 56.9027 18.6014 56.9027 18.6567C56.8474 18.6567 56.792 18.6567 56.7367 18.6567C53.7478 18.6567 50.7623 18.6567 47.7734 18.6567C47.8426 18.3869 48.064 18.4942 48.2197 18.4942C50.9768 18.4872 53.7305 18.4907 56.4876 18.4907C56.5153 18.4388 56.5429 18.4388 56.5706 18.4907Z" fill="#F9BF0A"/>
<path d="M56.5717 18.49C56.544 18.49 56.5163 18.49 56.4887 18.49C56.4195 18.2202 56.1981 18.3309 56.0424 18.3274C53.4617 18.3205 50.8775 18.3274 48.2969 18.3136C48.1273 18.3136 47.7987 18.4658 47.8091 18.1406C47.816 17.8777 48.1204 17.9988 48.2899 17.9953C51.1059 17.9884 53.9218 17.9884 56.7377 17.9884C56.8 18.196 56.6166 18.3205 56.5717 18.49Z" fill="#FAC103"/>
</svg>
