<svg width="18" height="16" viewBox="0 0 18 16" fill="none" xmlns="http://www.w3.org/2000/svg">
<path d="M8.9421 4.70294L8.97987 5.32578L8.35034 5.24951C6.05885 4.95716 4.05694 3.9657 2.3572 2.30055L1.52622 1.47434L1.31218 2.08447C0.85892 3.44455 1.1485 4.88089 2.0928 5.84693C2.59643 6.3808 2.48311 6.45706 1.61436 6.13929C1.31218 6.0376 1.04778 5.96133 1.0226 5.99947C0.934464 6.08844 1.23664 7.24515 1.47586 7.70274C1.80322 8.3383 2.47052 8.96114 3.20078 9.32976L3.81772 9.62211L3.08746 9.63482C2.38239 9.63482 2.3572 9.64753 2.43275 9.91446C2.68456 10.7407 3.67922 11.6177 4.7872 11.9991L5.56781 12.266L4.88792 12.6728C3.88067 13.2575 2.69715 13.588 1.51363 13.6134C0.947054 13.6261 0.481201 13.6769 0.481201 13.7151C0.481201 13.8422 2.01726 14.554 2.91119 14.8336C5.593 15.6599 8.77842 15.3039 11.1706 13.893C12.8704 12.8888 14.5701 10.8932 15.3633 8.96114C15.7914 7.93154 16.2195 6.05031 16.2195 5.14783C16.2195 4.56312 16.2573 4.48685 16.9623 3.78775C17.3778 3.38099 17.7681 2.93611 17.8437 2.809C17.9696 2.56749 17.957 2.56749 17.3149 2.78357C16.2447 3.16491 16.0936 3.11406 16.6224 2.54206C17.0127 2.13531 17.4785 1.39807 17.4785 1.18198C17.4785 1.14385 17.2897 1.20741 17.0756 1.32181C16.849 1.44892 16.3454 1.63958 15.9677 1.75398L15.2878 1.97007L14.6708 1.5506C14.3309 1.32181 13.8524 1.06758 13.6006 0.991318C12.9585 0.813364 11.9764 0.838786 11.3973 1.04216C9.82345 1.61416 8.82879 3.08864 8.9421 4.70294Z" fill="#1DA737"/>
</svg>
