<svg width="29" height="20" viewBox="0 0 29 20" fill="none" xmlns="http://www.w3.org/2000/svg">
<path d="M23.25 12.5V2.5C23.25 1.125 22.125 0 20.75 0H3.25C1.875 0 0.75 1.125 0.75 2.5V12.5C0.75 13.875 1.875 15 3.25 15H20.75C22.125 15 23.25 13.875 23.25 12.5ZM20.75 12.5H3.25V2.5H20.75V12.5ZM12 3.75C9.925 3.75 8.25 5.425 8.25 7.5C8.25 9.575 9.925 11.25 12 11.25C14.075 11.25 15.75 9.575 15.75 7.5C15.75 5.425 14.075 3.75 12 3.75ZM28.25 3.75V17.5C28.25 18.875 27.125 20 25.75 20H4.5C4.5 18.75 4.5 18.875 4.5 17.5H25.75V3.75C27.125 3.75 27 3.75 28.25 3.75Z" fill="#F0C603"/>
</svg>
